<?xml version="1.0" encoding="UTF-8" standalone="no"?>
<svg
   xmlns:dc="http://purl.org/dc/elements/1.1/"
   xmlns:cc="http://creativecommons.org/ns#"
   xmlns:rdf="http://www.w3.org/1999/02/22-rdf-syntax-ns#"
   xmlns:svg="http://www.w3.org/2000/svg"
   xmlns="http://www.w3.org/2000/svg"
   viewBox="0 0 2537.3333 1305.3333"
   height="1305.3333"
   width="2537.3333"
   xml:space="preserve"
   id="svg2"
   version="1.1"><metadata
     id="metadata8"><rdf:RDF><cc:Work
         rdf:about=""><dc:format>image/svg+xml</dc:format><dc:type
           rdf:resource="http://purl.org/dc/dcmitype/StillImage" /></cc:Work></rdf:RDF></metadata><defs
     id="defs6"><clipPath
       id="clipPath18"
       clipPathUnits="userSpaceOnUse"><path
         id="path16"
         d="M 0,979 H 1903 V 0 H 0 Z" /></clipPath><clipPath
       id="clipPath26"
       clipPathUnits="userSpaceOnUse"><path
         id="path24"
         d="M 171.48,689.62 H 393.587 V 403.31 H 171.48 Z" /></clipPath></defs><g
     transform="matrix(1.3333333,0,0,-1.3333333,0,1305.3333)"
     id="g10"><g
       id="g12"><g
         clip-path="url(#clipPath18)"
         id="g14"><g
           id="g20"><g
             id="g22" /><g
             id="g38"><g
               id="g36"
               clip-path="url(#clipPath26)"><g
                 id="g30"
                 transform="translate(344.4062,424.8027)"><path
                   id="path28"
                   style="fill:#c92f2f;fill-opacity:1;fill-rule:nonzero;stroke:none"
                   d="m 0,0 c 11.123,5.487 4.188,4.187 4.478,13.722 0.289,9.533 10.4,-0.145 16.034,-2.455 5.632,-2.313 2.887,1.297 1.299,7.076 -1.589,5.777 1.444,16.032 5.634,25.422 4.188,9.389 -5.923,7.511 -8.812,9.822 -2.889,2.311 -0.433,7.655 -1.59,10.255 -1.153,2.601 -6.789,7.946 3.902,7.946 10.689,0 8.088,7.943 10.11,11.41 2.024,3.468 2.89,3.033 9.823,3.756 6.933,0.723 2.889,13 3.321,16.034 0.433,3.033 4.623,3.467 4.479,7.366 -0.145,3.901 -2.456,11.555 -3.033,17.334 -0.578,5.777 -4.911,15.745 -7.078,23.833 -2.167,8.089 0.882,10.343 0.882,10.343 l 1.032,0.153 c -0.191,3.103 -4.265,7.95 -8.336,12.604 -4.073,4.654 -1.941,3.49 -3.492,9.503 -1.549,6.01 -5.429,6.397 -11.247,5.622 -5.816,-0.776 -6.204,-1.358 -7.368,-12.217 -1.163,-10.859 -15.319,0.777 -21.33,5.237 -6.012,4.459 -11.829,5.235 -11.829,2.52 0,-2.714 0.581,-4.072 -1.357,-6.593 -1.941,-2.521 -5.43,-4.849 -10.278,-4.46 -4.848,0.388 -10.084,7.563 -14.35,11.053 -4.266,3.491 -6.012,-2.327 -7.562,-6.012 -1.551,-3.686 -5.818,0.195 -9.114,4.85 -3.297,4.653 -9.502,7.561 -11.635,11.827 -2.134,4.265 -0.776,5.624 -0.582,8.919 0.195,3.297 -5.817,3.88 -9.307,6.594 -3.491,2.715 -4.267,-0.97 -2.909,-4.072 1.356,-3.101 2.133,-3.103 2.133,-6.205 0,-3.104 -10.86,3.489 -11.829,5.042 -0.97,1.552 -0.582,4.071 -0.97,7.368 -0.388,3.296 -7.369,-3.492 -7.369,-3.492 0,0 -3.684,5.626 -5.623,8.146 -1.939,2.521 -8.726,10.472 -12.411,14.932 -3.683,4.46 -4.071,0.389 -3.683,5.622 0.387,5.237 -3.103,9.115 -5.623,12.411 -2.522,3.297 -2.328,1.941 -2.521,6.787 -0.095,2.364 -0.759,4.409 -1.415,5.89 -7.835,-9.096 -15.845,-18.688 -15.845,-18.688 l -16.87,-4.944 c 0,0 9.017,-20.652 53.23,-64.865 0,-6.107 -0.873,-6.107 7.562,-12.508 8.436,-6.397 12.798,-19.487 15.416,-34.322 -0.291,-9.307 3.782,-22.396 17.453,-9.598 7.852,7.272 8.534,11.603 9.889,22.688 0.496,1.322 1.462,1.893 2.524,1.338 0.805,-0.421 1.668,-1.492 2.421,-3.373 0,-2.62 -0.582,-15.127 4.072,-16.872 4.653,-1.745 11.925,-0.291 16.289,4.363 2.618,-9.017 6.69,-12.798 -2.618,-31.996 -5.818,-6.98 -15.416,-17.452 -15.416,-17.452 l 4.362,-4.363 6.109,6.691 c 0,0 5.526,0.581 -0.582,-9.018 -6.108,-9.599 -7.272,-16.579 -7.272,-16.579 L -71.6,49.449 c 0,0 8.436,-11.343 10.181,-4.072 3.49,-2.035 7.853,-7.562 9.017,-18.033 1.163,-10.471 5.527,-9.89 11.926,-15.997 6.399,-6.11 9.017,-13.09 10.471,-18.908 1.455,-5.817 1.455,-6.981 21.233,-10.472 0.162,-0.24 0.346,-0.519 0.543,-0.815 -0.462,1.9 -0.86,3.805 -1.015,5.269 C -9.717,-9.125 -11.123,-5.489 0,0" /></g><g
                 id="g34"
                 transform="translate(344.4062,424.8027)"><path
                   id="path32"
                   style="fill:none;stroke:#262626;stroke-width:1;stroke-linecap:butt;stroke-linejoin:miter;stroke-miterlimit:10;stroke-dasharray:none;stroke-opacity:1"
                   d="m 0,0 c 11.123,5.487 4.188,4.187 4.478,13.722 0.289,9.533 10.4,-0.145 16.034,-2.455 5.632,-2.313 2.887,1.297 1.299,7.076 -1.589,5.777 1.444,16.032 5.634,25.422 4.188,9.389 -5.923,7.511 -8.812,9.822 -2.889,2.311 -0.433,7.655 -1.59,10.255 -1.153,2.601 -6.789,7.946 3.902,7.946 10.689,0 8.088,7.943 10.11,11.41 2.024,3.468 2.89,3.033 9.823,3.756 6.933,0.723 2.889,13 3.321,16.034 0.433,3.033 4.623,3.467 4.479,7.366 -0.145,3.901 -2.456,11.555 -3.033,17.334 -0.578,5.777 -4.911,15.745 -7.078,23.833 -2.167,8.089 0.882,10.343 0.882,10.343 l 1.032,0.153 c -0.191,3.103 -4.265,7.95 -8.336,12.604 -4.073,4.654 -1.941,3.49 -3.492,9.503 -1.549,6.01 -5.429,6.397 -11.247,5.622 -5.816,-0.776 -6.204,-1.358 -7.368,-12.217 -1.163,-10.859 -15.319,0.777 -21.33,5.237 -6.012,4.459 -11.829,5.235 -11.829,2.52 0,-2.714 0.581,-4.072 -1.357,-6.593 -1.941,-2.521 -5.43,-4.849 -10.278,-4.46 -4.848,0.388 -10.084,7.563 -14.35,11.053 -4.266,3.491 -6.012,-2.327 -7.562,-6.012 -1.551,-3.686 -5.818,0.195 -9.114,4.85 -3.297,4.653 -9.502,7.561 -11.635,11.827 -2.134,4.265 -0.776,5.624 -0.582,8.919 0.195,3.297 -5.817,3.88 -9.307,6.594 -3.491,2.715 -4.267,-0.97 -2.909,-4.072 1.356,-3.101 2.133,-3.103 2.133,-6.205 0,-3.104 -10.86,3.489 -11.829,5.042 -0.97,1.552 -0.582,4.071 -0.97,7.368 -0.388,3.296 -7.369,-3.492 -7.369,-3.492 0,0 -3.684,5.626 -5.623,8.146 -1.939,2.521 -8.726,10.472 -12.411,14.932 -3.683,4.46 -4.071,0.389 -3.683,5.622 0.387,5.237 -3.103,9.115 -5.623,12.411 -2.522,3.297 -2.328,1.941 -2.521,6.787 -0.095,2.364 -0.759,4.409 -1.415,5.89 -7.835,-9.096 -15.845,-18.688 -15.845,-18.688 l -16.87,-4.944 c 0,0 9.017,-20.652 53.23,-64.865 0,-6.107 -0.873,-6.107 7.562,-12.508 8.436,-6.397 12.798,-19.487 15.416,-34.322 -0.291,-9.307 3.782,-22.396 17.453,-9.598 7.852,7.272 8.534,11.603 9.889,22.688 0.496,1.322 1.462,1.893 2.524,1.338 0.805,-0.421 1.668,-1.492 2.421,-3.373 0,-2.62 -0.582,-15.127 4.072,-16.872 4.653,-1.745 11.925,-0.291 16.289,4.363 2.618,-9.017 6.69,-12.798 -2.618,-31.996 -5.818,-6.98 -15.416,-17.452 -15.416,-17.452 l 4.362,-4.363 6.109,6.691 c 0,0 5.526,0.581 -0.582,-9.018 -6.108,-9.599 -7.272,-16.579 -7.272,-16.579 L -71.6,49.449 c 0,0 8.436,-11.343 10.181,-4.072 3.49,-2.035 7.853,-7.562 9.017,-18.033 1.163,-10.471 5.527,-9.89 11.926,-15.997 6.399,-6.11 9.017,-13.09 10.471,-18.908 1.455,-5.817 1.455,-6.981 21.233,-10.472 0.162,-0.24 0.346,-0.519 0.543,-0.815 -0.462,1.9 -0.86,3.805 -1.015,5.269 C -9.717,-9.125 -11.123,-5.489 0,0 Z" /></g></g></g></g></g></g></g></svg>