<?xml version="1.0" encoding="UTF-8" standalone="no"?>
<svg
   xmlns:dc="http://purl.org/dc/elements/1.1/"
   xmlns:cc="http://creativecommons.org/ns#"
   xmlns:rdf="http://www.w3.org/1999/02/22-rdf-syntax-ns#"
   xmlns:svg="http://www.w3.org/2000/svg"
   xmlns="http://www.w3.org/2000/svg"
   viewBox="0 0 2537.3333 1305.3333"
   height="1305.3333"
   width="2537.3333"
   xml:space="preserve"
   id="svg2"
   version="1.1"><metadata
     id="metadata8"><rdf:RDF><cc:Work
         rdf:about=""><dc:format>image/svg+xml</dc:format><dc:type
           rdf:resource="http://purl.org/dc/dcmitype/StillImage" /></cc:Work></rdf:RDF></metadata><defs
     id="defs6"><clipPath
       id="clipPath18"
       clipPathUnits="userSpaceOnUse"><path
         id="path16"
         d="M 0,979 H 1903 V 0 H 0 Z" /></clipPath><clipPath
       id="clipPath26"
       clipPathUnits="userSpaceOnUse"><path
         id="path24"
         d="M 520.419,817.669 H 718.15 V 614.043 H 520.419 Z" /></clipPath></defs><g
     transform="matrix(1.3333333,0,0,-1.3333333,0,1305.3333)"
     id="g10"><g
       id="g12"><g
         clip-path="url(#clipPath18)"
         id="g14"><g
           id="g20"><g
             id="g22" /><g
             id="g38"><g
               id="g36"
               clip-path="url(#clipPath26)"><g
                 id="g30"
                 transform="translate(528.8794,698.8799)"><path
                   id="path28"
                   style="fill:#c92f2f;fill-opacity:1;fill-rule:nonzero;stroke:none"
                   d="m 0,0 c 0.875,-3.379 0.875,-6.011 8.64,-7.89 1.127,-2.127 3.005,-3.506 3.005,-3.506 0,0 -8.138,-5.383 -6.511,-9.264 1.627,-3.883 5.384,-5.385 6.26,-7.139 0.877,-1.754 0.502,-11.268 0.502,-11.268 0,0 6.637,-5.761 10.894,-9.017 4.256,-3.257 6.386,-6.387 5.634,-10.895 -0.752,-4.508 -4.383,-7.012 -3.131,-9.893 1.253,-2.879 4.88,-4.288 4.88,-4.288 0.289,9.243 4.622,11.843 9.39,9.387 4.766,-2.455 18.632,-17.766 20.511,-19.066 1.877,-1.301 2.454,-2.456 4.621,-0.289 2.167,2.167 2.6,3.178 6.933,3.612 0,0 9.301,-0.281 9.641,8.015 0.184,4.512 2.002,10.895 5.258,11.646 3.257,0.752 5.761,-3.255 10.018,-3.632 4.257,-0.375 4.633,2.882 6.011,6.137 1.378,3.254 0.125,4.508 2.379,6.636 2.253,2.13 5.509,12.773 6.762,18.532 1.252,5.761 4.256,21.788 4.256,25.796 0,4.007 0.251,7.387 2.005,9.766 1.752,2.38 7.763,-1.753 10.518,-3.38 2.755,-1.628 5.634,-3.631 9.517,-3.755 3.881,-0.128 4.632,-0.879 6.886,-2.631 2.254,-1.753 5.886,-0.376 5.886,-0.376 5.51,2.879 6.762,0.875 11.144,-2.003 4.382,-2.882 6.762,0.375 10.895,3.129 4.131,2.756 0,7.389 0,11.772 0,4.382 -0.878,7.137 -4.884,11.144 -4.008,4.006 -10.673,0.243 -13.899,3.631 -3.426,3.598 -9.444,6.675 -14.953,10.933 -5.51,4.257 1.929,11.107 9.192,17.618 7.262,6.511 10.768,7.89 14.274,8.014 3.507,0.126 10.769,-1.002 10.769,0.626 0,1.629 2.004,7.764 5.636,11.521 2.136,2.21 6.432,5.107 9.614,7.123 -4.516,6.219 -10.358,14.153 -15.496,19.068 -8.92,8.533 -19.973,17.259 -23.851,22.3 0,0 -1.745,-1.163 -6.206,-3.878 -4.097,-2.495 -5.041,-7.756 -13.379,-13.962 -13.38,2.328 -22.347,-2.608 -35.487,-9.307 -9.89,-5.042 -34.613,-8.145 -28.214,-25.888 3.491,-11.635 6.69,-11.635 -7.272,-26.468 -4.654,-6.982 -4.654,-7.563 -13.38,-7.563 -8.726,0 -12.798,4.653 -16.289,2.908 0,0 -11.052,-8.144 -14.252,-11.926 C 11.527,18.249 2.51,4.87 0.183,4.578 -0.736,4.463 -1.974,5.397 -3.242,6.6 L -7.888,5.259 C -7.888,5.259 -9.266,2.253 0,0" /></g><g
                 id="g34"
                 transform="translate(528.8794,698.8799)"><path
                   id="path32"
                   style="fill:none;stroke:#262626;stroke-width:1;stroke-linecap:butt;stroke-linejoin:miter;stroke-miterlimit:10;stroke-dasharray:none;stroke-opacity:1"
                   d="m 0,0 c 0.875,-3.379 0.875,-6.011 8.64,-7.89 1.127,-2.127 3.005,-3.506 3.005,-3.506 0,0 -8.138,-5.383 -6.511,-9.264 1.627,-3.883 5.384,-5.385 6.26,-7.139 0.877,-1.754 0.502,-11.268 0.502,-11.268 0,0 6.637,-5.761 10.894,-9.017 4.256,-3.257 6.386,-6.387 5.634,-10.895 -0.752,-4.508 -4.383,-7.012 -3.131,-9.893 1.253,-2.879 4.88,-4.288 4.88,-4.288 0.289,9.243 4.622,11.843 9.39,9.387 4.766,-2.455 18.632,-17.766 20.511,-19.066 1.877,-1.301 2.454,-2.456 4.621,-0.289 2.167,2.167 2.6,3.178 6.933,3.612 0,0 9.301,-0.281 9.641,8.015 0.184,4.512 2.002,10.895 5.258,11.646 3.257,0.752 5.761,-3.255 10.018,-3.632 4.257,-0.375 4.633,2.882 6.011,6.137 1.378,3.254 0.125,4.508 2.379,6.636 2.253,2.13 5.509,12.773 6.762,18.532 1.252,5.761 4.256,21.788 4.256,25.796 0,4.007 0.251,7.387 2.005,9.766 1.752,2.38 7.763,-1.753 10.518,-3.38 2.755,-1.628 5.634,-3.631 9.517,-3.755 3.881,-0.128 4.632,-0.879 6.886,-2.631 2.254,-1.753 5.886,-0.376 5.886,-0.376 5.51,2.879 6.762,0.875 11.144,-2.003 4.382,-2.882 6.762,0.375 10.895,3.129 4.131,2.756 0,7.389 0,11.772 0,4.382 -0.878,7.137 -4.884,11.144 -4.008,4.006 -10.673,0.243 -13.899,3.631 -3.426,3.598 -9.444,6.675 -14.953,10.933 -5.51,4.257 1.929,11.107 9.192,17.618 7.262,6.511 10.768,7.89 14.274,8.014 3.507,0.126 10.769,-1.002 10.769,0.626 0,1.629 2.004,7.764 5.636,11.521 2.136,2.21 6.432,5.107 9.614,7.123 -4.516,6.219 -10.358,14.153 -15.496,19.068 -8.92,8.533 -19.973,17.259 -23.851,22.3 0,0 -1.745,-1.163 -6.206,-3.878 -4.097,-2.495 -5.041,-7.756 -13.379,-13.962 -13.38,2.328 -22.347,-2.608 -35.487,-9.307 -9.89,-5.042 -34.613,-8.145 -28.214,-25.888 3.491,-11.635 6.69,-11.635 -7.272,-26.468 -4.654,-6.982 -4.654,-7.563 -13.38,-7.563 -8.726,0 -12.798,4.653 -16.289,2.908 0,0 -11.052,-8.144 -14.252,-11.926 C 11.527,18.249 2.51,4.87 0.183,4.578 -0.736,4.463 -1.974,5.397 -3.242,6.6 L -7.888,5.259 C -7.888,5.259 -9.266,2.253 0,0 Z" /></g></g></g></g></g></g></g></svg>