<?xml version="1.0" encoding="utf-8"?>
<!-- Generator: Adobe Illustrator 23.1.0, SVG Export Plug-In . SVG Version: 6.00 Build 0)  -->
<svg version="1.1" id="Layer_1" xmlns="http://www.w3.org/2000/svg" xmlns:xlink="http://www.w3.org/1999/xlink" x="0px" y="0px"
	 viewBox="0 0 1903 979" style="enable-background:new 0 0 1903 979;" xml:space="preserve">
<style type="text/css">
	.st0{display:none;fill:#F1F1F1;}
	.st1{display:none;}
	.st2{display:inline;}
	.st3{fill:#DE0024;}
	.st4{display:inline;fill:#D7D1CD;enable-background:new    ;}
	.st5{fill:#C92F2F;stroke:#262626;stroke-miterlimit:10;enable-background:new    ;}
	.st6{display:inline;fill:#C92F2F;stroke:#262626;stroke-miterlimit:10;enable-background:new    ;}
	.st7{display:inline;enable-background:new    ;}
	.st8{fill:#FCD700;stroke:#262626;stroke-miterlimit:10;enable-background:new    ;}
	.st9{display:inline;fill:#FCD700;stroke:#262626;stroke-miterlimit:10;enable-background:new    ;}
	.st10{display:inline;fill:#FAF1B1;enable-background:new    ;}
</style>
<rect class="st0" width="1903" height="979"/>
<g class="st1">
	<path class="st4" d="M1444.52,970.53c0,0-0.76,3.02,1.76,1.76c2.52-1.26,1.26-0.25,1.26-3.02
		C1447.54,966.51,1446.78,969.02,1444.52,970.53z"/>
	<path class="st4" d="M1467.91,962.73c0,0-4.52,0.5-2.01,2.52c2.51,2.01,4.02-0.51,4.02-0.51S1469.67,962.23,1467.91,962.73z"/>
	<path class="st4" d="M1486.78,954.43c0,0-3.77,2.26-2.01,4.78c1.76,2.52,2.51,0.25,3.02-1.51
		C1488.29,955.94,1490.05,953.93,1486.78,954.43z"/>
</g>
<g>
	<path class="st5" d="M798.91,645.92c-2.34-3.64-3.38-5.46-4.42-11.45c-1.04-5.98-6.51-2.08-10.67-1.56
		c-4.16,0.52-4.16-1.82-5.98-10.15c-1.82-8.33-4.16-6.76-6.25-4.42c-2.08,2.34-4.68-0.52-6.5-3.12c-1.82-2.6-4.94,0.52-5.98,3.12
		c-1.04,2.6-4.16-0.26-5.99-1.82c-1.82-1.56-5.73-1.82-5.73-1.82s-0.26,3.9-0.26,7.81s-2.6,5.46-4.16,7.02
		c-0.88,0.88-3,3.49-4.68,5.61c1.22,1.69,1.55,4.33,1.55,5.25c0,1.47,4.61,3.14,6.71,3.14c2.1,0,5.24,2.72,5.87,6.91
		c0.63,4.19,6.15,8.84,5.3,8.89c2.06,1.22,4.25,2.82,4.51,4.29c0.52,2.86,2.34,0.78,3.38-1.3c1.04-2.08,2.86-5.2,5.72-5.72
		c2.86-0.52,5.46,0.52,5.46,1.82c0,1.3,1.04,7.55,2.86,3.12c2.08-8.58,4.94-8.33,7.55-8.33c2.6,0,2.86-1.3,3.9-4.94
		c1.04-3.64,3.38-4.68,5.98,0c2.6,4.68,6.51,4.42,6.51,4.42S801.25,649.56,798.91,645.92z"/>
</g>
<g class="st1">
	<g class="st2">
		<path class="st5" d="M855.63,684.17c-4.42,0.26-5.72,1.82-8.59,1.82c-2.86,0-7.54-2.34-8.59-5.2c-1.04-2.86-3.12-5.46-7.03-5.46
			c-3.9,0-6.5,4.68-9.37,5.2c-2.86,0.52-10.93,4.94-11.19-4.16c0.78-4.94,1.82-5.72,1.82-5.72c2.86-2.34,2.86-1.56,2.6-2.86
			c-0.26-1.3-0.52-2.34-4.68-2.08c-4.16,0.26-3.38-1.82-3.38-4.94c0-3.12,1.82-5.47-3.64-7.28c-1.07-0.36-1.96-0.86-2.7-1.42
			c-1.22-0.58-2.64-1.68-3.81-3.78c-2.6-4.68-4.94-3.64-5.98,0c-1.04,3.64-1.3,4.94-3.9,4.94c-2.6,0-5.46-0.26-7.55,8.33
			c-1.82,4.42-2.86-1.82-2.86-3.12c0-1.3-2.6-2.34-5.46-1.82c-2.86,0.52-4.68,3.64-5.72,5.72c-0.4,0.79-0.9,1.58-1.41,2.1
			c0.89,1.41,2.09,2.99,2.97,2.84c1.56,5.72,2.6,9.63,6.24,13.53c3.64,3.9,3.64,5.2,3.9,6.51c0.26,1.3,4.42,1.3,4.42,1.3
			s0.52,3.64,1.82,4.16c1.3,0.52,6.5-1.04,6.5-1.04s-1.04,3.9,1.3,4.16c2.34,0.26,7.03-1.04,7.03,2.34c0,3.38-1.56,17.17-2.08,20.3
			c-0.52,3.12-6.24,11.19-6.24,15.09c-0.29,0.57-0.57,1.18-0.85,1.8c-0.23,2.3-1.42,17.77,9.05,5.09
			c6.5-7.87,17.02-15.27,21.23-20.21c4.22-4.95,16.14-18.76,19.78-21.09c2.91-1.16,7.27-3.34,13.96-4.36
			c2.62-0.44,5.67-1.89,5.67-6.25c0-1.47,0.02-2.93,0.04-4.23C858.21,684.18,857.16,684.08,855.63,684.17z"/>
	</g>
	<path class="st6" d="M788.81,748.59c0,0,0.97,0.19,3.3-0.19c2.33-0.39,6.21-5.04,6.21-2.71c0,2.33-1.36,3.88-3.68,5.82
		C792.3,753.44,787.06,757.13,788.81,748.59z"/>
	<g class="st2">
		<path class="st5" d="M796.31,718.52c0.52-3.12,2.08-16.91,2.08-20.3c0-3.38-4.68-2.08-7.03-2.34c-2.34-0.26-1.3-4.16-1.3-4.16
			s-5.2,1.56-6.5,1.04c-1.3-0.52-1.82-4.16-1.82-4.16s-4.16,0-4.42-1.3c-0.26-1.3-0.26-2.6-3.9-6.51c-3.64-3.9-4.68-7.81-6.24-13.53
			c-0.88,0.15-2.08-1.43-2.97-2.84c-0.83,0.85-1.65,0.98-1.97-0.8c-0.27-1.47-2.45-3.07-4.51-4.29c0.03,0,0.06,0,0.09-0.01
			c-2.01,0.11-5.86,0.28-8.11,0.13c-3.14-0.21-7.96-3.56-11.74-3.56c-3.77,0,0.21,4.4,1.05,9.64c0.84,5.24-7.33-1.89-9.01-3.77
			c-1.68-1.89-1.47,7.13-1.47,12.58c0,5.45-6.71,1.05-10.48-2.1c-3.37-2.81-5.75-3.44-12.47-3.54c6.18,15.35,11.83,14.83,18.67,19.3
			c3.49,6.69,26.18,18.62,32.87,22.11c7.85,6.98,14.25,10.18,20.36,11.34c6.11,1.16,6.69,0.29,8.14,4.07
			c1.45,3.78-7.27,14.83-7.27,14.83l-1.62,2.32c0.76,1.62,1.48,3.24,2.49,3.65c5.82,2.36,10.04-11.2,10.04-11.2
			s-0.01,0.11-0.03,0.29c0.28-0.62,0.56-1.22,0.85-1.8C790.06,729.71,795.79,721.64,796.31,718.52z"/>
	</g>
	<path class="st6" d="M779.31,749.56c0,0-3.3,0.97-2.52,2.72c0.78,1.74,3.3,4.07,5.62,3.3c2.33-0.78,4.07-3.68,3.49-5.04
		C785.32,749.17,779.89,749.17,779.31,749.56z"/>
	<g class="st2">
		<path class="st5" d="M593.22,615.22c0,0-0.51-7.95-0.3-12.98c0.21-5.03,11.11-1.47,18.44,0.42c2.09-2.3,7.34-4.4,7.34-4.4
			s0.63-4.61-0.21-11.53c-3.98-3.56-8.17-11.31-9.85-14.25c-1.68-2.93-8.59-13.83-10.48-16.35c-1.89-2.52-1.26-4.61-1.26-8.8
			c0-4.19,4.4-7.13,4.4-7.13c4.61,0.21,5.87,6.08,9.01,11.32c3.14,5.24,9.85,6.71,17.6,10.06c7.75,3.35,9.64,7.34,12.78,7.75
			c3.14,0.42,3.14-1.05,7.96-1.47c4.82-0.42,12.58,5.87,12.58,5.87s10.27-2.72,10.27-4.4c0-1.68-2.31-9.22-2.31-9.22
			s10.69-2.72,18.65-1.05c7.96,1.68,5.87,5.45,7.75,5.66c1.89,0.21,4.4,2.1,5.45,3.98c1.05,1.89,0.84,4.61,2.1,7.96
			c1.26,3.35,1.68,5.03,2.3,4.4c0.63-0.63,6.5-3.14,6.5,0.21c0,3.35,0.42,2.93,5.66,10.27c5.24,7.33,6.91,11.95,8.59,25.57
			c1.68,13.62,2.72,14.04,2.93,16.14c0.21,2.1,1.89,1.05,5.87,0.42c3.98-0.63,4.82,5.24,4.82,6.71c0,1.47,4.61,3.14,6.71,3.14
			c2.1,0,5.24,2.72,5.87,6.91c0.63,4.19,5.94,8.85,5.3,8.89c-1.92,0.11-5.67,0.28-8.02,0.13c-3.14-0.21-7.96-3.56-11.74-3.56
			c-3.77,0,0.21,4.4,1.05,9.64c0.84,5.24-7.33-1.89-9.01-3.77c-1.68-1.89-1.47,7.13-1.47,12.58c0,5.45-6.71,1.05-10.48-2.1
			c-3.77-3.14-6.29-3.56-15.09-3.56c-8.8,0-14.04-0.42-17.6-2.31c-3.56-1.89-19.49-6.71-23.68-8.17c-4.19-1.47-5.03-0.21-6.08-3.56
			c-1.05-3.35-4.4-8.59-5.66-9.64c-1.26-1.05-8.8-7.12-11.95-9.85c-3.14-2.72-3.56-3.14-5.87-1.26c-2.31,1.89-8.59,3.35-11.74,1.26
			c-3.14-2.1-7.75-1.26-7.96-7.96c-0.21-6.71-7.96-10.06-11.74-12.15C600.68,615.03,595.29,614.35,593.22,615.22z"/>
	</g>
	<g class="st2">
		<path class="st5" d="M610.32,551.53c3.14,5.24,9.85,6.71,17.6,10.06c7.75,3.35,9.64,7.34,12.78,7.75
			c3.14,0.42,3.14-1.05,7.96-1.47c4.82-0.42,12.58,5.87,12.58,5.87s10.27-2.72,10.27-4.4c0-1.68-2.31-9.22-2.31-9.22
			s0.26-0.07,0.69-0.16c-0.63-3.23-1.19-6.74-1.53-10.32c-1.26-13.2-1.68-14.25-2.52-17.18c-0.84-2.94,3.77-5.66,4.82-6.92
			c1.05-1.26,4.4-5.87,1.05-8.59c-3.35-2.73-2.1-2.1-1.05-5.87c1.05-3.77,4.61-3.98,7.13-3.14c1.43,0.48,5.18-1.5,8.14-3.28
			c-0.64-2.94-1.15-5.78-1.22-8.04c-0.21-6.5-1.05-5.03-5.87-3.98c-4.82,1.05-5.66-4.19-6.71-8.38c-1.05-4.19-2.1-4.61-3.98-5.87
			c0-0.35,0.06-0.73,0.14-1.12l-2.24-1.19l-2.72-5.45l-3.35-3.98l-1.47-7.33l-6.08-0.84c0,0-3.77-3.56-3.56-4.82
			c0.21-1.26,4.61-3.98,6.08-4.4c1.47-0.42-6.08-4.4-7.54-6.08c-1.47-1.68-11.74-2.52-11.74-2.52l-1.72-1.11
			c-2,1.61-4.43,2.61-6.72,3c-5.2,0.87-6.36,2.89-6.36,3.47c0,0.58,0,4.62-2.31,7.94c-2.31,3.32-9.24,7.8-14.01,12.28
			c-4.77,4.48-1.59,22.39-1.59,28.46c0,6.07-4.48,5.06-6.93,5.92c-2.41,0.85-5.8,3.65-5.91,3.75c0-0.02-0.09-0.05-0.72-0.09
			c0.98,3.41,1.93,6.54,2.48,7.86c1.47,3.56,1.47,5.24,1.47,9.43c0,4.19,0.42,8.38,3.14,11.95c2.28,2.98,4.26,4.22,5.21,6.76
			C605.98,540.78,607.27,546.44,610.32,551.53z"/>
	</g>
	<path class="st6" d="M528.88,280.12c0.88,3.38,0.88,6.01,8.64,7.89c1.13,2.13,3.01,3.51,3.01,3.51s-8.14,5.38-6.51,9.26
		c1.63,3.88,5.38,5.39,6.26,7.14c0.88,1.75,0.5,11.27,0.5,11.27s6.64,5.76,10.89,9.02c4.26,3.26,6.39,6.39,5.63,10.89
		c-0.75,4.51-4.38,7.01-3.13,9.89c1.25,2.88,4.88,4.29,4.88,4.29c0.29-9.24,4.62-11.84,9.39-9.39c4.77,2.46,18.63,17.77,20.51,19.07
		c1.88,1.3,2.45,2.46,4.62,0.29c2.17-2.17,2.6-3.18,6.93-3.61c0,0,9.3,0.28,9.64-8.02c0.18-4.51,2-10.89,5.26-11.65
		c3.26-0.75,5.76,3.25,10.02,3.63c4.26,0.38,4.63-2.88,6.01-6.14c1.38-3.25,0.12-4.51,2.38-6.64c2.25-2.13,5.51-12.77,6.76-18.53
		c1.25-5.76,4.26-21.79,4.26-25.8c0-4.01,0.25-7.39,2-9.77c1.75-2.38,7.76,1.75,10.52,3.38c2.76,1.63,5.63,3.63,9.52,3.76
		c3.88,0.13,4.63,0.88,6.89,2.63c2.25,1.75,5.89,0.38,5.89,0.38c5.51-2.88,6.76-0.88,11.14,2c4.38,2.88,6.76-0.38,10.89-3.13
		c4.13-2.76,0-7.39,0-11.77c0-4.38-0.88-7.14-4.88-11.14c-4.01-4.01-10.67-0.24-13.9-3.63c-3.43-3.6-9.44-6.68-14.95-10.93
		c-5.51-4.26,1.93-11.11,9.19-17.62c7.26-6.51,10.77-7.89,14.27-8.01c3.51-0.13,10.77,1,10.77-0.63c0-1.63,2-7.76,5.64-11.52
		c2.14-2.21,6.43-5.11,9.61-7.12c-4.52-6.22-10.36-14.15-15.5-19.07c-8.92-8.53-19.97-17.26-23.85-22.3c0,0-1.75,1.16-6.21,3.88
		c-4.1,2.5-5.04,7.76-13.38,13.96c-13.38-2.33-22.35,2.61-35.49,9.31c-9.89,5.04-34.61,8.14-28.21,25.89
		c3.49,11.64,6.69,11.64-7.27,26.47c-4.66,6.98-4.66,7.56-13.38,7.56s-12.8-4.65-16.29-2.91c0,0-11.05,8.14-14.25,11.93
		c-3.2,3.78-12.22,17.16-14.54,17.45c-0.92,0.11-2.16-0.82-3.42-2.02l-4.65,1.34C520.99,274.86,519.61,277.87,528.88,280.12z"/>
	<path class="st6" d="M634.31,414.96c-2.74-4.77-7.37-14.73-13-15.89c-0.58-7.08,0.29-10.11-13.43-17.62
		c-5.06-3.32-9.53-7.51-7.37-21.81c-4.33,0.43-4.77,1.44-6.93,3.61c-2.17,2.17-2.74,1.01-4.62-0.29
		c-1.88-1.3-15.75-16.61-20.51-19.07c-4.77-2.46-9.1,0.14-9.39,9.39c2.17,1.01,2.6,0.72,2.46,6.21c-0.14,5.49-5.2,6.36-5.35,9.82
		c-0.14,3.47,1.16,9.39-2.17,9.54c-3.32,0.14-8.81-6.93-10.83-9.53c-2.02-2.6-9.53-11.7-11.99-9.82c-2.46,1.88-1.73,3.76-1.59,7.51
		c0.15,3.76,2.89,5.78-4.48,7.37c-1.73,0.58-3.32,1.59-1.44,5.2c1.88,3.61,9.25,13.43,7.08,18.63c-2.17,5.2-5.92,10.26-7.51,9.97
		c-1.59-0.29-2.74-2.74-6.5-4.05c-3.76-1.3-7.94,0.29-9.1-1.3c-1.16-1.59-5.49-5.78-6.21-3.9c-0.72,1.88-0.43,6.64-0.43,7.51
		c0,0.87,0.58,2.46-3.61,2.31c-4.19-0.14-15.17-3.47-17.77-4.62c-2.6-1.15-2.02-0.58-5.35-0.43c-2.93,0.13-8.43-3.9-11.58-8.02
		c-1.57,2.82-8.08,5.79-11.87,7.75c-5.24,2.71-0.39,8.92,6.21,18.62c6.59,9.7,2.72,10.86-2.13,11.44c-2.54,0.3-3.96,0.62-5.32,1.5
		c3.65,2.07,13.13,7.56,16.02,10.45c3.61,3.61,13,6.07,16.32,3.18c3.32-2.89,3.03-4.77,7.51-1.3c3.03,1.44,4.91,0.58,7.94-2.46
		c3.03-3.03,6.93-7.08,12.28-4.33c5.34,2.75,9.53,6.64,5.49,12.42c-4.04,5.78-6.35,13.72-6.35,22.1c0,8.38-1.3,13.72,4.48,16.9
		c5.78,3.18,20.37,8.81,23.26,8.81c2.89,0,6.21,2.02,8.23-4.33c2.02-6.36,8.23-6.5,12.42-5.49c4.19,1.01,6.36,4.33,10.4,3.61
		c4.04-0.72,6.79-2.45,7.37-2.89c0.58-0.43,1.3,0,1.88,4.19c0.58,4.19,0,8.09,6.93,8.23c5.95,0.13,6.37,0.25,6.37,0.28
		c0.11-0.09,3.5-2.89,5.91-3.75c2.46-0.87,6.93,0.14,6.93-5.92c0-6.07-3.18-23.98,1.59-28.46c4.77-4.48,11.7-8.95,14.01-12.28
		c2.31-3.32,2.31-7.37,2.31-7.94c0-0.58,1.16-2.6,6.36-3.47c5.2-0.87,11.12-4.91,11.12-12.13c0-7.22,2.17-7.65,2.17-7.65
		S637.05,419.72,634.31,414.96z"/>
	<g class="st2">
		<path class="st5" d="M208.82,302.98c2.52,3.3,6.01,7.17,5.62,12.41c-0.39,5.23,0,1.16,3.68,5.62
			c3.69,4.46,10.47,12.41,12.41,14.93c1.94,2.52,5.62,8.15,5.62,8.15s6.98-6.79,7.37-3.49c0.39,3.3,0,5.82,0.97,7.37
			c0.97,1.55,11.83,8.15,11.83,5.04c0-3.1-0.78-3.1-2.13-6.2c-1.36-3.1-0.58-6.79,2.91-4.07c3.49,2.71,9.5,3.3,9.31,6.59
			c-0.19,3.29-1.55,4.65,0.58,8.92c2.13,4.27,8.34,7.17,11.63,11.83c3.3,4.65,7.56,8.54,9.11,4.85c1.55-3.69,3.3-9.5,7.56-6.01
			c4.27,3.49,9.5,10.67,14.35,11.05c4.85,0.39,8.34-1.94,10.28-4.46c1.94-2.52,1.36-3.88,1.36-6.59c0-2.72,5.82-1.94,11.83,2.52
			c6.01,4.46,20.17,16.09,21.33,5.24c1.16-10.86,1.55-11.44,7.37-12.22c5.82-0.78,9.7-0.39,11.25,5.62c1.55,6.01-0.58,4.85,3.49,9.5
			c4.07,4.65,8.14,9.5,8.34,12.6c0.19,3.1,1.94-6.79,5.62-7.56c3.68-0.78,7.76-0.78,12.41,2.91c4.65,3.68,11.05,6.98,11.25,10.28
			c0.19,3.3,1.16,4.85,3.3,4.85c2.13,0,2.72,3.88,1.16,6.4c-1.55,2.52-0.58,4.85,0,5.62c0.58,0.78,2.91,2.91,7.76,8.53
			c4.85,5.62,7.95,12.41,9.5,15.51c1.55,3.1,5.24,5.23,9.31,0.58c4.07-4.65,4.85-5.24,9.7-5.82c4.85-0.58,8.73-1.75,2.13-11.44
			c-6.59-9.69-11.44-15.9-6.21-18.62c5.24-2.71,15.71-7.37,11.05-10.86c-4.65-3.49-8.53-10.28-7.76-15.32
			c0.78-5.04,4.07-6.98-2.52-10.67c-6.59-3.68-7.37-10.08-9.69-13.19c-2.33-3.1,0.58-5.43-1.55-6.98c-2.13-1.55-6.79-4.46-9.5-6.79
			c-2.72-2.33-2.91-4.46-3.3-9.11c-0.39-4.65,1.16-7.56-7.95-7.56c-9.11,0-14.54,0.58-17.64-6.4c-3.1-6.98-0.78-5.82-0.78-11.83
			c0-6.01,0.58-14.74-7.56-14.74c-5.13,0-5.87-1.62-5.72-3.54c-2.28-1.89-4.89-6.22-7.76-14.4c-1.75-4.65-10.18-22.4-21.23-20.07
			c-5.24,13.96-10.47,27.34-24.14,33.16c-1.16,6.98,0.29,16.29-17.16,18.91c-1.75,8.15-12.22,17.45-21.23,2.04
			c-7.56-13.38-19.49-35.49-63.41-50.03c-2.33-0.29-11.64-1.45-14.54,19.2c-2.43,2.3-7.94,8.55-13.53,15.05
			c0.66,1.48,1.32,3.52,1.41,5.89C206.49,301.04,206.29,299.68,208.82,302.98z"/>
	</g>
	<g class="st2">
		<path class="st5" d="M344.41,554.2c11.12-5.49,4.19-4.19,4.48-13.72c0.29-9.53,10.4,0.14,16.03,2.46c5.63,2.31,2.89-1.3,1.3-7.08
			c-1.59-5.78,1.44-16.03,5.63-25.42c4.19-9.39-5.92-7.51-8.81-9.82c-2.89-2.31-0.43-7.66-1.59-10.25c-1.15-2.6-6.79-7.95,3.9-7.95
			c10.69,0,8.09-7.94,10.11-11.41c2.02-3.47,2.89-3.03,9.82-3.76c6.93-0.72,2.89-13,3.32-16.03c0.43-3.03,4.62-3.47,4.48-7.37
			c-0.14-3.9-2.46-11.55-3.03-17.33c-0.58-5.78-4.91-15.75-7.08-23.83c-2.17-8.09,0.88-10.34,0.88-10.34l1.03-0.15
			c-0.19-3.1-4.27-7.95-8.34-12.6c-4.07-4.65-1.94-3.49-3.49-9.5c-1.55-6.01-5.43-6.4-11.25-5.62c-5.82,0.78-6.2,1.36-7.37,12.22
			c-1.16,10.86-15.32-0.78-21.33-5.24c-6.01-4.46-11.83-5.24-11.83-2.52c0,2.71,0.58,4.07-1.36,6.59
			c-1.94,2.52-5.43,4.85-10.28,4.46c-4.85-0.39-10.08-7.56-14.35-11.05c-4.27-3.49-6.01,2.33-7.56,6.01
			c-1.55,3.69-5.82-0.19-9.11-4.85c-3.3-4.65-9.5-7.56-11.63-11.83c-2.13-4.27-0.78-5.62-0.58-8.92c0.19-3.3-5.82-3.88-9.31-6.59
			c-3.49-2.72-4.27,0.97-2.91,4.07c1.36,3.1,2.13,3.1,2.13,6.2c0,3.1-10.86-3.49-11.83-5.04c-0.97-1.55-0.58-4.07-0.97-7.37
			c-0.39-3.3-7.37,3.49-7.37,3.49s-3.68-5.63-5.62-8.15c-1.94-2.52-8.73-10.47-12.41-14.93c-3.68-4.46-4.07-0.39-3.68-5.62
			c0.39-5.24-3.1-9.11-5.62-12.41c-2.52-3.3-2.33-1.94-2.52-6.79c-0.09-2.36-0.76-4.41-1.41-5.89c-7.83,9.1-15.84,18.69-15.84,18.69
			l-16.87,4.94c0,0,9.02,20.65,53.23,64.87c0,6.11-0.87,6.11,7.56,12.51c8.44,6.4,12.8,19.49,15.42,34.32
			c-0.29,9.31,3.78,22.4,17.45,9.6c7.85-7.27,8.53-11.6,9.89-22.69c0.5-1.32,1.46-1.89,2.52-1.34c0.81,0.42,1.67,1.49,2.42,3.37
			c0,2.62-0.58,15.13,4.07,16.87c4.65,1.74,11.93,0.29,16.29-4.36c2.62,9.02,6.69,12.8-2.62,32c-5.82,6.98-15.42,17.45-15.42,17.45
			l4.36,4.36l6.11-6.69c0,0,5.53-0.58-0.58,9.02c-6.11,9.6-7.27,16.58-7.27,16.58l-12.8,4.95c0,0,8.44,11.34,10.18,4.07
			c3.49,2.04,7.85,7.56,9.02,18.03c1.16,10.47,5.53,9.89,11.93,16c6.4,6.11,9.02,13.09,10.47,18.91c1.45,5.82,1.45,6.98,21.23,10.47
			c0.16,0.24,0.35,0.52,0.54,0.82c-0.46-1.9-0.86-3.8-1.01-5.27C334.69,563.32,333.28,559.69,344.41,554.2z"/>
	</g>
	<g class="st2">
		<path class="st5" d="M855.78,334.32c-1.35,2.1-7.81-0.75-13.06-0.6c-5.26,0.15-4.05,1.65-5.56-3.9
			c-1.5-5.56-13.81-10.51-17.57-12.16c-2.42-1.07-5.96,3.18-8.18,6.32c-0.04-0.31-0.09-0.61-0.13-0.89
			c0.59,4.33,1.78,11.66,3.35,14.68c2.31,4.4,7.34,10.9,6.71,12.16c-0.63,1.26-3.56,4.19-4.4,6.92c-0.84,2.73-0.63,9.85-1.89,11.32
			c-1.26,1.47-9.01,9.85-11.53,10.9c-2.52,1.05-4.82,1.68-4.82,4.19c0,1.68-0.19,11.15-0.31,17.23c2.92,1.39,3.85,3.91,3.25,7.08
			c-0.84,4.4-2.1,14.88-2.1,14.88c0,6.71,4.19,8.17,9.01,12.78c4.82,4.61,9.64,7.13,9.64,12.37c0,5.24-0.42,5.87-5.03,9.01
			c-1.72,3.04-3.73,4.6-5.81,5.22l0,0l0.36,16.78c0,0,5.24,0,11.11,1.26c5.87,1.26,7.96,6.08,9.43,7.75
			c1.47,1.68,5.45,4.61,7.54,6.08c2.1,1.47,3.98,2.93,11.32-1.26c7.34-4.19,11.74-4.82,12.99-9.85c1.26-5.03,1.47-8.17,3.77-11.11
			c2.31-2.93,6.29-8.8,15.72-8.8c9.43,0,13.62,1.05,13.62,3.77c0,2.72,0,7.33,3.56,8.17c3.56,0.84,7.33-1.26,7.54-5.45
			c0.21-4.19,3.56-5.66,3.98-4.82c0.42,0.84,4.4,5.03,6.08,6.5c1.68,1.47,4.19,3.14,5.66,3.56c1.47,0.42,1.05,2.52-0.84,3.56
			c-1.89,1.05-2.3,2.93,0.21,4.19c2.51,1.26,5.45,4.82,5.66,7.55c0.21,2.72-0.42,3.56,4.82,4.4c5.24,0.84,7.34,1.26,8.17,6.71
			c0.84,5.45,2.52,6.5,4.19,7.13c-0.07,0.03-0.12,0.06-0.19,0.09c7.79-0.42,10.99-3.4,19.88-5.26c10.13-2.11,9.7,0.42,12.87,0.84
			c3.16,0.42,2.11-4.22,2.11-8.23c0-4.01-3.37-8.02-5.27-11.18c-1.9-3.16-4.22-3.16-5.06-5.91c-0.84-2.74,6.33-8.65,17.09-13.5
			c5.05-0.97,8.19-2.1,10.14-3.07c-0.57-0.31-0.94-0.94-1.23-2.74c-0.58-3.59-0.29-16.1-8.05-16.68c-4.17,0.29-8.14,2.33-9.11,2.33
			s-7.56-0.97-11.93-5.24c-4.36-4.27-10.47-9.11-12.8-9.89c-2.33-0.78-8.63-2.52-8.92-5.43c0.1-1.74,1.26-2.23,2.13-4.46
			c0.87-2.23,0.58-6.3-0.58-10.57c-1.16-2.13-3.49-6.4-10.28-1.45c-2.52,1.36-4.56,1.26-5.62-1.07c-1.07-2.33-3.88-6.69-7.85-6.79
			c-3.98-0.1-8.53-0.39-11.54-2.33c-3-1.94-4.85-4.36-11.15-2.04c-4.65,0.68-10.57-0.1-10.57-0.1s4.65-9.69,5.04-12.41
			c0.39-2.71-0.19-13.57-2.13-23.85c1.16-6.98,1.75-16.29-5.04-18.81c-6.79-2.52-12.8-5.04-12.41-13.77
			c0.03-0.79,0.06-1.57,0.08-2.35c-2.98,1.39-5.78,2.41-7.55,2.41C858.78,326.51,857.13,332.22,855.78,334.32z"/>
	</g>
	<g class="st2">
		<path class="st5" d="M790.32,567.34c5.46,0.78,9.89,4.16,20.04-1.3c0.6-0.03,1.22-0.02,1.84,0.02c0,0,0,0-0.01,0
			c1.32-0.76,2.59-1.32,2.59-1.32l4.29-0.78l1.75-2.16c0.32-1.33,0.97-3.42,2.28-6.42c1.6-3.69,1.82-9.95,1.76-14.21
			c-2.42-0.27-7.01-1.37-8.53-5.78c-3.14,1.05-7.96,3.98-7.96,2.93c0-1.05-0.21-7.54-0.21-7.54l-4.4-1.05c0,0-1.89-3.77-3.77-3.56
			c-1.89,0.21-2.73,2.51-4.19,2.51c-1.47,0-15.72,3.56-14.25-5.45c-0.21-5.87,0-6.08-3.35-5.45c-3.35,0.63-3.56,3.35-4.82,3.98
			c-1.26,0.63-3.35-0.42-4.82-0.42c-0.29,0-0.52-0.44-0.73-1.17c-2.33,1.78-5.26,4.47-3.77,5.79c2.34,2.08,1.3,6.77,1.3,9.37
			c0,2.6-1.56,9.63,0.78,10.93c2.34,1.3,8.07,3.38,10.67,4.68c2.6,1.3,3.38,7.03,2.6,8.59c-0.46,0.91-2.25,3.07-3.66,4.71l8.6,0.49
			C784.34,564.74,784.86,566.56,790.32,567.34z"/>
	</g>
	<g class="st2">
		<path class="st5" d="M811.65,608.97c-0.78-3.38-2.86-7.29-7.03-9.89c-4.16-2.6-3.9-8.85-3.9-12.23c0-3.38-1.04-7.29,1.82-8.59
			c2.86-1.3,5.98-8.59,7.03-10.15c0.47-0.7,1.56-1.45,2.62-2.07c-0.62-0.04-1.23-0.05-1.84-0.02c-10.15,5.47-14.57,2.08-20.04,1.3
			c-5.46-0.78-5.98-2.6-5.98-2.6l-9.11-0.52c0,0-1.82,2.6-4.42,3.9c-2.6,1.3-7.03,2.08-9.11,4.16c-2.08,2.08,0,6.24,2.86,6.24
			s-0.52,5.2-0.52,10.93c0,5.72,4.94,7.02,7.29,11.19c2.34,4.17,0.52,3.12,0.26,7.29c-0.26,4.16,3.12,4.68,6.76,7.03
			c3.64,2.34,0.26,8.33,2.86,5.98c2.6-2.34,11.19,0,13.53-0.52c2.86-2.86,6.76-1.3,8.85,0.26c2.08,1.56,3.9,1.82,5.98,0.78
			c1.21-0.6,4.01-4.29,6.13-7.27C813.45,613.51,812.25,611.55,811.65,608.97z"/>
	</g>
	<g class="st2">
		<path class="st5" d="M850.09,550.61c-2.33-1.75,3.29-17.07,5.23-20.17c0.93-1.48,1.81-2.65,2.48-3.47
			c-2.9-1.21-6.81-2.64-9.41-2.27c-2.93,0.42-3.14,3.56-5.24,5.03c-2.1,1.47-6.71,3.56-7.96,1.26c-1.26-2.31-6.5-3.98-8.17-3.56
			c-1.68,0.42-0.63,13.83-0.63,13.83s-0.61,0.01-1.53-0.09c0.07,4.26-0.15,10.52-1.76,14.21c-2.6,5.98-3.02,7.69-3.02,7.69
			l-5.3,1.67c0,0-4.16,1.82-5.2,3.38c-1.04,1.56-4.16,8.85-7.03,10.15c-2.86,1.3-1.82,5.2-1.82,8.59c0,3.38-0.26,9.63,3.9,12.23
			c4.16,2.6,6.24,6.5,7.03,9.89c0.78,3.38,2.6,5.72,6.5,5.46c3.9-0.26,2.34-1.56,7.81-1.04c5.46,0.52,13.79-1.3,14.05-2.34
			c0.26-1.04,4.94-3.12,8.07-2.34c3.12,0.78,2.34-2.6,2.6-3.64c0.26-1.04,0.52,0.26,3.38-0.52c2.86-0.78,2.86-2.6,2.6-5.98
			c-0.26-3.38,0.26-9.63,2.6-9.63c2.34,0,3.9-1.3,3.38-5.2c-0.52-3.9-0.78-6.77,0.78-7.81c1.56-1.04,9.63-1.3,8.85-3.38
			c-0.78-2.08-3.12-4.16-3.12-5.98c0-1.82,0.78-3.64,4.16-5.46c1.09-0.59,1.93-1.8,2.58-3.17c-4.43-0.65-9.59-1.82-12.44-2.86
			C859.78,553.71,852.41,552.35,850.09,550.61z"/>
	</g>
	<g class="st2">
		<path class="st5" d="M894.69,601.32c0,0-2.47-5.09-0.15-5.82c2.33-0.73,4.07,1.89,6.11,1.89c2.04,0,4.07-0.87,4.07-0.87
			l-7.71-8.43c0,0-3.34-1.75-2.18-5.53c1.16-3.78,4.8-5.38,2.76-12.8c0,0-15.13-8.29-19.34-10.47c0,0-1.37-0.58-2.46-1.14
			c-0.63,1.28-1.44,2.4-2.47,2.95c-3.38,1.82-4.16,3.64-4.16,5.46c0,1.82,2.34,3.9,3.12,5.98c0.78,2.08-7.29,2.34-8.85,3.38
			c-1.56,1.04-1.3,3.9-0.78,7.81c0.52,3.9-1.04,5.2-3.38,5.2c-2.34,0-2.86,6.24-2.6,9.63c0.26,3.38,0.26,5.2-2.6,5.98
			c-2.86,0.78-3.12-0.52-3.38,0.52c-0.26,1.04,0.52,4.42-2.6,3.64c-3.12-0.78-7.81,1.3-8.07,2.34c-0.05,0.19-0.38,0.41-0.92,0.64
			c2.41,1.59,5.28,3.65,5.86,4.82c1.04,2.08,5.21,6.51,5.21,8.59c0,2.08,0,3.9,4.94,3.9c4.94,0,8.33-1.3,12.23-3.12
			c2.76-1.29,6.04-1,9.66,1.47l5.04,0.14c0,0,4.07-4.8,4.07-7.13c0-2.33,4.51-2.18,4.51-2.18s2.04-5.09,2.33-6.69
			c0.29-1.6,2.47-0.15,2.47-0.15s6.69-3.05,5.82-4.65C900.36,605.1,894.69,601.32,894.69,601.32z"/>
	</g>
	<g class="st2">
		<path class="st5" d="M867.34,625.89c-3.9,1.82-7.29,3.12-12.23,3.12c-4.94,0-4.94-1.82-4.94-3.9c0-2.08-4.16-6.5-5.21-8.59
			c-0.58-1.17-3.45-3.23-5.86-4.82c-2.35,1-8.69,2.12-13.13,1.7c-5.46-0.52-3.9,0.78-7.81,1.04c-0.93,0.06-1.74-0.03-2.45-0.25
			c-2.13,2.98-4.92,6.67-6.13,7.27c-2.08,1.04-3.9,0.78-5.98-0.78c-2.08-1.56-5.98-3.12-8.85-0.26c-0.96,0.21-10.59-1.51-13.35,0.09
			c1.02,9.74,10.76,5.81,11.79,6.15c4.21,1.38,5.22,1.7,5.22,6.65c0,0.45,0.38,3.35,1.07,5.58c1.41,4.56,2.96,5.72,4.95,9.02
			c1.94,2.42,3.34,4.41,5.09,6.45c1.97,2.3,0.72,7.1,3.59,8.14c2.86,1.04,7.33,0.73,6.45,4.27c-0.87,3.49-2.14,4.17-3.83,5.82
			c-2.13,2.09-1.72,3.53-0.67,4.57c1.04,1.04,3.64,2.86,6.5-0.78c2.86-3.64,5.2-5.2,7.55-5.2c2.34,0,6.77,1.56,8.07,3.12
			c1.3,1.56,6.5,8.07,10.41,7.54c3.49-0.46,8.42-2.99,11.48-1.49c0.01-0.31,0.94,0.64,1.02,0.71c1.48,1.48,3.37,2.47,4.86,3.09
			c0.85-0.87,1.7-2.22,1.7-4.14c0-3.78,0.73-10.76,2.04-11.78c1.31-1.02,3.05-3.2,1.89-7.27c-1.16-4.07-0.73-6.4,1.02-8
			c1.74-1.6,3.34-4.37,3.05-5.24c-0.29-0.87-5.67-4.36-3.93-7.56c1.74-3.2,5.96-6.11,5.96-8.87c0-2.76,0-3.93,0-3.93l1.71,0.05
			l-1.36-0.04C873.38,624.88,870.1,624.6,867.34,625.89z"/>
	</g>
	<g class="st2">
		<path class="st5" d="M938.09,500.81c-0.84-5.45-2.93-5.87-8.17-6.71c-5.24-0.84-4.61-1.68-4.82-4.4
			c-0.21-2.72-3.15-6.29-5.66-7.55c-2.51-1.26-2.1-3.14-0.21-4.19c1.89-1.05,2.31-3.15,0.84-3.56c-1.47-0.42-3.98-2.1-5.66-3.56
			c-1.68-1.47-5.66-5.66-6.08-6.5c-0.42-0.84-3.77,0.63-3.98,4.82c-0.21,4.19-3.98,6.29-7.54,5.45c-3.56-0.84-3.56-5.45-3.56-8.17
			c0-2.72-4.19-3.77-13.62-3.77c-9.43,0-13.41,5.87-15.72,8.8c-2.31,2.93-2.51,6.08-3.77,11.11c-1.26,5.03-5.66,5.66-12.99,9.85
			c-7.33,4.19-9.22,2.73-11.32,1.26c-2.1-1.47-6.08-4.4-7.54-6.08c-1.47-1.68-3.56-6.5-9.43-7.75c-5.87-1.26-11.11-1.26-11.11-1.26
			l-0.36-16.78c-3.51,1.04-7.23-0.58-10.12-2.29c-4.61-2.72-6.92,0-6.92,0s-0.84,9.64-1.89,15.72c-1.05,6.08-2.51,9.85-4.19,13.41
			c-1.68,3.56-3.98,5.66-5.66,3.77c-1.68-1.89-2.52-2.72-8.17-4.4c-0.63,6.08-1.05,5.24-6.29,9.85c-1.5,1.32-3.67,2.39-5.98,3.23
			c1.1,1.74,2.4,3.42,3.89,4.73c5.24,4.61,5.03,15.51,6.5,15.51s3.56,1.05,4.82,0.42c1.26-0.63,1.47-3.35,4.82-3.98
			c3.35-0.63,3.14-0.42,3.35,5.45c-1.47,9.01,12.78,5.45,14.25,5.45c1.47,0,2.31-2.31,4.19-2.51c1.89-0.21,3.77,3.56,3.77,3.56
			l4.4,1.05c0,0,0.21,6.5,0.21,7.54c0,1.05,4.82-1.89,7.96-2.93c2.09,6.08,10.06,5.87,10.06,5.87s-1.05-13.41,0.63-13.83
			c1.68-0.42,6.92,1.26,8.17,3.56c1.26,2.3,5.87,0.21,7.96-1.26c2.1-1.47,2.31-4.61,5.24-5.03c2.93-0.42,7.54,1.47,10.48,2.72
			c11.32,7.96,27.87,8.8,34.37,8.8c6.5,0,9.64,0.42,12.78,0c0-3.14,3.77-4.4,6.29-3.35c2.52,1.05,7.76,2.51,11.74,2.1
			c3.98-0.42,6.5-12.16,6.92-15.09c0.42-2.93,0.42-6.71,1.89-7.75c1.47-1.05,4.4-1.68,9.43-4.19
			C940.6,507.31,938.92,506.26,938.09,500.81z"/>
	</g>
	<g class="st7">
		<path class="st5" d="M1087.24,477.6c-0.97-1.94-2.42-8.15-3.97-8.15c-1.55,0-3.39-3.3-4.65-6.5c-1.26-3.2-5.14-8.92-9.31-8.72
			c-4.17,0.19-17.36,5.43-20.46,6.59c-3.1,1.16-11.54,2.81-15.12,2.81c-3.59,0-14.45,0-14.45,0s-5.62-1.75-5.62-3.68
			c0-1.94-0.39-9.11-6.11-5.43c-5.72,3.68-9.02,9.11-11.25,8.05c-1.11-0.53-1.88-0.53-2.45-0.85c-1.96,0.98-5.09,2.1-10.14,3.07
			c-10.76,4.85-17.93,10.76-17.09,13.5c0.84,2.74,3.16,2.74,5.06,5.91c1.9,3.16,5.27,7.17,5.27,11.18c0,4.01,1.06,8.65-2.11,8.23
			c-3.16-0.42-2.74-2.95-12.87-0.84c-8.89,1.85-12.09,4.84-19.88,5.26c-4.91,2.44-7.8,3.07-9.24,4.1c-1.47,1.05-1.47,4.82-1.89,7.75
			c-0.42,2.93-2.93,14.67-6.92,15.09c-3.98,0.42-9.22-1.05-11.74-2.1c-2.51-1.05-6.29,0.21-6.29,3.35c-3.14,0.42-6.29,0-12.78,0
			c-6.5,0-23.05-0.84-34.37-8.8c-0.33-0.14-0.7-0.3-1.07-0.45c-0.67,0.82-1.55,1.98-2.48,3.47c-1.94,3.1-7.56,18.42-5.23,20.17
			c2.33,1.75,9.7,3.1,13.38,4.46c3.69,1.36,11.51,3.7,16.35,4.08c1.34,0.11,2.46-0.23,3.78,0.37c3.48,0.39,8.26,1.35,13.12,3.69
			c1.53,0.74,4.94,3.93,5.67,0.87c0.73-3.05,3.64-1.6,3.64-1.6s8.14,3.2,10.18,4.66c2.04,1.45,10.04,6.25,15.71,6.84
			c5.67,0.58,12.22,0.58,11.34-0.87c-0.87-1.45-12.22-3.2-9.74-6.84c2.62-0.14,5.38-2.62,4.8-5.67c1.31-0.87,3.05,1.16,3.05,2.47
			c0,1.31,2.76,1.75,3.2-2.47c1.45-1.46,3.34,0.73,3.2,2.47c-0.14,1.75,3.49-1.31,5.53-2.91c2.04-1.6,7.72-4.79,4.07,0.73
			c-1.79,2.72-2.96,4.41-2.96,4.85c0,4.66,4.85,7.95,6.4,7.18c6.18-3.09,8.77-5.91,12.7-5.77c3.93,0.15,10.33-2.47,11.34-3.93
			c1.02-1.45,11.34-13.82,11.78-19.78c0.44-5.96,0.73-8-2.33-8c-0.44-11.49,1.31-20.51,1.31-20.51s4.36-6.4,9.45,1.02
			c4.65-3.64,8-4.94,8.87-1.45c0.87,3.49,3.49,3.49,5.96-0.73c2.47-4.22,3.78-5.67,3.78-4.8c0,0.87,2.18,7.13,2.18,7.13
			s6.4,0.58,9.02-2.47c2.62-3.05,9.31-10.18,10.62-12.94c1.89-1.31,9.74-1.45,9.74-1.45s5.96-6.84,8.87-9.31
			c-0.15-3.34-0.44-8.43,3.64-9.45c4.07-1.02,4.51,1.6,4.51,1.6s4.94-2.33,5.96-3.49c1.02-1.16,1.6,4.8,2.47,6.4
			c0.87,1.6,4.22,2.04,7.71-1.16l3.01-2.04C1091.41,481.77,1088.21,479.54,1087.24,477.6z"/>
	</g>
	<g class="st2">
		<path class="st5" d="M701.68,285.76c-4.13,2.75-6.51,6.01-10.89,3.13c-4.38-2.88-5.63-4.88-11.14-2c0,0-3.63,1.38-5.89-0.38
			c-2.25-1.75-3.01-2.5-6.89-2.63c-3.88-0.12-6.76-2.13-9.52-3.76c-2.75-1.63-8.77-5.76-10.52-3.38c-1.75,2.38-2,5.76-2,9.77
			c0,4.01-3,20.04-4.26,25.8c-1.25,5.76-4.51,16.4-6.76,18.53c-2.25,2.13-1,3.38-2.38,6.64c-1.38,3.26-1.75,6.51-6.01,6.14
			c-4.26-0.38-6.76-4.38-10.02-3.63c-3.26,0.75-5.07,7.13-5.26,11.65c-0.34,8.3-9.64,8.02-9.64,8.02
			c-2.17,14.3,2.31,18.49,7.37,21.81c13.72,7.51,12.85,10.54,13.43,17.62c5.63,1.16,10.26,11.12,13,15.89
			c2.74,4.77,6.21,7.8,6.21,7.8s-2.17,0.43-2.17,7.65c0,4.04-1.86,7.09-4.4,9.14c0,0,0,0,0,0l1.72,1.11c0,0,10.27,0.84,11.74,2.52
			c1.47,1.68,9.01,5.66,7.54,6.08c-1.47,0.42-5.87,3.14-6.08,4.4c-0.21,1.26,3.56,4.82,3.56,4.82l6.08,0.84l1.47,7.33l3.35,3.98
			l2.72,5.45l2.24,1.19c0,0,0,0,0,0c0.82-3.72,5.25-8.66,6.77-9.99c1.68-1.47,10.06,4.4,14.04,6.5c3.98,2.1,8.59-2.73,13.2-5.87
			c2.28-1.56,3.94-3.31,5.04-4.7c-3.93-3.79-9.06-8.66-11.33-12.49c-3.35-5.66,3.35-8.38,6.08-11.11c2.72-2.72,1.68-7.13,0.63-11.11
			c-1.05-3.98-0.21-7.54,0.63-12.99c0.84-5.45,4.61-2.93,5.66-7.55c0.18-2.36,0.88-4.66,1.85-6.82c0,0.01-0.01,0.02-0.02,0.03
			c-3.32-2.88-8.75-7.87-10.22-12.07c-1.68-4.82-1.89-9.01-1.89-14.88c0-5.87-0.21-6.71-1.89-8.59c-1.68-1.89-3.77-3.35-5.24-6.71
			c-1.47-3.35,1.47-9.22,5.66-12.37c4.19-3.14,3.35-2.1,4.19-8.59c0.84-6.5,8.17-12.78,11.11-16.35c7.13-5.45,3.56-19.49,3.56-22.63
			c0-3.14-2.09-5.24-4.19-9.43c-0.65-1.31-1.84-2.72-3.16-4.04c0.1-0.09,0.22-0.2,0.33-0.3c-0.06,0.05-0.13,0.11-0.18,0.17
			c-2.04-1.13-3.87-2.1-5.44-2.88C703.49,283.74,703.04,284.85,701.68,285.76z"/>
	</g>
	<g class="st2">
		<path class="st5" d="M393.61,289.99c8.14,0,7.56,8.73,7.56,14.74c0,6.01-2.33,4.85,0.78,11.83c3.1,6.98,8.53,6.4,17.64,6.4
			c9.11,0,7.56,2.91,7.95,7.56c0.39,4.65,0.58,6.79,3.3,9.11c2.71,2.33,7.37,5.23,9.5,6.79c2.13,1.55-0.78,3.88,1.55,6.98
			c2.33,3.1,3.1,9.5,9.69,13.19c6.59,3.69,3.3,5.62,2.52,10.67c-0.78,5.04,3.1,11.83,7.76,15.32c1.29,0.97,1.42,2.02,0.81,3.1
			c3.14,4.12,8.65,8.15,11.58,8.02c3.32-0.14,2.74-0.72,5.35,0.43c2.6,1.16,13.58,4.48,17.77,4.62c4.19,0.14,3.61-1.44,3.61-2.31
			c0-0.87-0.29-5.63,0.43-7.51c0.72-1.88,5.06,2.31,6.21,3.9c1.16,1.59,5.34,0,9.1,1.3c3.76,1.3,4.91,3.76,6.5,4.05
			c1.59,0.29,5.34-4.77,7.51-9.97c2.17-5.2-5.2-15.02-7.08-18.63c-1.88-3.61-0.29-4.62,1.44-5.2c7.37-1.59,4.62-3.61,4.48-7.37
			c-0.14-3.75-0.87-5.63,1.59-7.51c2.46-1.88,9.97,7.22,11.99,9.82c2.02,2.6,7.51,9.68,10.83,9.53c3.32-0.14,2.02-6.07,2.17-9.54
			c0.14-3.47,5.2-4.33,5.35-9.82c0.14-5.49-0.29-5.2-2.46-6.21c0,0-3.63-1.41-4.88-4.29c-1.25-2.88,2.38-5.38,3.13-9.89
			c0.75-4.51-1.38-7.64-5.63-10.89c-4.26-3.26-10.89-9.02-10.89-9.02s0.38-9.51-0.5-11.27c-0.88-1.75-4.63-3.26-6.26-7.14
			c-1.63-3.88,6.51-9.26,6.51-9.26s-1.88-1.38-3.01-3.51c-7.76-1.88-7.76-4.51-8.64-7.89c-9.27-2.25-7.89-5.26-7.89-5.26l4.65-1.34
			c-1.94-1.84-3.95-4.32-5.01-4.67c-1.75-0.58-8.14-2.33-8.14-2.33v-17.74c0,0-30.83-1.45-45.09,36.65
			c-2.04,4.94-4.65,18.91-4.94,21.82c-10.47-10.47-46.83-48.58-52.36-50.03c-2.33,0-9.02,2.04-12.51,19.49
			c-0.82,5.1-4.35,14.18-9.7,9.74C387.74,288.37,388.48,289.99,393.61,289.99z"/>
	</g>
	<g class="st2">
		<path class="st5" d="M727.47,485.3c-2.93-3.14-12.99-14.25-15.72-17.6c-0.88-1.09-2.5-2.67-4.39-4.49
			c-1.1,1.38-2.76,3.14-5.04,4.7c-4.61,3.14-9.22,7.96-13.2,5.87c-3.98-2.1-12.36-7.96-14.04-6.5c-1.68,1.47-6.92,7.34-6.92,11.11
			c1.89,1.26,2.93,1.68,3.98,5.87c1.05,4.19,1.89,9.43,6.71,8.38c4.82-1.05,5.66-2.51,5.87,3.98c0.21,6.5,3.98,17.82,4.4,22.43
			c0.42,4.61-0.42,10.9,7.75,11.53c8.17,0.63,17.81-1.26,21.38,1.89c3.56,3.14,13.2,9.43,14.25,9.85c1.05,0.42,3.98-2.51,6.29-5.03
			c2.3-2.51,6.92-5.87,5.45-8.17c-1.47-2.3-6.08-3.98-5.24-10.48c0.84-6.5,0.84-8.8,1.05-10.48c0.16-1.24,1-6.29,1.43-8.82
			C738.05,495.95,729.77,487.77,727.47,485.3z"/>
	</g>
	<g class="st2">
		<path class="st5" d="M721.18,387.64c0,0-11.32,9.64-12.15,20.33c-1.05,4.61-4.82,2.1-5.66,7.55c-0.84,5.45-1.68,9.01-0.63,12.99
			c1.05,3.98,2.1,8.38-0.63,11.11c-2.72,2.72-9.43,5.45-6.08,11.11c3.35,5.66,12.99,13.62,15.72,16.98
			c2.72,3.35,12.78,14.46,15.72,17.6c2.93,3.14,15.51,15.51,15.51,15.51l2.73,3.14c0,0,13.2-1.47,18.44-6.08
			c5.24-4.61,5.66-3.77,6.29-9.85c5.66,1.68,6.5,2.51,8.17,4.4c1.68,1.89,3.98-0.21,5.66-3.77c1.68-3.56,3.14-7.33,4.19-13.41
			c1.05-6.08,1.89-15.72,1.89-15.72s2.31-2.72,6.92,0c4.61,2.72,11.32,5.24,15.93-2.93c4.61-3.15,5.03-3.77,5.03-9.01
			c0-5.24-4.82-7.76-9.64-12.37c-4.82-4.61-9.01-6.08-9.01-12.78c0,0,1.26-10.48,2.1-14.88c0.84-4.4-1.26-7.54-7.55-8.17
			c-6.29-0.63-19.28,5.45-23.05,8.8c-3.77,3.35-8.59,10.06-14.88,8.8c-6.29-1.26-7.75,6.71-9.01,6.5c-2.3-1.47-5.03-5.24-3.98-13.62
			C744.23,401.47,745.49,380.1,721.18,387.64z"/>
	</g>
	<g class="st2">
		<path class="st5" d="M799.56,308c0.63-6.71-3.77-9.01-8.8-9.22c-5.03-0.21-5.45,0.63-9.22,3.35c-3.77,2.72-2.93,4.19-10.9,5.24
			c-7.96,1.05-16.77-2.31-20.96-5.45c-4.19-3.14-8.59-13.41-9.01-17.4c-0.42-3.98,0.21-3.14,3.14-4.82
			c2.93-1.68,2.31-4.82,2.31-7.13c0-2.3-3.77-2.3-6.29-2.73c-2.52-0.42-9.22,2.94-12.78,5.03c-3.56,2.1-7.12,2.31-9.85,3.77
			c-1.86,1-5.98,4.65-8.4,6.86c1.32,1.32,2.5,2.73,3.16,4.04c2.1,4.19,4.19,6.29,4.19,9.43c0,3.15,3.56,17.19-3.56,22.63
			c-2.93,3.56-10.27,9.85-11.11,16.35c-0.84,6.5,0,5.45-4.19,8.59c-4.19,3.14-7.12,9.01-5.66,12.37c1.47,3.35,3.56,4.82,5.24,6.71
			c1.68,1.89,1.89,2.72,1.89,8.59c0,5.87,0.21,10.06,1.89,14.88c1.46,4.2,6.9,9.2,10.22,12.07c3.42-7.66,10.32-13.54,10.32-13.54
			c24.31-7.54,23.05,13.83,22,22.21c-1.05,8.38,1.68,12.15,3.98,13.62c1.26,0.21,2.73-7.75,9.01-6.5c6.29,1.26,11.11-5.45,14.88-8.8
			c3.77-3.35,16.77-9.43,23.05-8.8c1.75,0.17,3.17,0.55,4.3,1.09c0.12-6.08,0.31-15.55,0.31-17.23c0-2.52,2.31-3.14,4.82-4.19
			c2.52-1.05,10.27-9.43,11.53-10.9c1.26-1.47,1.05-8.59,1.89-11.32c0.84-2.72,3.77-5.66,4.4-6.92c0.63-1.26-4.4-7.75-6.71-12.16
			c-1.58-3.01-2.76-10.35-3.35-14.68c-0.93-0.19-2.7-0.56-6.07-1.25C798.09,320.37,798.93,314.71,799.56,308z"/>
	</g>
	<g class="st2">
		<path class="st5" d="M884.99,297.55c2.52-0.39,12.02-9.31,14.93-19.58c2.91-10.28,4.27-8.53,5.04-9.5
			c0.78-0.97,4.27-5.24,4.27-5.24l-6.21-6.59c0,0-13.57-9.11-20.36-9.11c-4.65-5.43-7.95-10.08-15.9-10.28
			c-6.79,3.49-10.67,6.79-13.77,7.95c-3.1,1.16-7.17,3.68-14.35,2.71c-7.17-0.97-12.22-4.07-15.51-11.25
			c-3.1-4.85-10.67-10.67-18.03-10.67c-7.37,0-17.65-3.3-23.46,4.27c-5.24,5.04-9.89,6.79-14.74,6.79
			c-4.85,0-15.32-7.37-17.65-10.28c-2.33-2.91-13.38-17.84-24.82-14.35c-1.07-0.82-3.68-4.47-7-9.05c-3.18,2.02-7.48,4.91-9.61,7.12
			c-3.63,3.76-5.64,9.89-5.64,11.52c0,1.63-7.26,0.5-10.77,0.63c-3.51,0.12-7.01,1.5-14.27,8.01c-7.26,6.51-14.7,13.36-9.19,17.62
			c5.51,4.26,11.53,7.33,14.95,10.93c3.23,3.39,9.89-0.38,13.9,3.63c4.01,4.01,4.88,6.76,4.88,11.14c0,2.95,1.86,6,1.83,8.53
			c1.56,0.78,3.4,1.75,5.44,2.88c2.43-2.22,6.42-5.74,8.25-6.73c2.72-1.47,6.29-1.68,9.85-3.77c3.56-2.1,10.27-5.45,12.78-5.03
			c2.51,0.42,6.29,0.42,6.29,2.73c0,2.31,0.63,5.45-2.31,7.13c-2.93,1.68-3.56,0.84-3.14,4.82c0.42,3.98,4.82,14.25,9.01,17.4
			c4.19,3.14,12.99,6.5,20.96,5.45c7.96-1.05,7.13-2.52,10.9-5.24c3.77-2.72,4.19-3.56,9.22-3.35c5.03,0.21,9.43,2.51,8.8,9.22
			c-0.63,6.71-1.47,12.36,5.66,13.83c3.37,0.7,5.14,1.06,6.07,1.25c0.04,0.28,0.08,0.58,0.13,0.89c2.21-3.15,5.76-7.39,8.18-6.32
			c3.75,1.65,16.07,6.61,17.57,12.16c1.5,5.56,0.3,4.05,5.56,3.9c5.26-0.15,11.71,2.7,13.06,0.6c1.35-2.1,3-7.81,8.56-7.81
			c1.77,0,4.56-1.02,7.55-2.41c0.22-7.88-0.08-15.31,1.86-19.37C875.88,300.27,882.47,297.94,884.99,297.55z"/>
	</g>
	<g class="st2">
		<path class="st5" d="M775.23,564.22l8.67,0.49h0l-8.17-0.47c1.41-1.64,3.2-3.8,3.66-4.71c0.78-1.56,0-7.29-2.6-8.59
			c-2.6-1.3-8.33-3.38-10.67-4.68c-2.34-1.3-0.78-8.33-0.78-10.93c0-2.6,1.04-7.29-1.3-9.37c-1.49-1.32,1.44-4.01,3.77-5.79
			c-0.87-2.93-1.57-10.65-5.76-14.34c-1.49-1.31-2.78-2.99-3.89-4.73c-5.75,2.1-12.46,2.84-12.46,2.84l-2.73-3.14
			c0,0-0.57-0.56-1.5-1.48c-0.43,2.52-1.27,7.57-1.43,8.82c-0.21,1.68-0.21,3.98-1.05,10.48c-0.84,6.5,3.77,8.17,5.24,10.48
			c1.47,2.31-3.14,5.66-5.45,8.17c-2.31,2.52-5.24,5.45-6.29,5.03c0.41,3.52,3.08,2.87,10.07,2.58c6.98-0.29,10.76,0.87,10.76,0.87
			c6.98,5.24,9.31,13.96,9.6,17.45c0.16,1.93,0.32,5.28,0.43,7.89c2.27-1.26,5.41-1.96,7.45-2.98
			C773.41,566.82,775.23,564.22,775.23,564.22z"/>
	</g>
	<g class="st2">
		<path class="st5" d="M753.32,551.29c-4.65-5.24-14.83-4.36-19.78-3.78c2.62,4.07,1.16,10.47-1.45,14.25
			c7.85,3.78,9.89,5.24,9.89,5.24c3.78,3.49,3.49,9.6,3.49,9.6s6.69-0.87,10.76,0.29C756.23,576.88,761.18,562.92,753.32,551.29z"/>
	</g>
	<g class="st2">
		<path class="st5" d="M670.67,525.54c-1.05,1.26-5.66,3.98-4.82,6.92c0.84,2.93,1.26,3.98,2.52,17.18
			c0.34,3.58,0.9,7.09,1.53,10.32c2.46-0.56,11.18-2.31,17.96-0.88c7.96,1.68,5.87,5.45,7.75,5.66c1.89,0.21,4.4,2.1,5.45,3.98
			c1.05,1.89,0.84,4.61,2.1,7.96c1.26,3.35,1.68,5.03,2.3,4.4c0.63-0.63,6.5-3.14,6.5,0.21c0,3.35,0.42,2.93,5.66,10.27
			c5.24,7.33,6.91,11.95,8.59,25.57c1.68,13.62,2.72,14.04,2.93,16.14c0.21,2.1,1.89,1.05,5.87,0.42c1.49-0.24,2.54,0.44,3.27,1.46
			l0,0c1.68-2.11,3.8-4.73,4.68-5.61c1.56-1.56,4.16-3.12,4.16-7.02s0.26-7.81,0.26-7.81s3.9,0.26,5.73,1.82
			c1.82,1.56,4.94,4.43,5.99,1.82c1.04-2.6,4.16-5.73,5.98-3.12c1.82,2.6,4.42,5.47,6.5,3.12c1.11-1.25,2.29-2.26,3.43-1.68
			c-0.96-1.17-2.72-2.63-5.7-3.12c-2.04-4.07-2.04-5.23-2.04-7.85c0-2.62,0-4.36-3.49-8.15c0,0-5.24-3.2-3.2-10.76
			c0.49-3.45,2.24-3.77-4.16-10.53c-0.12,0.41-0.2,0.64-0.2,0.64c-4.07-1.16-10.76-0.29-10.76-0.29s0.29-6.11-3.49-9.6
			c0,0-2.04-1.46-9.89-5.24c1.91-2.75,3.19-6.89,2.74-10.51c-7.05-7.55-12.63-12.76-12.63-12.76s-3.78-3.2-16-4.36
			c-4.65,0.87-19.2,2.04-19.2-7.85c-2.04-5.82-3.2-17.74-12.51-13.96c-0.8,0.8-2.06,2.3-3.47,4.06c0.21,0.18,0.43,0.36,0.69,0.57
			C675.08,519.67,671.72,524.28,670.67,525.54z"/>
	</g>
	<g class="st2">
		<path class="st5" d="M583.46,619.91c3.76-1.99,6.92-3.71,9.74-5.08c-0.1-1.65-0.46-8.22-0.27-12.59
			c0.21-5.03,11.11-1.47,18.44,0.42c2.09-2.3,7.34-4.4,7.34-4.4s0.63-4.61-0.21-11.53c-3.98-3.56-8.17-11.31-9.85-14.25
			c-1.68-2.93-8.59-13.83-10.48-16.35c-1.89-2.52-1.26-4.61-1.26-8.8c0-4.19,4.4-7.13,4.4-7.13c0.14,0.01,0.26,0.03,0.39,0.05
			c-0.96-2.54-2.93-3.77-5.21-6.76c-2.72-3.56-3.14-7.76-3.14-11.95c0-4.19,0-5.87-1.47-9.43c-0.54-1.32-1.49-4.45-2.48-7.86
			c-0.78-0.05-2.37-0.12-5.65-0.19c-6.93-0.14-6.35-4.04-6.93-8.23c-0.58-4.19-1.3-4.62-1.88-4.19c-0.58,0.43-3.32,2.17-7.37,2.89
			c-4.05,0.72-6.21-2.6-10.4-3.61c-4.19-1.01-10.4-0.87-12.42,5.49c-2.02,6.36-5.34,4.33-8.23,4.33c-2.89,0-17.48-5.63-23.26-8.81
			c-5.78-3.18-4.48-8.52-4.48-16.9c0-8.38,2.31-16.32,6.35-22.1c4.04-5.78-0.14-9.68-5.49-12.42c-5.34-2.74-9.24,1.3-12.28,4.33
			c-3.03,3.03-4.91,3.9-7.94,2.46c-4.48-3.47-4.19-1.59-7.51,1.3c-3.32,2.89-12.71,0.43-16.32-3.18
			c-2.89-2.89-12.37-8.38-16.02-10.45c1.02-0.66,2.07-1,3.6-1.26c-3.39,0.57-4.44,1.54-7.98,5.58c-4.07,4.65-7.76,2.52-9.31-0.58
			c-1.55-3.1-4.65-9.89-9.5-15.51c-4.85-5.62-7.17-7.76-7.76-8.53c-0.58-0.77-1.55-3.1,0-5.62c1.55-2.52,0.97-6.4-1.16-6.4
			c-2.13,0-3.1-1.55-3.3-4.85c-0.2-3.29-6.59-6.59-11.25-10.28c-4.65-3.68-8.73-3.68-12.41-2.91c-3.68,0.78-5.43,10.67-5.62,7.56
			l-1.03,0.15c0,0-3.05,2.25-0.88,10.34c2.17,8.09,6.5,18.06,7.08,23.83c0.58,5.78,2.89,13.43,3.03,17.33
			c0.14,3.9-4.05,4.33-4.48,7.37c-0.43,3.03,3.61,15.31-3.32,16.03c-6.93,0.72-7.8,0.29-9.82,3.76
			c-2.02,3.47,0.58,11.41-10.11,11.41c-10.69,0-5.06,5.34-3.9,7.95c1.16,2.6-1.3,7.94,1.59,10.25c2.89,2.31,13,0.43,8.81,9.82
			c-4.19,9.39-7.22,19.64-5.63,25.42c1.59,5.78,4.33,9.39-1.3,7.08c-5.63-2.31-15.74-11.99-16.03-2.46
			c-0.29,9.54,6.65,8.23-4.48,13.72c-11.12,5.49-9.72,9.13-9.24,13.58c0.15,1.46,0.55,3.37,1.01,5.27c-0.2-0.3-0.38-0.58-0.54-0.82
			c3.49,5.23,15.42,24.14,37.23,15.71c5.24,2.91,18.32,12.51,22.69,13.09c4.36,0.58,8.73,1.17,11.63,4.66
			c2.91,3.49,6.69,5.24,6.69,5.24s5.82-6.4,9.89-17.74c4.07-7.85,15.71-17.74,21.23-18.91c5.53-1.16,25.01-0.87,25.01-0.87
			s10.47-10.47,17.16-8.14c6.69,2.33,48.28,31.12,48.28,31.12s22.98,18.03,23.56,19.49c0,0,0.35,0.81,0.35,1.99
			c2.19,1.8,5.37,4.31,6.6,4.81C567.94,623.45,573.05,626.39,583.46,619.91z"/>
	</g>
	<path class="st6" d="M868.31,695.85c0,0-4.65-0.39-8.34,4.07c-1.94,1.74-3.68,3.3-5.43,1.74c-1.75-1.55-5.82-1.36-6.01,0.39
		c-0.19,1.75,1.36,3.3,4.85,3.69c3.49,0.39,8.73-1.16,11.44-3.69C867.54,699.53,873.74,695.46,868.31,695.85z"/>
	<path class="st6" d="M872,700.5c-1.85-1.07-6.01,3.68-3.3,3.49C871.42,703.8,875.68,702.64,872,700.5z"/>
	<path class="st6" d="M864.44,689.26c0,0-3.69,1.36-3.49,2.72c0.19,1.36,0.58,3.29,2.52,2.71
		C865.41,694.1,868.7,690.61,864.44,689.26z"/>
	<path class="st6" d="M873.55,682.66c0,0-4.27,2.52-3.88,4.65c0.39,2.13,2.91,3.3,4.85,0.2
		C876.46,684.41,878.98,682.08,873.55,682.66z"/>
	<path class="st6" d="M877.81,658.04c0,0-3.68,0.58-2.71,2.71c0.97,2.13,1.36,2.71,2.71,2.33
		C879.17,662.69,882.86,657.45,877.81,658.04z"/>
	<path class="st6" d="M911.17,569.61c0,0-7.17,5.04-9.11,5.24c-1.94,0.19-2.52,2.91-2.52,6.21c0,3.3,2.52,5.24,5.62,7.56
		c3.1,2.33,8.53,7.76,9.31,8.34c0.78,0.58,3.1-2.52,0-6.4c-3.1-3.88-5.43-5.82-2.52-6.98c2.91-1.16,6.79-6.01,4.85-8.92
		C914.85,571.74,913.88,568.84,911.17,569.61z"/>
	<path class="st6" d="M920.67,575.82c0,0-4.27,1.75-1.94,4.85c2.33,3.1,4.85,2.91,4.85,0.19C923.58,578.14,923,575.62,920.67,575.82
		z"/>
	<path class="st6" d="M928.82,588.81c0,0-7.56,2.52-7.76,5.04c-0.19,2.52-3.88,5.43,0.77,6.01c4.66,0.58,6.59-0.78,6.59,2.91
		c0,3.68,1.75,5.43,5.04,6.21c3.3,0.78,3.1,0.97,3.88,3.29c0.78,2.33,6.98,6.4,6.98-0.39c0-6.79-0.39-3.3-1.75-4.85
		c-1.36-1.55,1.55-2.71,3.29-3.1c1.75-0.39,7.01-3.81,2.13-4.65c-4.46-0.78-5.43-3.69-5.43-4.46c0-0.78-3.88-1.55-6.01-1.36
		C934.44,593.66,934.24,588.42,928.82,588.81z"/>
	<path class="st6" d="M997.27,523.27c0,0-2.13,10.47-0.19,10.28c1.94-0.19,5.04-4.65,6.01-7.37
		C1004.05,523.46,1001.53,520.75,997.27,523.27z"/>
	<path class="st6" d="M1008.32,519.78c0,0-1.16,10.86-1.16,11.44c0,0.58-0.19,3.1-2.33,3.1c-2.13,0-2.13,2.33-2.71,5.24
		c-0.58,2.91-3.49,15.51-3.49,15.51s-1.55,5.24,2.52,3.68c4.07-1.55,17.45-12.6,18.23-13.77c0.78-1.16,5.04-2.33,7.17-4.27
		c2.13-1.94,6.21-5.62,6.21-7.56c0-1.94,0-5.82-3.88-4.85c-3.88,0.97-5.24,3.49-8.53-1.36
		C1017.05,522.1,1012.78,517.06,1008.32,519.78z"/>
	<path class="st6" d="M1042.84,529.28c0,0-1.94,2.33-2.33,5.24c-0.39,2.91-0.58,9.5,1.16,7.76c1.75-1.74,3.49-6.01,3.49-8.73
		C1045.16,530.83,1045.75,529.08,1042.84,529.28z"/>
	<path class="st6" d="M1052.53,511.63c0,0,11.44-6.4,13.77-6.21c2.33,0.19,0.97,2.33-0.78,4.07c-1.75,1.75-8.34,5.24-10.47,6.79
		C1052.92,517.84,1045.75,520.36,1052.53,511.63z"/>
	<path class="st6" d="M1075.02,501.35c0,0-3.68,2.33-2.33,2.91c1.36,0.58-0.97,1.94-0.58,2.91c0.39,0.97,3.49,1.16,5.82-0.58
		c2.33-1.75,4.27-1.75,7.95-1.75c3.68,0,5.62-2.13,6.4-4.07c0.77-1.94,2.72-4.46-2.33-3.88c-5.04,0.58-3.88,2.13-5.24,3.88
		c-1.36,1.75-1.94,1.74-3.88,1.55C1078.9,502.13,1077.93,500.97,1075.02,501.35z"/>
	<path class="st6" d="M1028.29,543.43c0,0-4.46,2.72-5.24,4.46c-0.78,1.75-1.74,5.43,0.39,4.65c2.13-0.78,4.65-3.88,5.04-4.27
		C1028.87,547.89,1030.81,543.05,1028.29,543.43z"/>
	<path class="st6" d="M1019.37,553.71c0,0-2.72,0.58-3.69,1.75c-0.97,1.16-2.33,4.07-0.97,3.68c1.36-0.39,4.46-1.55,5.04-2.52
		C1020.34,555.65,1022.28,553.71,1019.37,553.71z"/>
	<path class="st6" d="M1034.11,548.47c0,0-4.65,5.82-5.62,7.56c-0.97,1.74-0.97,3.68-0.97,5.23c0,1.55-0.39,3.68-1.94,6.21
		c-1.55,2.52-3.3,7.95-5.62,10.66c-2.33,2.72-7.95,6.79-8.73,7.17c-0.78,0.39-0.58,0.78-0.97,3.69c-0.39,2.91-1.16,7.95,0.19,6.98
		c1.36-0.97,3.1-2.33,4.27-5.63c1.16-3.3,2.52-6.21,4.65-7.95c2.13-1.74,6.59-10.86,7.37-12.22c0.78-1.36,4.65-7.17,4.65-8.53
		c0-1.36,2.71-5.24,3.3-6.59C1035.27,553.71,1037.6,546.73,1034.11,548.47z"/>
	<path class="st6" d="M1021.7,559.92c0,0-3.88,2.13-5.04,3.3c-1.16,1.16-2.91,4.07-2.91,6.01c0,1.94,0.58,3.49-0.58,4.46
		c-1.16,0.97-6.4,2.91-6.4,2.91s-1.74,2.33,0.39,2.71c2.13,0.39,6.4-0.58,8.14-2.33c1.75-1.75,2.71-5.43,4.46-6.79
		c1.74-1.36,4.85-4.27,5.04-5.24C1025,563.99,1024.8,557.59,1021.7,559.92z"/>
	<path class="st6" d="M993.97,583.57c0,0-3.49-0.58-4.46,0.19c-0.97,0.78-0.19,2.71,1.16,3.88c1.36,1.16,6.4,2.13,6.4-1.16
		C997.07,583.19,995.52,583.18,993.97,583.57z"/>
	<path class="st6" d="M1002.5,571.16c0,0-2.72,1.75-3.68,3.3c-0.97,1.55-2.33,4.65-0.97,4.46c1.36-0.19,3.49-0.58,5.24-1.94
		C1004.83,575.62,1006.19,570.58,1002.5,571.16z"/>
	<path class="st6" d="M1062.03,555.46c0,0-2.52,0.39-3.68,2.13c-1.16,1.75-1.55,3.88,0.19,3.88
		C1060.29,561.47,1063.78,558.17,1062.03,555.46z"/>
	<path class="st6" d="M1072.12,558.75c0,0-3.1,0.58-3.88,1.75c-0.78,1.16-4.85,5.43-2.91,6.79c1.94,1.36,4.07-0.58,4.85-1.94
		C1070.95,563.99,1074.64,557.78,1072.12,558.75z"/>
	<path class="st6" d="M1057.19,563.79c0,0-3.68,0.58-3.68,1.94c0,1.36-0.19,2.91,0.58,3.68c0.78,0.78,0.58,1.75,0,2.13
		c-0.58,0.39-1.94,1.94-1.94,2.71c0,0.78,2.13,1.16,3.3,0.2c1.16-0.97,3.1-4.65,3.1-6.21
		C1058.54,566.7,1059.71,563.41,1057.19,563.79z"/>
	<path class="st6" d="M988.54,591.14c0,0-1.55,2.71,0,4.27c1.55,1.55,3.68,3.68,5.04,3.49c1.36-0.2,5.62-1.55,2.33-4.27
		c-3.3-2.71-4.07-0.39-4.07-0.39S991.25,590.94,988.54,591.14z"/>
	<path class="st6" d="M1001.34,596.76c0,0-2.52-0.97-2.52,0.97c0,1.94-0.19,4.46,0.78,4.85c0.97,0.39,3.88,0.19,3.88-1.94
		C1003.47,598.51,1002.7,596.37,1001.34,596.76z"/>
	<path class="st6" d="M1014.14,602.19c0,0-3.1,0.58-3.1,1.36c0,0.77,0.78,3.49,2.13,3.1
		C1014.52,606.26,1016.66,602.38,1014.14,602.19z"/>
	<path class="st6" d="M999.01,606.45c0,0-1.36,0.77-1.36,1.55c0,0.78,0.97,1.75,1.75,1.16
		C1000.18,608.59,1000.95,606.26,999.01,606.45z"/>
	<path class="st6" d="M1010.26,609.75c0,0-1.74,0.97-2.33,1.36c-0.58,0.39-2.71,1.16-1.36,1.94c1.36,0.77,3.49,0.19,3.49,0.19
		S1013.17,609.56,1010.26,609.75z"/>
	<path class="st6" d="M1004.63,590.36c0,0-2.71,0-2.13,1.16c0.58,1.16-0.58,1.55,0.97,1.75
		C1005.02,593.46,1007.54,590.17,1004.63,590.36z"/>
	<path class="st6" d="M1005.8,560.88c0,0-3.3,0.19-3.3,1.55c0,1.36,0,1.36,1.94,1.16C1006.38,563.41,1008.9,561.08,1005.8,560.88z"
		/>
	<path class="st6" d="M1058.93,500.38c0,0-4.46,2.13-2.52,3.68C1058.35,505.62,1062.62,499.8,1058.93,500.38z"/>
	<path class="st6" d="M1085.3,490.11c0,0-4.65,0.97-3.1,2.72c1.55,1.74,2.52,0.78,4.07-0.19
		C1087.82,491.66,1087.82,489.91,1085.3,490.11z"/>
	<path class="st6" d="M1090.15,486.62c0,0,7.75-6.4,11.83-6.4c4.07,0,4.85,3.3,0.97,3.88c-3.88,0.58-5.24,0.58-6.59,1.55
		c-1.36,0.97-2.52,2.71-4.27,2.71S1090.15,489.33,1090.15,486.62z"/>
</g>
<g id="mientrung" class="st1">
	<g class="st2">
		<path class="st8" d="M630,739.19c2.33,0,11.34,2.62,12.22,4.36c0.87,1.75,3.2,7.27-2.91,13.67c-3.2,4.36-7.56,12.8,4.36,25.89
			c9.02,6.4,16.87,9.89,15.42,15.42c-1.45,5.53-4.36,11.05-4.36,11.05s2.33,3.49,3.49,4.36c1.16,0.87,5.23-4.65,6.98-6.69
			c1.75-2.04,6.98-6.69,6.98-1.16c0,5.53,4.07,16.29,10.18,15.12c6.11-1.16,13.96-5.53,17.16-2.04c3.2,3.49,8.44,12.8,11.05,13.38
			c2.62,0.58,5.82,2.62,5.82,5.24c0,2.62,1.16,5.24,7.27,6.11c6.11,0.87,14.54,3.49,14.54,3.49l1.64-0.16
			c0.01-1.98-0.17-4.56-0.91-9.3c-0.87-4.8,1.31-6.4,2.04-8.29c0.73-1.89,2.47-9.31,2.47-14.4c0-5.09,1.75-8.14,1.75-9.02
			c0-0.87-1.46-4.8-1.46-5.96c0-1.16,3.78-4.51,4.51-5.67c0.73-1.16,3.05-8,3.93-12.22c0.87-4.22,6.86-8.22,7.42-10.33
			c2.31-8.79,10.04-30.33,10.33-30.69c3.86-4.74,5.4-1.72,6.81,1.3l1.62-2.32c0,0,8.73-11.05,7.27-14.83
			c-1.45-3.78-2.04-2.91-8.14-4.07c-6.11-1.16-12.51-4.36-20.36-11.34c-6.69-3.49-29.38-15.42-32.87-22.11
			c-6.84-4.47-12.49-3.95-18.67-19.3c-0.81-0.01-1.67-0.02-2.62-0.02c-8.8,0-14.04-0.42-17.6-2.31c-3.56-1.89-19.49-6.71-23.68-8.17
			c-4.19-1.47-5.03-0.21-6.08-3.56c-1.05-3.35-4.4-8.59-5.66-9.64c-1.26-1.05-8.8-7.12-11.95-9.85c-3.14-2.72-3.56-3.14-5.87-1.26
			c-2.31,1.89-8.59,3.35-11.74,1.26c-3.14-2.1-7.75-1.26-7.96-7.96c-0.21-6.71-7.96-10.06-11.74-12.15c0,0-5.39-0.68-7.46,0.19
			c0,0-0.05-0.76-0.11-1.96c0.03,0.69,0.07,1.24,0.09,1.57c-2.82,1.37-5.98,3.09-9.74,5.08c-10.41,6.48-15.52,3.54-17.49,2.75
			c-1.24-0.49-4.41-3.01-6.6-4.81v0c0,1.84-0.87,4.61-5.29,6.73c-7.27,3.49-35.78,22.4-35.78,22.4s3.49,17.45,8.73,17.45
			c2.62-0.58,15.42,0,36.36-17.45c4.07,1.74,6.4,7.85,6.4,7.85s-19.49,10.47-11.05,29.09c1.74,3.78,4.95,8.44,15.13,9.02
			c6.98,0.58,13.38,2.33,14.25,4.07c0.87,1.75,8.14,7.85,12.51,6.11c4.36-1.75,8.44-2.33,9.6,0.29c1.16,2.62,2.04,5.53-0.58,13.38
			c-1.48,4.43-3.14,8.31-5.46,11.32c3.9,3.28,12.59,10.4,14.38,10.4C620.88,738.51,627.67,739.19,630,739.19z"/>
	</g>
	<g class="st2">
		<path class="st8" d="M738.2,847.39c0,0-8.44-2.62-14.54-3.49c-6.11-0.87-7.27-3.49-7.27-6.11c0-2.62-3.2-4.65-5.82-5.24
			c-2.62-0.58-7.85-9.89-11.05-13.38c-3.2-3.49-11.05,0.87-17.16,2.04c-6.11,1.16-10.18-9.6-10.18-15.12c0-5.53-5.24-0.87-6.98,1.16
			c-1.75,2.04-5.82,7.56-6.98,6.69c-1.16-0.87-3.49-4.36-3.49-4.36s2.91-5.53,4.36-11.05c1.45-5.53-6.4-9.02-15.42-15.42
			c-11.93-13.09-7.56-21.52-4.36-25.89c6.11-6.4,3.78-11.92,2.91-13.67c-0.87-1.74-9.89-4.36-12.22-4.36
			c-2.33,0-9.11-0.68-11.44-0.68c-1.79,0-10.48-7.12-14.38-10.4c-1.79,2.32-3.97,4.12-6.75,5.26c-6.4,2.62-8.73,6.69-8.44,16.58
			c0,4.94,1.16,11.92-9.02,13.38c-9.6,1.45-16.29,6.11-16.29,14.54c-0.29,4.07-3.49,10.76-13.09,13.09
			c-4.65,1.16-11.05-2.04-19.2-5.82c-8.14-3.78-10.18-7.56-25.89-2.62c-9.02-0.87-19.49-2.33-23.85,0.29
			c-6.69,0.58-10.76,1.46-10.76,1.46s-7.85,2.91-1.16,15.42c0.87,7.27,1.16,9.6-0.58,11.63c-1.75,2.04-7.85,5.53-7.85,15.13
			c-5.82,4.65-21.82,16-21.82,16s8.15,14.54,22.4,14.25c7.85,0.87,15.12,1.45,20.07,5.24c4.95,3.78,0.58,10.76,6.4,12.51
			c5.82,1.74,13.38-3.78,16.87,0.87c3.49,4.65,15.71,19.49,28.21,19.78c4.65,2.04,8.44,5.82,13.67,11.34
			c5.24,5.53,10.18,10.47,20.36,16.29c10.18,5.82,23.56,8.14,30.54,10.18c6.98,2.04,20.36,9.89,23.27,11.93
			c2.91,2.04,11.34,4.65,12.8,6.11c1.45,1.45,5.24,5.82,1.74,11.05c-0.11,0.17-0.23,0.35-0.36,0.54c2.52,0.15,6.06,0.48,8.78,1.28
			c4.72,1.39,8.9-0.28,10.29-2.5c1.39-2.22,4.45-2.23,9.73,2.22c6.67,4.45,15.84,6.39,20.29,5c4.45-1.39,9.17-6.67,11.12,0.83
			c2.22,2.22,4.72,3.06,12.51-0.56c4.17-0.56,3.06,0,6.39,1.39c3.34,1.39,8.06,0.56,9.45-3.06c1.39-3.61-1.11-11.12,2.78-12.23
			c3.89-1.11,5.56-2.22,5.56-7.78c0-5.15-1.43-9.11,0.13-12.76l-0.39-0.01l-0.87-3.49c0,0-9.16-10.04-13.09-15.42
			c-3.93-5.38-7.42-15.56-6.4-21.96c1.02-6.4,3.93-10.04,3.93-10.04l7.56,0.29c0,0,1.45-7.27,1.16-10.76
			c-0.29-3.49,2.33-9.02,3.64-9.74c1.31-0.73,6.4-0.87,6.4-0.87s5.24-5.38,5.24-9.74c0-2.41,0.22-3.81,0.17-6.14
			c0.01,0.26,0.01,0.51,0.01,0.75L738.2,847.39z"/>
	</g>
	<g class="st2">
		<path class="st8" d="M851.2,1074.71c-0.1-1.52-0.7-3.41-1.56-5.31c-1.68-3.73-4.37-7.5-6.3-8.66
			c-0.58-10.04-0.73-10.76-0.73-10.76s-6.25-4.95-6.54,3.78c-3.78,0.29-7.13-0.15-8.44,4.07c-2.91-1.16-4.22-4.07-4.22-5.38
			c3.93,0,3.93,0,3.93,0v-3.05c0,0-11.49-12.65-21.23-19.93c-3.2-3.05-11.34-7.71-15.85-2.18c-1.02-0.15-2.18,0-2.18,0l0.29-3.49
			c0,0-14.98-13.09-19.78-20.51c-4.8-7.42-24.43-36.65-28.21-47.41c-1.6-3.78-4.94-10.76-4.65-14.54l0.29-6.84l-3.53-0.13
			c-1.56,3.65-0.13,7.61-0.13,12.76c0,5.56-1.67,6.67-5.56,7.78c-3.89,1.11-1.39,8.62-2.78,12.23c-1.39,3.61-6.11,4.45-9.45,3.06
			c-3.34-1.39-2.22-1.95-6.39-1.39c-7.78,3.61-10.28,2.78-12.51,0.56c-1.95-7.51-6.67-2.22-11.12-0.83
			c-4.45,1.39-13.62-0.56-20.29-5c-5.28-4.45-8.34-4.45-9.73-2.22c-1.39,2.22-5.56,3.89-10.29,2.5c-2.72-0.8-6.26-1.14-8.78-1.28
			c-3.84,5.71-14.16,20.86-4.59,34.66c9.89,14.25,17.45,26.47,17.45,26.47s4.36,5.82,9.31,2.91c2.04,4.95,5.82,16,11.34,18.62
			c11.93-11.05,11.93-11.05,11.93-11.05l17.39,25.94l0.94,1.4c0,0,4.65,7.56,6.69,9.02c0.41,0.29,0.75,0.71,1.01,1.2
			c8.81,2.86,11.74-0.46,13.2-3.36c2.22-4.73,4.45-4.45,7.78-4.17c3.89,3.34,8.34,2.78,10.84,3.34c6.12,0.56,10.84-5,13.62-9.45
			c3.61-4.17,7.23-0.28,10.56,1.39c0,3.34,9.73,4.73,13.06,5.56c3.34,0.83,4.72,4.17,4.72,4.17s-0.28,1.67-0.83,7.51
			c-0.56,7.78,18.07,8.62,28.07,9.17c10.01,3.34,9.73-3.89,12.79-8.06c4.73-7.5,7.51-3.61,13.62-2.22
			c8.34,3.61,10.28,3.34,11.95,3.34c1.14,0,6.19-0.52,9.27-0.85C854.85,1076.29,853.41,1074.71,851.2,1074.71z"/>
	</g>
	<path class="st9" d="M745.96,836.82c0,0-3.49,1.16-3.1,5.04c0.39,3.88,1.75,6.59,3.1,6.01c1.36-0.58,1.94-1.94,1.94-5.24
		C747.89,839.34,747.31,836.63,745.96,836.82z"/>
	<path class="st9" d="M761.08,832.17c0,0-2.33,0.78-2.33,2.33c0,1.55,1.36,3.88,2.52,3.49c1.16-0.39,2.52-1.55,2.52-2.91
		C763.8,833.72,763.21,831.98,761.08,832.17z"/>
</g>
</svg>
