<?xml version="1.0" encoding="UTF-8" standalone="no"?>
<svg
   xmlns:dc="http://purl.org/dc/elements/1.1/"
   xmlns:cc="http://creativecommons.org/ns#"
   xmlns:rdf="http://www.w3.org/1999/02/22-rdf-syntax-ns#"
   xmlns:svg="http://www.w3.org/2000/svg"
   xmlns="http://www.w3.org/2000/svg"
   viewBox="0 0 2537.3333 1305.3333"
   height="1305.3333"
   width="2537.3333"
   xml:space="preserve"
   id="svg2"
   version="1.1"><metadata
     id="metadata8"><rdf:RDF><cc:Work
         rdf:about=""><dc:format>image/svg+xml</dc:format><dc:type
           rdf:resource="http://purl.org/dc/dcmitype/StillImage" /></cc:Work></rdf:RDF></metadata><defs
     id="defs6"><clipPath
       id="clipPath18"
       clipPathUnits="userSpaceOnUse"><path
         id="path16"
         d="M 0,979 H 1903 V 0 H 0 Z" /></clipPath><clipPath
       id="clipPath26"
       clipPathUnits="userSpaceOnUse"><path
         id="path24"
         d="M 592.372,439.3 H 758.26 V 301.585 H 592.372 Z" /></clipPath></defs><g
     transform="matrix(1.3333333,0,0,-1.3333333,0,1305.3333)"
     id="g10"><g
       id="g12"><g
         clip-path="url(#clipPath18)"
         id="g14"><g
           id="g20"><g
             id="g22" /><g
             id="g38"><g
               id="g36"
               clip-path="url(#clipPath26)"><g
                 id="g30"
                 transform="translate(593.2202,363.7793)"><path
                   id="path28"
                   style="fill:#c92f2f;fill-opacity:1;fill-rule:nonzero;stroke:none"
                   d="m 0,0 c 0,0 -0.508,7.95 -0.297,12.979 0.209,5.03 11.107,1.468 18.442,-0.418 2.094,2.304 7.334,4.4 7.334,4.4 0,0 0.629,4.61 -0.209,11.527 -3.982,3.562 -8.174,11.316 -9.85,14.25 -1.677,2.935 -8.593,13.833 -10.479,16.347 -1.887,2.516 -1.257,4.611 -1.257,8.802 0,4.191 4.4,7.128 4.4,7.128 4.611,-0.211 5.87,-6.081 9.013,-11.321 3.144,-5.239 9.85,-6.706 17.605,-10.058 7.753,-3.353 9.639,-7.335 12.783,-7.754 3.143,-0.42 3.143,1.048 7.963,1.468 4.821,0.417 12.576,-5.871 12.576,-5.871 0,0 10.268,2.724 10.268,4.403 0,1.676 -2.305,9.221 -2.305,9.221 0,0 10.69,2.722 18.652,1.046 7.965,-1.674 5.868,-5.448 7.755,-5.657 1.886,-0.209 4.4,-2.096 5.449,-3.982 1.047,-1.887 0.838,-4.611 2.095,-7.964 1.257,-3.354 1.676,-5.03 2.305,-4.4 0.63,0.627 6.497,3.142 6.497,-0.209 0,-3.355 0.419,-2.935 5.659,-10.271 5.24,-7.334 6.915,-11.945 8.592,-25.566 1.677,-13.622 2.724,-14.042 2.935,-16.138 0.209,-2.097 1.885,-1.048 5.868,-0.421 3.98,0.629 4.82,-5.238 4.82,-6.705 0,-1.468 4.611,-3.144 6.706,-3.144 2.096,0 5.239,-2.723 5.867,-6.915 0.63,-4.192 5.944,-8.849 5.298,-8.885 -1.92,-0.109 -5.669,-0.284 -8.022,-0.127 -3.143,0.209 -7.963,3.563 -11.736,3.563 -3.771,0 0.21,-4.401 1.047,-9.641 0.84,-5.239 -7.333,1.886 -9.01,3.773 -1.676,1.886 -1.468,-7.126 -1.468,-12.576 0,-5.45 -6.706,-1.046 -10.477,2.097 -3.773,3.143 -6.288,3.562 -15.09,3.562 -8.803,0 -14.042,0.42 -17.604,2.306 -3.564,1.884 -19.491,6.706 -23.682,8.172 -4.191,1.467 -5.03,0.209 -6.078,3.564 -1.048,3.354 -4.401,8.591 -5.658,9.641 -1.258,1.047 -8.803,7.125 -11.947,9.849 -3.144,2.725 -3.562,3.144 -5.867,1.257 -2.306,-1.886 -8.592,-3.353 -11.735,-1.257 -3.144,2.096 -7.755,1.257 -7.965,7.964 C 18.983,-5.256 11.23,-1.9 7.458,0.193 7.458,0.193 2.068,0.87 0,0" /></g><g
                 id="g34"
                 transform="translate(593.2202,363.7793)"><path
                   id="path32"
                   style="fill:none;stroke:#262626;stroke-width:1;stroke-linecap:butt;stroke-linejoin:miter;stroke-miterlimit:10;stroke-dasharray:none;stroke-opacity:1"
                   d="m 0,0 c 0,0 -0.508,7.95 -0.297,12.979 0.209,5.03 11.107,1.468 18.442,-0.418 2.094,2.304 7.334,4.4 7.334,4.4 0,0 0.629,4.61 -0.209,11.527 -3.982,3.562 -8.174,11.316 -9.85,14.25 -1.677,2.935 -8.593,13.833 -10.479,16.347 -1.887,2.516 -1.257,4.611 -1.257,8.802 0,4.191 4.4,7.128 4.4,7.128 4.611,-0.211 5.87,-6.081 9.013,-11.321 3.144,-5.239 9.85,-6.706 17.605,-10.058 7.753,-3.353 9.639,-7.335 12.783,-7.754 3.143,-0.42 3.143,1.048 7.963,1.468 4.821,0.417 12.576,-5.871 12.576,-5.871 0,0 10.268,2.724 10.268,4.403 0,1.676 -2.305,9.221 -2.305,9.221 0,0 10.69,2.722 18.652,1.046 7.965,-1.674 5.868,-5.448 7.755,-5.657 1.886,-0.209 4.4,-2.096 5.449,-3.982 1.047,-1.887 0.838,-4.611 2.095,-7.964 1.257,-3.354 1.676,-5.03 2.305,-4.4 0.63,0.627 6.497,3.142 6.497,-0.209 0,-3.355 0.419,-2.935 5.659,-10.271 5.24,-7.334 6.915,-11.945 8.592,-25.566 1.677,-13.622 2.724,-14.042 2.935,-16.138 0.209,-2.097 1.885,-1.048 5.868,-0.421 3.98,0.629 4.82,-5.238 4.82,-6.705 0,-1.468 4.611,-3.144 6.706,-3.144 2.096,0 5.239,-2.723 5.867,-6.915 0.63,-4.192 5.944,-8.849 5.298,-8.885 -1.92,-0.109 -5.669,-0.284 -8.022,-0.127 -3.143,0.209 -7.963,3.563 -11.736,3.563 -3.771,0 0.21,-4.401 1.047,-9.641 0.84,-5.239 -7.333,1.886 -9.01,3.773 -1.676,1.886 -1.468,-7.126 -1.468,-12.576 0,-5.45 -6.706,-1.046 -10.477,2.097 -3.773,3.143 -6.288,3.562 -15.09,3.562 -8.803,0 -14.042,0.42 -17.604,2.306 -3.564,1.884 -19.491,6.706 -23.682,8.172 -4.191,1.467 -5.03,0.209 -6.078,3.564 -1.048,3.354 -4.401,8.591 -5.658,9.641 -1.258,1.047 -8.803,7.125 -11.947,9.849 -3.144,2.725 -3.562,3.144 -5.867,1.257 -2.306,-1.886 -8.592,-3.353 -11.735,-1.257 -3.144,2.096 -7.755,1.257 -7.965,7.964 C 18.983,-5.256 11.23,-1.9 7.458,0.193 7.458,0.193 2.068,0.87 0,0 Z" /></g></g></g></g></g></g></g></svg>