<?xml version="1.0" encoding="UTF-8" standalone="no"?>
<svg
   xmlns:dc="http://purl.org/dc/elements/1.1/"
   xmlns:cc="http://creativecommons.org/ns#"
   xmlns:rdf="http://www.w3.org/1999/02/22-rdf-syntax-ns#"
   xmlns:svg="http://www.w3.org/2000/svg"
   xmlns="http://www.w3.org/2000/svg"
   viewBox="0 0 2537.3333 1305.3333"
   height="1305.3333"
   width="2537.3333"
   xml:space="preserve"
   id="svg2"
   version="1.1"><metadata
     id="metadata8"><rdf:RDF><cc:Work
         rdf:about=""><dc:format>image/svg+xml</dc:format><dc:type
           rdf:resource="http://purl.org/dc/dcmitype/StillImage" /></cc:Work></rdf:RDF></metadata><defs
     id="defs6"><clipPath
       id="clipPath18"
       clipPathUnits="userSpaceOnUse"><path
         id="path16"
         d="M 0,979 H 1903 V 0 H 0 Z" /></clipPath><clipPath
       id="clipPath26"
       clipPathUnits="userSpaceOnUse"><path
         id="path24"
         d="M 204.295,727.729 H 463.534 V 536.495 H 204.295 Z" /></clipPath></defs><g
     transform="matrix(1.3333333,0,0,-1.3333333,0,1305.3333)"
     id="g10"><g
       id="g12"><g
         clip-path="url(#clipPath18)"
         id="g14"><g
           id="g20"><g
             id="g22" /><g
             id="g38"><g
               id="g36"
               clip-path="url(#clipPath26)"><g
                 id="g30"
                 transform="translate(208.8159,676.0186)"><path
                   id="path28"
                   style="fill:#c92f2f;fill-opacity:1;fill-rule:nonzero;stroke:none"
                   d="m 0,0 c 2.521,-3.296 6.011,-7.174 5.623,-12.411 -0.388,-5.233 0,-1.162 3.683,-5.622 3.686,-4.46 10.473,-12.41 12.411,-14.932 1.94,-2.52 5.623,-8.145 5.623,-8.145 0,0 6.981,6.787 7.369,3.491 0.388,-3.297 0,-5.816 0.97,-7.368 0.969,-1.553 11.829,-8.145 11.829,-5.041 0,3.101 -0.777,3.103 -2.133,6.204 -1.358,3.102 -0.582,6.787 2.909,4.072 3.49,-2.714 9.502,-3.297 9.307,-6.594 -0.194,-3.295 -1.551,-4.654 0.583,-8.919 2.132,-4.266 8.338,-7.174 11.634,-11.827 3.296,-4.655 7.563,-8.535 9.114,-4.849 1.551,3.685 3.297,9.502 7.562,6.011 4.266,-3.49 9.502,-10.665 14.35,-11.053 4.848,-0.389 8.337,1.94 10.278,4.461 1.939,2.52 1.357,3.878 1.357,6.592 0,2.715 5.818,1.939 11.829,-2.52 6.011,-4.46 20.167,-16.095 21.33,-5.237 1.164,10.859 1.552,11.441 7.369,12.217 5.817,0.776 9.697,0.388 11.247,-5.622 1.55,-6.013 -0.582,-4.849 3.491,-9.503 4.072,-4.654 8.145,-9.501 8.337,-12.604 0.195,-3.103 1.94,6.786 5.624,7.562 3.685,0.776 7.756,0.776 12.41,-2.908 4.654,-3.684 11.053,-6.982 11.248,-10.277 0.193,-3.297 1.164,-4.849 3.296,-4.849 2.133,0 2.716,-3.878 1.163,-6.399 -1.551,-2.521 -0.582,-4.849 0,-5.624 0.582,-0.775 2.909,-2.909 7.757,-8.531 4.848,-5.624 7.951,-12.411 9.502,-15.514 1.551,-3.102 5.236,-5.235 9.308,-0.581 4.073,4.653 4.847,5.235 9.695,5.818 4.849,0.582 8.726,1.745 2.133,11.44 -6.592,9.695 -11.44,15.901 -6.205,18.616 5.235,2.713 15.706,7.367 11.053,10.858 -4.654,3.492 -8.532,10.278 -7.757,15.319 0.776,5.043 4.072,6.981 -2.521,10.666 -6.592,3.685 -7.368,10.083 -9.695,13.186 -2.327,3.104 0.582,5.431 -1.551,6.982 -2.134,1.551 -6.788,4.459 -9.501,6.785 -2.716,2.328 -2.91,4.461 -3.298,9.115 -0.387,4.654 1.163,7.564 -7.951,7.564 -9.112,0 -14.543,-0.583 -17.645,6.398 -3.102,6.981 -0.776,5.816 -0.776,11.828 0,6.012 0.582,14.737 -7.562,14.737 -5.131,0 -5.873,1.617 -5.721,3.541 -2.28,1.891 -4.887,6.224 -7.757,14.398 C 169.576,35.584 161.142,53.328 150.088,51 144.852,37.038 139.616,23.659 125.946,17.841 124.783,10.859 126.237,1.554 108.785,-1.065 107.04,-9.211 96.568,-18.518 87.551,-3.103 79.988,10.277 68.062,32.385 24.142,46.928 21.814,47.219 12.505,48.383 9.598,27.731 7.173,25.426 1.663,19.179 -3.936,12.677 -3.28,11.196 -2.616,9.151 -2.521,6.787 -2.328,1.941 -2.522,3.297 0,0" /></g><g
                 id="g34"
                 transform="translate(208.8159,676.0186)"><path
                   id="path32"
                   style="fill:none;stroke:#262626;stroke-width:1;stroke-linecap:butt;stroke-linejoin:miter;stroke-miterlimit:10;stroke-dasharray:none;stroke-opacity:1"
                   d="m 0,0 c 2.521,-3.296 6.011,-7.174 5.623,-12.411 -0.388,-5.233 0,-1.162 3.683,-5.622 3.686,-4.46 10.473,-12.41 12.411,-14.932 1.94,-2.52 5.623,-8.145 5.623,-8.145 0,0 6.981,6.787 7.369,3.491 0.388,-3.297 0,-5.816 0.97,-7.368 0.969,-1.553 11.829,-8.145 11.829,-5.041 0,3.101 -0.777,3.103 -2.133,6.204 -1.358,3.102 -0.582,6.787 2.909,4.072 3.49,-2.714 9.502,-3.297 9.307,-6.594 -0.194,-3.295 -1.551,-4.654 0.583,-8.919 2.132,-4.266 8.338,-7.174 11.634,-11.827 3.296,-4.655 7.563,-8.535 9.114,-4.849 1.551,3.685 3.297,9.502 7.562,6.011 4.266,-3.49 9.502,-10.665 14.35,-11.053 4.848,-0.389 8.337,1.94 10.278,4.461 1.939,2.52 1.357,3.878 1.357,6.592 0,2.715 5.818,1.939 11.829,-2.52 6.011,-4.46 20.167,-16.095 21.33,-5.237 1.164,10.859 1.552,11.441 7.369,12.217 5.817,0.776 9.697,0.388 11.247,-5.622 1.55,-6.013 -0.582,-4.849 3.491,-9.503 4.072,-4.654 8.145,-9.501 8.337,-12.604 0.195,-3.103 1.94,6.786 5.624,7.562 3.685,0.776 7.756,0.776 12.41,-2.908 4.654,-3.684 11.053,-6.982 11.248,-10.277 0.193,-3.297 1.164,-4.849 3.296,-4.849 2.133,0 2.716,-3.878 1.163,-6.399 -1.551,-2.521 -0.582,-4.849 0,-5.624 0.582,-0.775 2.909,-2.909 7.757,-8.531 4.848,-5.624 7.951,-12.411 9.502,-15.514 1.551,-3.102 5.236,-5.235 9.308,-0.581 4.073,4.653 4.847,5.235 9.695,5.818 4.849,0.582 8.726,1.745 2.133,11.44 -6.592,9.695 -11.44,15.901 -6.205,18.616 5.235,2.713 15.706,7.367 11.053,10.858 -4.654,3.492 -8.532,10.278 -7.757,15.319 0.776,5.043 4.072,6.981 -2.521,10.666 -6.592,3.685 -7.368,10.083 -9.695,13.186 -2.327,3.104 0.582,5.431 -1.551,6.982 -2.134,1.551 -6.788,4.459 -9.501,6.785 -2.716,2.328 -2.91,4.461 -3.298,9.115 -0.387,4.654 1.163,7.564 -7.951,7.564 -9.112,0 -14.543,-0.583 -17.645,6.398 -3.102,6.981 -0.776,5.816 -0.776,11.828 0,6.012 0.582,14.737 -7.562,14.737 -5.131,0 -5.873,1.617 -5.721,3.541 -2.28,1.891 -4.887,6.224 -7.757,14.398 C 169.576,35.584 161.142,53.328 150.088,51 144.852,37.038 139.616,23.659 125.946,17.841 124.783,10.859 126.237,1.554 108.785,-1.065 107.04,-9.211 96.568,-18.518 87.551,-3.103 79.988,10.277 68.062,32.385 24.142,46.928 21.814,47.219 12.505,48.383 9.598,27.731 7.173,25.426 1.663,19.179 -3.936,12.677 -3.28,11.196 -2.616,9.151 -2.521,6.787 -2.328,1.941 -2.522,3.297 0,0 Z" /></g></g></g></g></g></g></g></svg>