<?xml version="1.0" encoding="UTF-8" standalone="no"?>
<svg
   xmlns:dc="http://purl.org/dc/elements/1.1/"
   xmlns:cc="http://creativecommons.org/ns#"
   xmlns:rdf="http://www.w3.org/1999/02/22-rdf-syntax-ns#"
   xmlns:svg="http://www.w3.org/2000/svg"
   xmlns="http://www.w3.org/2000/svg"
   viewBox="0 0 2537.3333 1305.3333"
   height="1305.3333"
   width="2537.3333"
   xml:space="preserve"
   id="svg2"
   version="1.1"><metadata
     id="metadata8"><rdf:RDF><cc:Work
         rdf:about=""><dc:format>image/svg+xml</dc:format><dc:type
           rdf:resource="http://purl.org/dc/dcmitype/StillImage" /></cc:Work></rdf:RDF></metadata><defs
     id="defs6"><clipPath
       id="clipPath18"
       clipPathUnits="userSpaceOnUse"><path
         id="path16"
         d="M 0,979 H 1903 V 0 H 0 Z" /></clipPath><clipPath
       id="clipPath26"
       clipPathUnits="userSpaceOnUse"><path
         id="path24"
         d="M 387.376,730.725 H 562.034 V 569.744 H 387.376 Z" /></clipPath></defs><g
     transform="matrix(1.3333333,0,0,-1.3333333,0,1305.3333)"
     id="g10"><g
       id="g12"><g
         clip-path="url(#clipPath18)"
         id="g14"><g
           id="g20"><g
             id="g22" /><g
             id="g38"><g
               id="g36"
               clip-path="url(#clipPath26)"><g
                 id="g30"
                 transform="translate(393.6147,689.0107)"><path
                   id="path28"
                   style="fill:#c92f2f;fill-opacity:1;fill-rule:nonzero;stroke:none"
                   d="m 0,0 c 8.145,0 7.562,-8.725 7.562,-14.737 0,-6.012 -2.326,-4.847 0.776,-11.828 3.102,-6.981 8.533,-6.398 17.645,-6.398 9.114,0 7.564,-2.911 7.952,-7.564 0.387,-4.654 0.581,-6.787 3.297,-9.115 2.713,-2.326 7.368,-5.234 9.501,-6.785 2.133,-1.552 -0.776,-3.879 1.551,-6.982 2.327,-3.103 3.103,-9.502 9.695,-13.186 6.593,-3.685 3.297,-5.623 2.521,-10.666 -0.775,-5.041 3.103,-11.827 7.757,-15.32 1.291,-0.966 1.415,-2.022 0.814,-3.103 3.145,-4.123 8.651,-8.147 11.577,-8.018 3.323,0.143 2.745,0.722 5.346,-0.433 2.6,-1.157 13.578,-4.479 17.766,-4.623 4.19,-0.144 3.612,1.444 3.612,2.312 0,0.865 -0.29,5.632 0.433,7.509 0.723,1.878 5.056,-2.31 6.212,-3.899 1.155,-1.589 5.344,0 9.099,-1.299 3.756,-1.301 4.911,-3.756 6.501,-4.046 1.589,-0.288 5.344,4.766 7.511,9.968 2.166,5.199 -5.201,15.021 -7.079,18.63 -1.877,3.613 -0.288,4.625 1.445,5.203 7.367,1.589 4.622,3.609 4.477,7.366 -0.145,3.755 -0.866,5.633 1.59,7.511 2.455,1.877 9.966,-7.223 11.988,-9.823 2.022,-2.599 7.512,-9.677 10.833,-9.534 3.323,0.144 2.022,6.069 2.167,9.535 0.144,3.466 5.2,4.333 5.345,9.822 0.143,5.489 -0.29,5.2 -2.456,6.212 0,0 -3.627,1.409 -4.88,4.289 -1.252,2.88 2.379,5.384 3.131,9.893 0.751,4.507 -1.378,7.637 -5.635,10.894 -4.257,3.257 -10.894,9.017 -10.894,9.017 0,0 0.376,9.514 -0.501,11.268 -0.877,1.754 -4.633,3.256 -6.261,7.139 -1.627,3.881 6.511,9.264 6.511,9.264 0,0 -1.877,1.379 -3.005,3.506 -7.764,1.879 -7.764,4.511 -8.639,7.89 -9.266,2.254 -7.889,5.259 -7.889,5.259 l 4.647,1.341 c -1.941,1.841 -3.955,4.316 -5.01,4.669 -1.745,0.581 -8.144,2.326 -8.144,2.326 v 17.744 c 0,0 -30.833,1.454 -45.086,-36.65 C 71.747,-0.387 69.13,-14.349 68.839,-17.257 58.368,-6.786 22.009,31.318 16.483,32.771 14.156,32.771 7.465,30.735 3.975,13.284 3.159,8.186 -0.375,-0.895 -5.721,3.541 -5.873,1.617 -5.13,0 0,0" /></g><g
                 id="g34"
                 transform="translate(393.6147,689.0107)"><path
                   id="path32"
                   style="fill:none;stroke:#262626;stroke-width:1;stroke-linecap:butt;stroke-linejoin:miter;stroke-miterlimit:10;stroke-dasharray:none;stroke-opacity:1"
                   d="m 0,0 c 8.145,0 7.562,-8.725 7.562,-14.737 0,-6.012 -2.326,-4.847 0.776,-11.828 3.102,-6.981 8.533,-6.398 17.645,-6.398 9.114,0 7.564,-2.911 7.952,-7.564 0.387,-4.654 0.581,-6.787 3.297,-9.115 2.713,-2.326 7.368,-5.234 9.501,-6.785 2.133,-1.552 -0.776,-3.879 1.551,-6.982 2.327,-3.103 3.103,-9.502 9.695,-13.186 6.593,-3.685 3.297,-5.623 2.521,-10.666 -0.775,-5.041 3.103,-11.827 7.757,-15.32 1.291,-0.966 1.415,-2.022 0.814,-3.103 3.145,-4.123 8.651,-8.147 11.577,-8.018 3.323,0.143 2.745,0.722 5.346,-0.433 2.6,-1.157 13.578,-4.479 17.766,-4.623 4.19,-0.144 3.612,1.444 3.612,2.312 0,0.865 -0.29,5.632 0.433,7.509 0.723,1.878 5.056,-2.31 6.212,-3.899 1.155,-1.589 5.344,0 9.099,-1.299 3.756,-1.301 4.911,-3.756 6.501,-4.046 1.589,-0.288 5.344,4.766 7.511,9.968 2.166,5.199 -5.201,15.021 -7.079,18.63 -1.877,3.613 -0.288,4.625 1.445,5.203 7.367,1.589 4.622,3.609 4.477,7.366 -0.145,3.755 -0.866,5.633 1.59,7.511 2.455,1.877 9.966,-7.223 11.988,-9.823 2.022,-2.599 7.512,-9.677 10.833,-9.534 3.323,0.144 2.022,6.069 2.167,9.535 0.144,3.466 5.2,4.333 5.345,9.822 0.143,5.489 -0.29,5.2 -2.456,6.212 0,0 -3.627,1.409 -4.88,4.289 -1.252,2.88 2.379,5.384 3.131,9.893 0.751,4.507 -1.378,7.637 -5.635,10.894 -4.257,3.257 -10.894,9.017 -10.894,9.017 0,0 0.376,9.514 -0.501,11.268 -0.877,1.754 -4.633,3.256 -6.261,7.139 -1.627,3.881 6.511,9.264 6.511,9.264 0,0 -1.877,1.379 -3.005,3.506 -7.764,1.879 -7.764,4.511 -8.639,7.89 -9.266,2.254 -7.889,5.259 -7.889,5.259 l 4.647,1.341 c -1.941,1.841 -3.955,4.316 -5.01,4.669 -1.745,0.581 -8.144,2.326 -8.144,2.326 v 17.744 c 0,0 -30.833,1.454 -45.086,-36.65 C 71.747,-0.387 69.13,-14.349 68.839,-17.257 58.368,-6.786 22.009,31.318 16.483,32.771 14.156,32.771 7.465,30.735 3.975,13.284 3.159,8.186 -0.375,-0.895 -5.721,3.541 -5.873,1.617 -5.13,0 0,0 Z" /></g></g></g></g></g></g></g></svg>