<?xml version="1.0" encoding="UTF-8" standalone="no"?>
<svg
   xmlns:dc="http://purl.org/dc/elements/1.1/"
   xmlns:cc="http://creativecommons.org/ns#"
   xmlns:rdf="http://www.w3.org/1999/02/22-rdf-syntax-ns#"
   xmlns:svg="http://www.w3.org/2000/svg"
   xmlns="http://www.w3.org/2000/svg"
   viewBox="0 0 2537.3333 1305.3333"
   height="1305.3333"
   width="2537.3333"
   xml:space="preserve"
   id="svg2"
   version="1.1"><metadata
     id="metadata8"><rdf:RDF><cc:Work
         rdf:about=""><dc:format>image/svg+xml</dc:format><dc:type
           rdf:resource="http://purl.org/dc/dcmitype/StillImage" /></cc:Work></rdf:RDF></metadata><defs
     id="defs6"><clipPath
       id="clipPath18"
       clipPathUnits="userSpaceOnUse"><path
         id="path16"
         d="M 0,979 H 1903 V 0 H 0 Z" /></clipPath><clipPath
       id="clipPath26"
       clipPathUnits="userSpaceOnUse"><path
         id="path24"
         d="m 763.56,334.372 h 95.895 V 233.068 H 763.56 Z" /></clipPath><clipPath
       id="clipPath46"
       clipPathUnits="userSpaceOnUse"><path
         id="path44"
         d="m 787.96,234.464 h 10.851 V 224.52 H 787.96 Z" /></clipPath></defs><g
     transform="matrix(1.3333333,0,0,-1.3333333,0,1305.3333)"
     id="g10"><g
       id="g12"><g
         clip-path="url(#clipPath18)"
         id="g14"><g
           id="g20"><g
             id="g22" /><g
             id="g38"><g
               id="g36"
               clip-path="url(#clipPath26)"><g
                 id="g30"
                 transform="translate(855.6313,294.8291)"><path
                   id="path28"
                   style="fill:#c92f2f;fill-opacity:1;fill-rule:nonzero;stroke:none"
                   d="m 0,0 c -4.424,-0.26 -5.725,-1.82 -8.587,-1.82 -2.862,0 -7.545,2.34 -8.586,5.203 -1.041,2.861 -3.123,5.463 -7.026,5.463 -3.903,0 -6.505,-4.683 -9.366,-5.203 -2.863,-0.52 -10.929,-4.944 -11.19,4.163 0.78,4.944 1.821,5.725 1.821,5.725 2.862,2.34 2.862,1.56 2.602,2.861 -0.259,1.302 -0.52,2.342 -4.683,2.082 -4.163,-0.26 -3.382,1.822 -3.382,4.944 0,3.122 1.821,5.465 -3.643,7.284 -1.071,0.358 -1.957,0.859 -2.697,1.425 -1.22,0.581 -2.644,1.684 -3.809,3.781 -2.601,4.684 -4.944,3.644 -5.984,0 -1.041,-3.642 -1.302,-4.943 -3.903,-4.943 -2.603,0 -5.465,0.259 -7.547,-8.326 -1.821,-4.424 -2.862,1.821 -2.862,3.122 0,1.301 -2.602,2.342 -5.464,1.821 -2.861,-0.52 -4.683,-3.643 -5.724,-5.724 -0.395,-0.791 -0.901,-1.579 -1.408,-2.1 0.887,-1.412 2.093,-2.99 2.97,-2.845 1.561,-5.725 2.602,-9.628 6.245,-13.529 3.643,-3.905 3.643,-5.204 3.903,-6.506 0.26,-1.301 4.423,-1.301 4.423,-1.301 0,0 0.521,-3.643 1.822,-4.165 1.301,-0.518 6.505,1.043 6.505,1.043 0,0 -1.039,-3.902 1.301,-4.163 2.342,-0.263 7.025,1.04 7.025,-2.343 0,-3.382 -1.561,-17.172 -2.081,-20.296 -0.52,-3.121 -6.245,-11.188 -6.245,-15.091 -0.286,-0.572 -0.568,-1.177 -0.846,-1.795 -0.226,-2.302 -1.416,-17.766 9.047,-5.093 6.498,7.869 17.016,15.27 21.234,20.215 4.218,4.946 16.143,18.761 19.779,21.089 2.909,1.162 7.272,3.343 13.962,4.362 2.618,0.437 5.671,1.89 5.671,6.254 0,1.469 0.017,2.932 0.039,4.233 C 2.58,-0.008 1.526,0.089 0,0" /></g><g
                 id="g34"
                 transform="translate(855.6313,294.8291)"><path
                   id="path32"
                   style="fill:none;stroke:#262626;stroke-width:1;stroke-linecap:butt;stroke-linejoin:miter;stroke-miterlimit:10;stroke-dasharray:none;stroke-opacity:1"
                   d="m 0,0 c -4.424,-0.26 -5.725,-1.82 -8.587,-1.82 -2.862,0 -7.545,2.34 -8.586,5.203 -1.041,2.861 -3.123,5.463 -7.026,5.463 -3.903,0 -6.505,-4.683 -9.366,-5.203 -2.863,-0.52 -10.929,-4.944 -11.19,4.163 0.78,4.944 1.821,5.725 1.821,5.725 2.862,2.34 2.862,1.56 2.602,2.861 -0.259,1.302 -0.52,2.342 -4.683,2.082 -4.163,-0.26 -3.382,1.822 -3.382,4.944 0,3.122 1.821,5.465 -3.643,7.284 -1.071,0.358 -1.957,0.859 -2.697,1.425 -1.22,0.581 -2.644,1.684 -3.809,3.781 -2.601,4.684 -4.944,3.644 -5.984,0 -1.041,-3.642 -1.302,-4.943 -3.903,-4.943 -2.603,0 -5.465,0.259 -7.547,-8.326 -1.821,-4.424 -2.862,1.821 -2.862,3.122 0,1.301 -2.602,2.342 -5.464,1.821 -2.861,-0.52 -4.683,-3.643 -5.724,-5.724 -0.395,-0.791 -0.901,-1.579 -1.408,-2.1 0.887,-1.412 2.093,-2.99 2.97,-2.845 1.561,-5.725 2.602,-9.628 6.245,-13.529 3.643,-3.905 3.643,-5.204 3.903,-6.506 0.26,-1.301 4.423,-1.301 4.423,-1.301 0,0 0.521,-3.643 1.822,-4.165 1.301,-0.518 6.505,1.043 6.505,1.043 0,0 -1.039,-3.902 1.301,-4.163 2.342,-0.263 7.025,1.04 7.025,-2.343 0,-3.382 -1.561,-17.172 -2.081,-20.296 -0.52,-3.121 -6.245,-11.188 -6.245,-15.091 -0.286,-0.572 -0.568,-1.177 -0.846,-1.795 -0.226,-2.302 -1.416,-17.766 9.047,-5.093 6.498,7.869 17.016,15.27 21.234,20.215 4.218,4.946 16.143,18.761 19.779,21.089 2.909,1.162 7.272,3.343 13.962,4.362 2.618,0.437 5.671,1.89 5.671,6.254 0,1.469 0.017,2.932 0.039,4.233 C 2.58,-0.008 1.526,0.089 0,0 Z" /></g></g></g></g><g
           id="g40"><g
             id="g42" /><g
             id="g58"><g
               id="g56"
               clip-path="url(#clipPath46)"><g
                 id="g50"
                 transform="translate(788.8101,230.4062)"><path
                   id="path48"
                   style="fill:#c92f2f;fill-opacity:1;fill-rule:nonzero;stroke:none"
                   d="M 0,0 C 0,0 0.97,-0.193 3.295,0.194 5.623,0.582 9.501,5.236 9.501,2.909 9.501,0.582 8.144,-0.971 5.817,-2.908 3.49,-4.848 -1.746,-8.531 0,0" /></g><g
                 id="g54"
                 transform="translate(788.8101,230.4062)"><path
                   id="path52"
                   style="fill:none;stroke:#262626;stroke-width:1;stroke-linecap:butt;stroke-linejoin:miter;stroke-miterlimit:10;stroke-dasharray:none;stroke-opacity:1"
                   d="M 0,0 C 0,0 0.97,-0.193 3.295,0.194 5.623,0.582 9.501,5.236 9.501,2.909 9.501,0.582 8.144,-0.971 5.817,-2.908 3.49,-4.848 -1.746,-8.531 0,0 Z" /></g></g></g></g></g></g></g></svg>