<?xml version="1.0" encoding="UTF-8" standalone="no"?>
<svg
   xmlns:dc="http://purl.org/dc/elements/1.1/"
   xmlns:cc="http://creativecommons.org/ns#"
   xmlns:rdf="http://www.w3.org/1999/02/22-rdf-syntax-ns#"
   xmlns:svg="http://www.w3.org/2000/svg"
   xmlns="http://www.w3.org/2000/svg"
   viewBox="0 0 2537.3333 1305.3333"
   height="1305.3333"
   width="2537.3333"
   xml:space="preserve"
   id="svg2"
   version="1.1"><metadata
     id="metadata8"><rdf:RDF><cc:Work
         rdf:about=""><dc:format>image/svg+xml</dc:format><dc:type
           rdf:resource="http://purl.org/dc/dcmitype/StillImage" /></cc:Work></rdf:RDF></metadata><defs
     id="defs6"><clipPath
       id="clipPath18"
       clipPathUnits="userSpaceOnUse"><path
         id="path16"
         d="M 0,979 H 1903 V 0 H 0 Z" /></clipPath><clipPath
       id="clipPath26"
       clipPathUnits="userSpaceOnUse"><path
         id="path24"
         d="m 704.821,323.607 h 94.067 V 231.91 h -94.067 z" /></clipPath><clipPath
       id="clipPath46"
       clipPathUnits="userSpaceOnUse"><path
         id="path44"
         d="m 776.168,230.161 h 10.345 v -7.389 h -10.345 z" /></clipPath></defs><g
     transform="matrix(1.3333333,0,0,-1.3333333,0,1305.3333)"
     id="g10"><g
       id="g12"><g
         clip-path="url(#clipPath18)"
         id="g14"><g
           id="g20"><g
             id="g22" /><g
             id="g38"><g
               id="g36"
               clip-path="url(#clipPath26)"><g
                 id="g30"
                 transform="translate(796.3062,260.4824)"><path
                   id="path28"
                   style="fill:#c92f2f;fill-opacity:1;fill-rule:nonzero;stroke:none"
                   d="m 0,0 c 0.52,3.124 2.082,16.914 2.082,20.296 0,3.383 -4.684,2.08 -7.025,2.343 -2.341,0.26 -1.302,4.163 -1.302,4.163 0,0 -5.204,-1.562 -6.505,-1.043 -1.301,0.521 -1.822,4.165 -1.822,4.165 0,0 -4.162,0 -4.423,1.301 -0.26,1.301 -0.26,2.601 -3.903,6.505 -3.643,3.902 -4.684,7.805 -6.245,13.53 -0.877,-0.146 -2.083,1.432 -2.97,2.844 -0.828,-0.848 -1.651,-0.977 -1.974,0.799 -0.267,1.468 -2.45,3.071 -4.514,4.285 0.033,0.002 0.058,0.003 0.09,0.005 -2.013,-0.11 -5.862,-0.281 -8.112,-0.131 -3.143,0.209 -7.963,3.563 -11.736,3.563 -3.771,0 0.211,-4.401 1.047,-9.642 0.84,-5.238 -7.333,1.887 -9.01,3.774 -1.676,1.886 -1.468,-7.126 -1.468,-12.576 0,-5.451 -6.706,-1.046 -10.477,2.097 -3.367,2.806 -5.746,3.439 -12.473,3.543 6.181,-15.347 11.832,-14.828 18.671,-19.299 3.49,-6.69 26.177,-18.616 32.867,-22.107 7.854,-6.98 14.253,-10.18 20.362,-11.343 6.108,-1.163 6.69,-0.29 8.144,-4.073 1.454,-3.781 -7.272,-14.833 -7.272,-14.833 l -1.621,-2.315 c 0.758,-1.619 1.477,-3.238 2.494,-3.648 5.823,-2.357 10.035,11.198 10.035,11.198 0,0 -0.013,-0.108 -0.03,-0.288 0.277,0.618 0.559,1.224 0.845,1.795 0,3.904 5.725,11.971 6.245,15.092" /></g><g
                 id="g34"
                 transform="translate(796.3062,260.4824)"><path
                   id="path32"
                   style="fill:none;stroke:#262626;stroke-width:1;stroke-linecap:butt;stroke-linejoin:miter;stroke-miterlimit:10;stroke-dasharray:none;stroke-opacity:1"
                   d="m 0,0 c 0.52,3.124 2.082,16.914 2.082,20.296 0,3.383 -4.684,2.08 -7.025,2.343 -2.341,0.26 -1.302,4.163 -1.302,4.163 0,0 -5.204,-1.562 -6.505,-1.043 -1.301,0.521 -1.822,4.165 -1.822,4.165 0,0 -4.162,0 -4.423,1.301 -0.26,1.301 -0.26,2.601 -3.903,6.505 -3.643,3.902 -4.684,7.805 -6.245,13.53 -0.877,-0.146 -2.083,1.432 -2.97,2.844 -0.828,-0.848 -1.651,-0.977 -1.974,0.799 -0.267,1.468 -2.45,3.071 -4.514,4.285 0.033,0.002 0.058,0.003 0.09,0.005 -2.013,-0.11 -5.862,-0.281 -8.112,-0.131 -3.143,0.209 -7.963,3.563 -11.736,3.563 -3.771,0 0.211,-4.401 1.047,-9.642 0.84,-5.238 -7.333,1.887 -9.01,3.774 -1.676,1.886 -1.468,-7.126 -1.468,-12.576 0,-5.451 -6.706,-1.046 -10.477,2.097 -3.367,2.806 -5.746,3.439 -12.473,3.543 6.181,-15.347 11.832,-14.828 18.671,-19.299 3.49,-6.69 26.177,-18.616 32.867,-22.107 7.854,-6.98 14.253,-10.18 20.362,-11.343 6.108,-1.163 6.69,-0.29 8.144,-4.073 1.454,-3.781 -7.272,-14.833 -7.272,-14.833 l -1.621,-2.315 c 0.758,-1.619 1.477,-3.238 2.494,-3.648 5.823,-2.357 10.035,11.198 10.035,11.198 0,0 -0.013,-0.108 -0.03,-0.288 0.277,0.618 0.559,1.224 0.845,1.795 0,3.904 5.725,11.971 6.245,15.092 z" /></g></g></g></g><g
           id="g40"><g
             id="g42" /><g
             id="g58"><g
               id="g56"
               clip-path="url(#clipPath46)"><g
                 id="g50"
                 transform="translate(779.3076,229.4375)"><path
                   id="path48"
                   style="fill:#c92f2f;fill-opacity:1;fill-rule:nonzero;stroke:none"
                   d="m 0,0 c 0,0 -3.296,-0.971 -2.521,-2.716 0.776,-1.744 3.297,-4.071 5.624,-3.296 2.327,0.777 4.072,3.685 3.49,5.041 C 6.012,0.388 0.582,0.389 0,0" /></g><g
                 id="g54"
                 transform="translate(779.3076,229.4375)"><path
                   id="path52"
                   style="fill:none;stroke:#262626;stroke-width:1;stroke-linecap:butt;stroke-linejoin:miter;stroke-miterlimit:10;stroke-dasharray:none;stroke-opacity:1"
                   d="m 0,0 c 0,0 -3.296,-0.971 -2.521,-2.716 0.776,-1.744 3.297,-4.071 5.624,-3.296 2.327,0.777 4.072,3.685 3.49,5.041 C 6.012,0.388 0.582,0.389 0,0 Z" /></g></g></g></g></g></g></g></svg>