<?xml version="1.0" encoding="UTF-8" standalone="no"?>
<svg
   xmlns:dc="http://purl.org/dc/elements/1.1/"
   xmlns:cc="http://creativecommons.org/ns#"
   xmlns:rdf="http://www.w3.org/1999/02/22-rdf-syntax-ns#"
   xmlns:svg="http://www.w3.org/2000/svg"
   xmlns="http://www.w3.org/2000/svg"
   viewBox="0 0 2537.3333 1305.3333"
   height="1305.3333"
   width="2537.3333"
   xml:space="preserve"
   id="svg2"
   version="1.1"><metadata
     id="metadata8"><rdf:RDF><cc:Work
         rdf:about=""><dc:format>image/svg+xml</dc:format><dc:type
           rdf:resource="http://purl.org/dc/dcmitype/StillImage" /></cc:Work></rdf:RDF></metadata><defs
     id="defs6"><clipPath
       id="clipPath18"
       clipPathUnits="userSpaceOnUse"><path
         id="path16"
         d="M 0,979 H 1903 V 0 H 0 Z" /></clipPath><clipPath
       id="clipPath26"
       clipPathUnits="userSpaceOnUse"><path
         id="path24"
         d="m 588.722,540.067 h 97.78 V 404.711 h -97.78 z" /></clipPath></defs><g
     transform="matrix(1.3333333,0,0,-1.3333333,0,1305.3333)"
     id="g10"><g
       id="g12"><g
         clip-path="url(#clipPath18)"
         id="g14"><g
           id="g20"><g
             id="g22" /><g
             id="g38"><g
               id="g36"
               clip-path="url(#clipPath26)"><g
                 id="g30"
                 transform="translate(610.3174,427.4736)"><path
                   id="path28"
                   style="fill:#c92f2f;fill-opacity:1;fill-rule:nonzero;stroke:none"
                   d="m 0,0 c 3.144,-5.239 9.85,-6.706 17.604,-10.059 7.754,-3.352 9.64,-7.335 12.784,-7.753 3.143,-0.42 3.143,1.047 7.963,1.467 4.821,0.417 12.576,-5.87 12.576,-5.87 0,0 10.268,2.724 10.268,4.403 0,1.675 -2.305,9.22 -2.305,9.22 0,0 0.26,0.066 0.689,0.162 -0.63,3.226 -1.187,6.74 -1.527,10.318 -1.258,13.204 -1.677,14.252 -2.515,17.184 -0.839,2.936 3.772,5.657 4.82,6.917 1.047,1.257 4.401,5.867 1.047,8.592 -3.353,2.726 -2.096,2.097 -1.047,5.868 1.047,3.773 4.611,3.984 7.125,3.143 1.434,-0.477 5.178,1.496 8.137,3.281 -0.644,2.937 -1.149,5.779 -1.222,8.036 -0.21,6.496 -1.048,5.029 -5.868,3.983 -4.821,-1.049 -5.658,4.19 -6.707,8.38 -1.048,4.192 -2.095,4.613 -3.981,5.869 0,0.355 0.058,0.732 0.144,1.117 l -2.239,1.19 -2.724,5.448 -3.354,3.983 -1.466,7.335 -6.077,0.838 c 0,0 -3.774,3.563 -3.564,4.82 0.209,1.258 4.611,3.982 6.077,4.401 1.468,0.42 -6.078,4.401 -7.545,6.078 -1.467,1.676 -11.735,2.515 -11.735,2.515 l -1.721,1.111 c -2.003,-1.613 -4.432,-2.615 -6.724,-2.997 -5.201,-0.867 -6.356,-2.889 -6.356,-3.467 0,-0.577 0,-4.622 -2.311,-7.944 C 5.935,94.246 -0.998,89.77 -5.766,85.292 -10.532,80.814 -7.354,62.903 -7.354,56.837 c 0,-6.066 -4.477,-5.056 -6.933,-5.923 -2.415,-0.853 -5.802,-3.655 -5.912,-3.748 0.001,0.017 -0.088,0.05 -0.719,0.092 0.981,-3.41 1.932,-6.536 2.476,-7.857 1.467,-3.562 1.467,-5.239 1.467,-9.43 0,-4.191 0.419,-8.383 3.143,-11.947 2.283,-2.982 4.256,-4.219 5.211,-6.754 C -4.336,10.746 -3.051,5.083 0,0" /></g><g
                 id="g34"
                 transform="translate(610.3174,427.4736)"><path
                   id="path32"
                   style="fill:none;stroke:#262626;stroke-width:1;stroke-linecap:butt;stroke-linejoin:miter;stroke-miterlimit:10;stroke-dasharray:none;stroke-opacity:1"
                   d="m 0,0 c 3.144,-5.239 9.85,-6.706 17.604,-10.059 7.754,-3.352 9.64,-7.335 12.784,-7.753 3.143,-0.42 3.143,1.047 7.963,1.467 4.821,0.417 12.576,-5.87 12.576,-5.87 0,0 10.268,2.724 10.268,4.403 0,1.675 -2.305,9.22 -2.305,9.22 0,0 0.26,0.066 0.689,0.162 -0.63,3.226 -1.187,6.74 -1.527,10.318 -1.258,13.204 -1.677,14.252 -2.515,17.184 -0.839,2.936 3.772,5.657 4.82,6.917 1.047,1.257 4.401,5.867 1.047,8.592 -3.353,2.726 -2.096,2.097 -1.047,5.868 1.047,3.773 4.611,3.984 7.125,3.143 1.434,-0.477 5.178,1.496 8.137,3.281 -0.644,2.937 -1.149,5.779 -1.222,8.036 -0.21,6.496 -1.048,5.029 -5.868,3.983 -4.821,-1.049 -5.658,4.19 -6.707,8.38 -1.048,4.192 -2.095,4.613 -3.981,5.869 0,0.355 0.058,0.732 0.144,1.117 l -2.239,1.19 -2.724,5.448 -3.354,3.983 -1.466,7.335 -6.077,0.838 c 0,0 -3.774,3.563 -3.564,4.82 0.209,1.258 4.611,3.982 6.077,4.401 1.468,0.42 -6.078,4.401 -7.545,6.078 -1.467,1.676 -11.735,2.515 -11.735,2.515 l -1.721,1.111 c -2.003,-1.613 -4.432,-2.615 -6.724,-2.997 -5.201,-0.867 -6.356,-2.889 -6.356,-3.467 0,-0.577 0,-4.622 -2.311,-7.944 C 5.935,94.246 -0.998,89.77 -5.766,85.292 -10.532,80.814 -7.354,62.903 -7.354,56.837 c 0,-6.066 -4.477,-5.056 -6.933,-5.923 -2.415,-0.853 -5.802,-3.655 -5.912,-3.748 0.001,0.017 -0.088,0.05 -0.719,0.092 0.981,-3.41 1.932,-6.536 2.476,-7.857 1.467,-3.562 1.467,-5.239 1.467,-9.43 0,-4.191 0.419,-8.383 3.143,-11.947 2.283,-2.982 4.256,-4.219 5.211,-6.754 C -4.336,10.746 -3.051,5.083 0,0 Z" /></g></g></g></g></g></g></g></svg>