<?xml version="1.0" encoding="UTF-8" standalone="no"?>
<svg
   xmlns:dc="http://purl.org/dc/elements/1.1/"
   xmlns:cc="http://creativecommons.org/ns#"
   xmlns:rdf="http://www.w3.org/1999/02/22-rdf-syntax-ns#"
   xmlns:svg="http://www.w3.org/2000/svg"
   xmlns="http://www.w3.org/2000/svg"
   viewBox="0 0 2537.3333 1305.3333"
   height="1305.3333"
   width="2537.3333"
   xml:space="preserve"
   id="svg2"
   version="1.1"><metadata
     id="metadata8"><rdf:RDF><cc:Work
         rdf:about=""><dc:format>image/svg+xml</dc:format><dc:type
           rdf:resource="http://purl.org/dc/dcmitype/StillImage" /></cc:Work></rdf:RDF></metadata><defs
     id="defs6"><clipPath
       id="clipPath18"
       clipPathUnits="userSpaceOnUse"><path
         id="path16"
         d="M 0,979 H 1903 V 0 H 0 Z" /></clipPath><clipPath
       id="clipPath26"
       clipPathUnits="userSpaceOnUse"><path
         id="path24"
         d="M 334.34,595.293 H 619.426 V 354.489 H 334.34 Z" /></clipPath></defs><g
     transform="matrix(1.3333333,0,0,-1.3333333,0,1305.3333)"
     id="g10"><g
       id="g12"><g
         clip-path="url(#clipPath18)"
         id="g14"><g
           id="g20"><g
             id="g22" /><g
             id="g38"><g
               id="g36"
               clip-path="url(#clipPath26)"><g
                 id="g30"
                 transform="translate(583.4585,359.0898)"><path
                   id="path28"
                   style="fill:#c92f2f;fill-opacity:1;fill-rule:nonzero;stroke:none"
                   d="m 0,0 c 3.756,1.986 6.919,3.709 9.739,5.08 -0.098,1.647 -0.457,8.217 -0.275,12.589 0.21,5.029 11.107,1.468 18.442,-0.419 2.095,2.305 7.335,4.4 7.335,4.4 0,0 0.629,4.611 -0.209,11.528 -3.983,3.561 -8.174,11.315 -9.85,14.25 -1.677,2.934 -8.594,13.833 -10.479,16.346 -1.887,2.516 -1.257,4.612 -1.257,8.802 0,4.192 4.4,7.128 4.4,7.128 0.136,-0.007 0.261,-0.034 0.392,-0.051 -0.955,2.535 -2.928,3.773 -5.211,6.755 -2.724,3.564 -3.143,7.756 -3.143,11.946 0,4.192 0,5.869 -1.467,9.431 -0.544,1.32 -1.495,4.446 -2.476,7.857 -0.775,0.053 -2.369,0.122 -5.647,0.191 -6.934,0.144 -6.355,4.043 -6.935,8.232 -0.577,4.189 -1.298,4.622 -1.876,4.189 -0.578,-0.434 -3.323,-2.166 -7.366,-2.889 -4.046,-0.722 -6.212,2.6 -10.401,3.611 -4.189,1.011 -10.4,0.867 -12.422,-5.489 -2.023,-6.355 -5.344,-4.333 -8.234,-4.333 -2.889,0 -17.478,5.633 -23.255,8.811 -5.78,3.179 -4.478,8.523 -4.478,16.899 0,8.379 2.31,16.323 6.355,22.101 4.044,5.778 -0.145,9.677 -5.489,12.423 -5.343,2.743 -9.244,-1.301 -12.278,-4.334 -3.032,-3.034 -4.911,-3.9 -7.943,-2.456 -4.479,3.467 -4.191,1.589 -7.512,-1.3 -3.323,-2.889 -12.71,-0.433 -16.322,3.178 -2.894,2.894 -12.373,8.383 -16.021,10.449 1.017,0.663 2.069,1.003 3.596,1.262 -3.387,-0.568 -4.441,-1.538 -7.975,-5.579 -4.073,-4.653 -7.758,-2.521 -9.309,0.582 -1.55,3.103 -4.654,9.89 -9.502,15.514 -4.848,5.622 -7.175,7.756 -7.756,8.531 -0.583,0.774 -1.551,3.102 0,5.623 1.552,2.521 0.969,6.399 -1.164,6.399 -2.132,0 -3.102,1.553 -3.295,4.849 -0.195,3.295 -6.595,6.593 -11.248,10.278 -4.654,3.684 -8.726,3.684 -12.41,2.908 -3.684,-0.776 -5.43,-10.665 -5.625,-7.563 l -1.032,-0.152 c 0,0 -3.049,-2.254 -0.882,-10.343 2.167,-8.088 6.5,-18.056 7.077,-23.833 0.577,-5.779 2.889,-13.433 3.033,-17.334 0.145,-3.9 -4.045,-4.333 -4.478,-7.366 -0.432,-3.034 3.611,-15.311 -3.321,-16.034 -6.933,-0.723 -7.8,-0.289 -9.824,-3.756 -2.021,-3.467 0.58,-11.411 -10.109,-11.411 -10.691,0 -5.056,-5.344 -3.902,-7.945 1.157,-2.6 -1.299,-7.944 1.59,-10.255 2.889,-2.311 13,-0.433 8.812,-9.822 -4.19,-9.39 -7.224,-19.645 -5.634,-25.422 1.588,-5.779 4.333,-9.389 -1.3,-7.077 -5.633,2.311 -15.744,11.989 -16.034,2.456 -0.289,-9.536 6.646,-8.235 -4.477,-13.722 -11.123,-5.489 -9.718,-9.125 -9.244,-13.579 0.155,-1.464 0.552,-3.369 1.015,-5.269 -0.198,0.296 -0.382,0.574 -0.543,0.815 3.491,-5.235 15.416,-24.142 37.231,-15.705 5.237,-2.909 18.324,-12.508 22.689,-13.089 4.362,-0.582 8.726,-1.165 11.634,-4.657 2.909,-3.489 6.69,-5.234 6.69,-5.234 0,0 5.816,6.399 9.889,17.743 4.073,7.854 15.706,17.743 21.234,18.908 5.525,1.163 25.015,0.872 25.015,0.872 0,0 10.471,10.471 17.161,8.144 6.69,-2.327 48.284,-31.124 48.284,-31.124 0,0 22.979,-18.033 23.561,-19.488 0,0 0.352,-0.807 0.349,-1.993 2.188,-1.798 5.365,-4.313 6.601,-4.806 C -15.52,-3.535 -10.412,-6.481 0,0" /></g><g
                 id="g34"
                 transform="translate(583.4585,359.0898)"><path
                   id="path32"
                   style="fill:none;stroke:#262626;stroke-width:1;stroke-linecap:butt;stroke-linejoin:miter;stroke-miterlimit:10;stroke-dasharray:none;stroke-opacity:1"
                   d="m 0,0 c 3.756,1.986 6.919,3.709 9.739,5.08 -0.098,1.647 -0.457,8.217 -0.275,12.589 0.21,5.029 11.107,1.468 18.442,-0.419 2.095,2.305 7.335,4.4 7.335,4.4 0,0 0.629,4.611 -0.209,11.528 -3.983,3.561 -8.174,11.315 -9.85,14.25 -1.677,2.934 -8.594,13.833 -10.479,16.346 -1.887,2.516 -1.257,4.612 -1.257,8.802 0,4.192 4.4,7.128 4.4,7.128 0.136,-0.007 0.261,-0.034 0.392,-0.051 -0.955,2.535 -2.928,3.773 -5.211,6.755 -2.724,3.564 -3.143,7.756 -3.143,11.946 0,4.192 0,5.869 -1.467,9.431 -0.544,1.32 -1.495,4.446 -2.476,7.857 -0.775,0.053 -2.369,0.122 -5.647,0.191 -6.934,0.144 -6.355,4.043 -6.935,8.232 -0.577,4.189 -1.298,4.622 -1.876,4.189 -0.578,-0.434 -3.323,-2.166 -7.366,-2.889 -4.046,-0.722 -6.212,2.6 -10.401,3.611 -4.189,1.011 -10.4,0.867 -12.422,-5.489 -2.023,-6.355 -5.344,-4.333 -8.234,-4.333 -2.889,0 -17.478,5.633 -23.255,8.811 -5.78,3.179 -4.478,8.523 -4.478,16.899 0,8.379 2.31,16.323 6.355,22.101 4.044,5.778 -0.145,9.677 -5.489,12.423 -5.343,2.743 -9.244,-1.301 -12.278,-4.334 -3.032,-3.034 -4.911,-3.9 -7.943,-2.456 -4.479,3.467 -4.191,1.589 -7.512,-1.3 -3.323,-2.889 -12.71,-0.433 -16.322,3.178 -2.894,2.894 -12.373,8.383 -16.021,10.449 1.017,0.663 2.069,1.003 3.596,1.262 -3.387,-0.568 -4.441,-1.538 -7.975,-5.579 -4.073,-4.653 -7.758,-2.521 -9.309,0.582 -1.55,3.103 -4.654,9.89 -9.502,15.514 -4.848,5.622 -7.175,7.756 -7.756,8.531 -0.583,0.774 -1.551,3.102 0,5.623 1.552,2.521 0.969,6.399 -1.164,6.399 -2.132,0 -3.102,1.553 -3.295,4.849 -0.195,3.295 -6.595,6.593 -11.248,10.278 -4.654,3.684 -8.726,3.684 -12.41,2.908 -3.684,-0.776 -5.43,-10.665 -5.625,-7.563 l -1.032,-0.152 c 0,0 -3.049,-2.254 -0.882,-10.343 2.167,-8.088 6.5,-18.056 7.077,-23.833 0.577,-5.779 2.889,-13.433 3.033,-17.334 0.145,-3.9 -4.045,-4.333 -4.478,-7.366 -0.432,-3.034 3.611,-15.311 -3.321,-16.034 -6.933,-0.723 -7.8,-0.289 -9.824,-3.756 -2.021,-3.467 0.58,-11.411 -10.109,-11.411 -10.691,0 -5.056,-5.344 -3.902,-7.945 1.157,-2.6 -1.299,-7.944 1.59,-10.255 2.889,-2.311 13,-0.433 8.812,-9.822 -4.19,-9.39 -7.224,-19.645 -5.634,-25.422 1.588,-5.779 4.333,-9.389 -1.3,-7.077 -5.633,2.311 -15.744,11.989 -16.034,2.456 -0.289,-9.536 6.646,-8.235 -4.477,-13.722 -11.123,-5.489 -9.718,-9.125 -9.244,-13.579 0.155,-1.464 0.552,-3.369 1.015,-5.269 -0.198,0.296 -0.382,0.574 -0.543,0.815 3.491,-5.235 15.416,-24.142 37.231,-15.705 5.237,-2.909 18.324,-12.508 22.689,-13.089 4.362,-0.582 8.726,-1.165 11.634,-4.657 2.909,-3.489 6.69,-5.234 6.69,-5.234 0,0 5.816,6.399 9.889,17.743 4.073,7.854 15.706,17.743 21.234,18.908 5.525,1.163 25.015,0.872 25.015,0.872 0,0 10.471,10.471 17.161,8.144 6.69,-2.327 48.284,-31.124 48.284,-31.124 0,0 22.979,-18.033 23.561,-19.488 0,0 0.352,-0.807 0.349,-1.993 2.188,-1.798 5.365,-4.313 6.601,-4.806 C -15.52,-3.535 -10.412,-6.481 0,0 Z" /></g></g></g></g></g></g></g></svg>