<?xml version="1.0" encoding="UTF-8" standalone="no"?>
<svg
   xmlns:dc="http://purl.org/dc/elements/1.1/"
   xmlns:cc="http://creativecommons.org/ns#"
   xmlns:rdf="http://www.w3.org/1999/02/22-rdf-syntax-ns#"
   xmlns:svg="http://www.w3.org/2000/svg"
   xmlns="http://www.w3.org/2000/svg"
   viewBox="0 0 2537.3333 1305.3333"
   height="1305.3333"
   width="2537.3333"
   xml:space="preserve"
   id="svg2"
   version="1.1"><metadata
     id="metadata8"><rdf:RDF><cc:Work
         rdf:about=""><dc:format>image/svg+xml</dc:format><dc:type
           rdf:resource="http://purl.org/dc/dcmitype/StillImage" /></cc:Work></rdf:RDF></metadata><defs
     id="defs6"><clipPath
       id="clipPath18"
       clipPathUnits="userSpaceOnUse"><path
         id="path16"
         d="M 0,979 H 1903 V 0 H 0 Z" /></clipPath><clipPath
       id="clipPath26"
       clipPathUnits="userSpaceOnUse"><path
         id="path24"
         d="m 448.104,636.48 h 193.51 V 473.537 h -193.51 z" /></clipPath></defs><g
     transform="matrix(1.3333333,0,0,-1.3333333,0,1305.3333)"
     id="g10"><g
       id="g12"><g
         clip-path="url(#clipPath18)"
         id="g14"><g
           id="g20"><g
             id="g22" /><g
             id="g38"><g
               id="g36"
               clip-path="url(#clipPath26)"><g
                 id="g30"
                 transform="translate(634.3076,564.042)"><path
                   id="path28"
                   style="fill:#c92f2f;fill-opacity:1;fill-rule:nonzero;stroke:none"
                   d="m 0,0 c -2.744,4.767 -7.366,14.732 -13,15.889 -0.578,7.077 0.289,10.111 -13.433,17.622 -5.056,3.32 -9.533,7.511 -7.367,21.811 -4.333,-0.434 -4.766,-1.445 -6.933,-3.613 -2.167,-2.166 -2.745,-1.011 -4.621,0.29 -1.879,1.3 -15.746,16.611 -20.512,19.066 -4.767,2.456 -9.1,-0.144 -9.389,-9.387 2.166,-1.012 2.599,-0.723 2.456,-6.212 -0.145,-5.489 -5.201,-6.356 -5.345,-9.822 -0.145,-3.466 1.156,-9.391 -2.167,-9.536 -3.321,-0.143 -8.811,6.935 -10.833,9.535 -2.022,2.6 -9.533,11.7 -11.988,9.822 -2.456,-1.878 -1.735,-3.756 -1.59,-7.51 0.145,-3.757 2.89,-5.777 -4.477,-7.366 -1.733,-0.579 -3.322,-1.59 -1.445,-5.203 1.878,-3.609 9.246,-13.431 7.079,-18.631 -2.166,-5.201 -5.922,-10.255 -7.511,-9.967 -1.59,0.29 -2.745,2.745 -6.501,4.045 -3.755,1.3 -7.944,-0.29 -9.099,1.3 -1.156,1.589 -5.489,5.777 -6.212,3.899 -0.723,-1.878 -0.433,-6.644 -0.433,-7.51 0,-0.867 0.578,-2.455 -3.612,-2.311 -4.188,0.144 -15.166,3.466 -17.766,4.622 -2.601,1.155 -2.023,0.577 -5.345,0.434 -2.927,-0.129 -8.433,3.895 -11.578,8.018 -1.565,-2.817 -8.082,-5.793 -11.867,-7.754 -5.235,-2.715 -0.387,-8.921 6.206,-18.616 6.592,-9.695 2.715,-10.858 -2.134,-11.441 -2.535,-0.305 -3.956,-0.615 -5.315,-1.501 3.648,-2.066 13.127,-7.555 16.021,-10.45 3.611,-3.61 12.999,-6.066 16.322,-3.177 3.321,2.889 3.033,4.767 7.512,1.3 3.032,-1.444 4.911,-0.578 7.943,2.456 3.034,3.033 6.935,7.077 12.278,4.334 5.344,-2.746 9.533,-6.645 5.489,-12.423 -4.045,-5.778 -6.355,-13.722 -6.355,-22.101 0,-8.376 -1.302,-13.721 4.478,-16.899 5.776,-3.178 20.366,-8.811 23.255,-8.811 2.89,0 6.211,-2.022 8.234,4.333 2.022,6.356 8.233,6.5 12.422,5.488 4.189,-1.01 6.355,-4.333 10.401,-3.61 4.043,0.723 6.788,2.455 7.366,2.889 0.578,0.433 1.299,0 1.876,-4.189 0.58,-4.189 0.001,-8.089 6.935,-8.232 5.952,-0.126 6.367,-0.249 6.366,-0.283 0.109,0.092 3.497,2.894 5.912,3.748 2.456,0.867 6.933,-0.144 6.933,5.923 0,6.066 -3.178,23.977 1.588,28.455 4.768,4.478 11.7,8.954 14.012,12.276 2.31,3.323 2.31,7.367 2.31,7.945 0,0.577 1.156,2.599 6.357,3.467 5.2,0.866 11.121,4.91 11.121,12.133 0,7.223 2.168,7.655 2.168,7.655 0,0 -3.467,3.033 -6.212,7.8" /></g><g
                 id="g34"
                 transform="translate(634.3076,564.042)"><path
                   id="path32"
                   style="fill:none;stroke:#262626;stroke-width:1;stroke-linecap:butt;stroke-linejoin:miter;stroke-miterlimit:10;stroke-dasharray:none;stroke-opacity:1"
                   d="m 0,0 c -2.744,4.767 -7.366,14.732 -13,15.889 -0.578,7.077 0.289,10.111 -13.433,17.622 -5.056,3.32 -9.533,7.511 -7.367,21.811 -4.333,-0.434 -4.766,-1.445 -6.933,-3.613 -2.167,-2.166 -2.745,-1.011 -4.621,0.29 -1.879,1.3 -15.746,16.611 -20.512,19.066 -4.767,2.456 -9.1,-0.144 -9.389,-9.387 2.166,-1.012 2.599,-0.723 2.456,-6.212 -0.145,-5.489 -5.201,-6.356 -5.345,-9.822 -0.145,-3.466 1.156,-9.391 -2.167,-9.536 -3.321,-0.143 -8.811,6.935 -10.833,9.535 -2.022,2.6 -9.533,11.7 -11.988,9.822 -2.456,-1.878 -1.735,-3.756 -1.59,-7.51 0.145,-3.757 2.89,-5.777 -4.477,-7.366 -1.733,-0.579 -3.322,-1.59 -1.445,-5.203 1.878,-3.609 9.246,-13.431 7.079,-18.631 -2.166,-5.201 -5.922,-10.255 -7.511,-9.967 -1.59,0.29 -2.745,2.745 -6.501,4.045 -3.755,1.3 -7.944,-0.29 -9.099,1.3 -1.156,1.589 -5.489,5.777 -6.212,3.899 -0.723,-1.878 -0.433,-6.644 -0.433,-7.51 0,-0.867 0.578,-2.455 -3.612,-2.311 -4.188,0.144 -15.166,3.466 -17.766,4.622 -2.601,1.155 -2.023,0.577 -5.345,0.434 -2.927,-0.129 -8.433,3.895 -11.578,8.018 -1.565,-2.817 -8.082,-5.793 -11.867,-7.754 -5.235,-2.715 -0.387,-8.921 6.206,-18.616 6.592,-9.695 2.715,-10.858 -2.134,-11.441 -2.535,-0.305 -3.956,-0.615 -5.315,-1.501 3.648,-2.066 13.127,-7.555 16.021,-10.45 3.611,-3.61 12.999,-6.066 16.322,-3.177 3.321,2.889 3.033,4.767 7.512,1.3 3.032,-1.444 4.911,-0.578 7.943,2.456 3.034,3.033 6.935,7.077 12.278,4.334 5.344,-2.746 9.533,-6.645 5.489,-12.423 -4.045,-5.778 -6.355,-13.722 -6.355,-22.101 0,-8.376 -1.302,-13.721 4.478,-16.899 5.776,-3.178 20.366,-8.811 23.255,-8.811 2.89,0 6.211,-2.022 8.234,4.333 2.022,6.356 8.233,6.5 12.422,5.488 4.189,-1.01 6.355,-4.333 10.401,-3.61 4.043,0.723 6.788,2.455 7.366,2.889 0.578,0.433 1.299,0 1.876,-4.189 0.58,-4.189 0.001,-8.089 6.935,-8.232 5.952,-0.126 6.367,-0.249 6.366,-0.283 0.109,0.092 3.497,2.894 5.912,3.748 2.456,0.867 6.933,-0.144 6.933,5.923 0,6.066 -3.178,23.977 1.588,28.455 4.768,4.478 11.7,8.954 14.012,12.276 2.31,3.323 2.31,7.367 2.31,7.945 0,0.577 1.156,2.599 6.357,3.467 5.2,0.866 11.121,4.91 11.121,12.133 0,7.223 2.168,7.655 2.168,7.655 0,0 -3.467,3.033 -6.212,7.8 z" /></g></g></g></g></g></g></g></svg>