<?xml version="1.0" encoding="UTF-8" standalone="no"?>
<svg
   xmlns:dc="http://purl.org/dc/elements/1.1/"
   xmlns:cc="http://creativecommons.org/ns#"
   xmlns:rdf="http://www.w3.org/1999/02/22-rdf-syntax-ns#"
   xmlns:svg="http://www.w3.org/2000/svg"
   xmlns="http://www.w3.org/2000/svg"
   viewBox="0 0 42.666668 42.666668"
   height="42.666668"
   width="42.666668"
   xml:space="preserve"
   id="svg2"
   version="1.1"><metadata
     id="metadata8"><rdf:RDF><cc:Work
         rdf:about=""><dc:format>image/svg+xml</dc:format><dc:type
           rdf:resource="http://purl.org/dc/dcmitype/StillImage" /></cc:Work></rdf:RDF></metadata><defs
     id="defs6"><clipPath
       id="clipPath18"
       clipPathUnits="userSpaceOnUse"><path
         id="path16"
         d="M 0,32 H 32 V 0 H 0 Z" /></clipPath></defs><g
     transform="matrix(1.3333333,0,0,-1.3333333,0,42.666667)"
     id="g10"><g
       id="g12"><g
         clip-path="url(#clipPath18)"
         id="g14"><g
           transform="translate(16,15.1846)"
           id="g20"><path
             id="path22"
             style="fill:#ffffff;fill-opacity:1;fill-rule:nonzero;stroke:none"
             d="m 0,0 c -3.507,0 -6.343,2.837 -6.343,6.344 0,3.506 2.836,6.343 6.343,6.343 3.507,0 6.344,-2.837 6.344,-6.343 C 6.344,2.837 3.507,0 0,0 m 0,16.663 c -5.707,0 -10.319,-4.613 -10.319,-10.319 0,-7.326 10.319,-21.376 10.319,-21.376 0,0 10.319,14.05 10.319,21.376 C 10.33,12.05 5.707,16.663 0,16.663" /></g></g></g></g></svg>