<?xml version="1.0" encoding="UTF-8" standalone="no"?>
<svg
   xmlns:dc="http://purl.org/dc/elements/1.1/"
   xmlns:cc="http://creativecommons.org/ns#"
   xmlns:rdf="http://www.w3.org/1999/02/22-rdf-syntax-ns#"
   xmlns:svg="http://www.w3.org/2000/svg"
   xmlns="http://www.w3.org/2000/svg"
   viewBox="0 0 42.666668 42.666668"
   height="42.666668"
   width="42.666668"
   xml:space="preserve"
   id="svg2"
   version="1.1"><metadata
     id="metadata8"><rdf:RDF><cc:Work
         rdf:about=""><dc:format>image/svg+xml</dc:format><dc:type
           rdf:resource="http://purl.org/dc/dcmitype/StillImage" /></cc:Work></rdf:RDF></metadata><defs
     id="defs6"><clipPath
       id="clipPath18"
       clipPathUnits="userSpaceOnUse"><path
         id="path16"
         d="M 0,32 H 32 V 0 H 0 Z" /></clipPath></defs><g
     transform="matrix(1.3333333,0,0,-1.3333333,0,42.666667)"
     id="g10"><g
       id="g12"><g
         clip-path="url(#clipPath18)"
         id="g14"><g
           transform="translate(26.8135,16)"
           id="g20"><path
             id="path22"
             style="fill:#808080;fill-opacity:1;fill-rule:nonzero;stroke:none"
             d="m 0,0 c 0,-6.075 -4.925,-11 -11,-11 -6.075,0 -11,4.925 -11,11 0,6.075 4.925,11 11,11 C -4.925,11 0,6.075 0,0" /></g><g
           transform="translate(24.8994,16)"
           id="g24"><path
             id="path26"
             style="fill:#ffffff;fill-opacity:1;fill-rule:nonzero;stroke:none"
             d="m 0,0 c 0,-5.018 -4.068,-9.085 -9.085,-9.085 -5.018,0 -9.085,4.067 -9.085,9.085 0,5.018 4.067,9.085 9.085,9.085 C -4.068,9.085 0,5.018 0,0" /></g><g
           transform="translate(11.4258,11.6113)"
           id="g28"><path
             id="path30"
             style="fill:none;stroke:#808080;stroke-width:1;stroke-linecap:butt;stroke-linejoin:miter;stroke-miterlimit:10;stroke-dasharray:none;stroke-opacity:1"
             d="m 0,0 4.388,4.389 v 7.319" /></g><g
           transform="translate(9.4062,23.7217)"
           id="g32"><path
             id="path34"
             style="fill:#808080;fill-opacity:1;fill-rule:nonzero;stroke:none"
             d="m 0,0 -0.963,-0.963 c -0.415,-0.415 -1.089,-0.415 -1.504,0 l -0.271,0.271 c -0.416,0.415 -0.416,1.089 0,1.504 l 0.963,0.963 c 0.415,0.415 1.089,0.415 1.504,0 L 0,1.504 C 0.416,1.089 0.416,0.415 0,0" /></g><g
           transform="translate(23.1846,22.7588)"
           id="g36"><path
             id="path38"
             style="fill:#808080;fill-opacity:1;fill-rule:nonzero;stroke:none"
             d="m 0,0 -0.963,0.963 c -0.416,0.415 -0.416,1.089 0,1.504 l 0.271,0.271 c 0.416,0.415 1.088,0.415 1.504,0 L 1.775,1.775 C 2.19,1.36 2.19,0.686 1.775,0.271 L 1.504,0 C 1.089,-0.416 0.415,-0.416 0,0" /></g><path
           id="path40"
           style="fill:#808080;fill-opacity:1;fill-rule:nonzero;stroke:none"
           d="m 17.596,25.66 h -3.563 v 2.766 h 3.563 z" /></g></g></g></svg>