<?xml version="1.0" encoding="UTF-8" standalone="no"?>
<svg
   xmlns:dc="http://purl.org/dc/elements/1.1/"
   xmlns:cc="http://creativecommons.org/ns#"
   xmlns:rdf="http://www.w3.org/1999/02/22-rdf-syntax-ns#"
   xmlns:svg="http://www.w3.org/2000/svg"
   xmlns="http://www.w3.org/2000/svg"
   viewBox="0 0 42.666668 42.666668"
   height="42.666668"
   width="42.666668"
   xml:space="preserve"
   id="svg2"
   version="1.1"><metadata
     id="metadata8"><rdf:RDF><cc:Work
         rdf:about=""><dc:format>image/svg+xml</dc:format><dc:type
           rdf:resource="http://purl.org/dc/dcmitype/StillImage" /></cc:Work></rdf:RDF></metadata><defs
     id="defs6"><clipPath
       id="clipPath18"
       clipPathUnits="userSpaceOnUse"><path
         id="path16"
         d="M 0,32 H 32 V 0 H 0 Z" /></clipPath></defs><g
     transform="matrix(1.3333333,0,0,-1.3333333,0,42.666667)"
     id="g10"><g
       id="g12"><g
         clip-path="url(#clipPath18)"
         id="g14"><g
           transform="translate(31.377,16)"
           id="g20"><path
             id="path22"
             style="fill:#808080;fill-opacity:1;fill-rule:nonzero;stroke:none"
             d="m 0,0 c -2.966,-5.439 -8.733,-9.128 -15.377,-9.128 -6.643,0 -12.411,3.689 -15.377,9.128 2.966,5.439 8.734,9.127 15.377,9.127 C -8.733,9.127 -2.966,5.439 0,0" /></g><g
           transform="translate(24.3301,16)"
           id="g24"><path
             id="path26"
             style="fill:#ffffff;fill-opacity:1;fill-rule:nonzero;stroke:none"
             d="m 0,0 c 0,-4.601 -3.729,-8.33 -8.33,-8.33 -4.601,0 -8.33,3.729 -8.33,8.33 0,4.601 3.729,8.33 8.33,8.33 C -3.729,8.33 0,4.601 0,0" /></g><g
           transform="translate(18.0215,18)"
           id="g28"><path
             id="path30"
             style="fill:#808080;fill-opacity:1;fill-rule:nonzero;stroke:none"
             d="m 0,0 c 0,-2.221 -1.801,-4.021 -4.021,-4.021 -2.221,0 -4.022,1.8 -4.022,4.021 0,2.221 1.801,4.021 4.022,4.021 C -1.801,4.021 0,2.221 0,0" /></g></g></g></g></svg>