<?xml version="1.0" encoding="utf-8"?>
<!-- Generator: Adobe Illustrator 23.1.0, SVG Export Plug-In . SVG Version: 6.00 Build 0)  -->
<svg version="1.1" id="Layer_1" xmlns="http://www.w3.org/2000/svg" xmlns:xlink="http://www.w3.org/1999/xlink" x="0px" y="0px"
	 viewBox="0 0 1903 979" style="enable-background:new 0 0 1903 979;" xml:space="preserve">
<style type="text/css">
	.st0{display:none;fill:#F1F1F1;}
	.st1{display:none;}
	.st2{display:inline;fill:#D7D1CD;}
	.st3{fill:#B5B5B5;stroke:#262626;stroke-width:0.25;stroke-miterlimit:10;}
	.st4{enable-background:new    ;}
	.st5{fill-rule:evenodd;clip-rule:evenodd;fill:#B5B5B5;stroke:#262626;stroke-width:0.25;stroke-miterlimit:10;}
	.st6{fill:#B5B5B5;}
</style>
<rect class="st0" width="1903" height="979"/>
<g class="st1">
	<path class="st2" d="M1444.5,970.5c0,0-0.8,3,1.8,1.8s1.3-0.3,1.3-3C1447.5,966.5,1446.8,969,1444.5,970.5z"/>
	<path class="st2" d="M1467.9,962.7c0,0-4.5,0.5-2,2.5c2.5,2,4-0.5,4-0.5S1469.7,962.2,1467.9,962.7z"/>
	<path class="st2" d="M1486.8,954.4c0,0-3.8,2.3-2,4.8s2.5,0.3,3-1.5C1488.3,955.9,1490.1,953.9,1486.8,954.4z"/>
</g>
<g>
	<g>
		<g>
			<path class="st3" d="M817.3,184.4c0,0-0.2-3-0.1-4.9c0.1-1.9,4.2-0.6,7,0.2c0.8-0.9,2.8-1.7,2.8-1.7s0.2-1.7-0.1-4.4
				c-1.5-1.4-3.1-4.3-3.7-5.4c-0.6-1.1-3.3-5.2-4-6.2c-0.7-0.9-0.5-1.7-0.5-3.3s1.7-2.7,1.7-2.7c1.7,0.1,2.2,2.3,3.4,4.3
				s3.7,2.5,6.7,3.8s3.7,2.8,4.8,2.9c1.2,0.2,1.2-0.4,3-0.6s4.8,2.2,4.8,2.2s3.9-1,3.9-1.7c0-0.6-0.9-3.5-0.9-3.5s4-1,7.1-0.4
				c3,0.6,2.2,2.1,2.9,2.1c0.7,0.1,1.7,0.8,2.1,1.5c0.4,0.7,0.3,1.7,0.8,3c0.5,1.3,0.6,1.9,0.9,1.7c0.2-0.2,2.5-1.2,2.5,0.1
				s0.2,1.1,2.1,3.9c2,2.8,2.6,4.5,3.3,9.7s1,5.3,1.1,6.1c0.1,0.8,0.7,0.4,2.2,0.2c1.5-0.2,1.8,2,1.8,2.5s1.7,1.2,2.5,1.2
				c0.8,0,2,1,2.2,2.6s2.3,3.4,2,3.4c-0.7,0-2.1,0.1-3,0.1c-1.2-0.1-3-1.4-4.4-1.4s0.1,1.7,0.4,3.6s-2.8-0.7-3.4-1.4
				c-0.6-0.7-0.6,2.7-0.6,4.8s-2.5,0.4-4-0.8c-1.4-1.2-2.4-1.4-5.7-1.4c-3.3,0-5.3-0.2-6.7-0.9c-1.3-0.7-7.4-2.5-9-3.1
				c-1.6-0.6-1.9-0.1-2.3-1.4c-0.4-1.3-1.7-3.3-2.1-3.6c-0.5-0.4-3.3-2.7-4.5-3.7s-1.3-1.2-2.2-0.5s-3.3,1.3-4.4,0.5
				c-1.2-0.8-2.9-0.5-3-3c-0.1-2.5-3-3.8-4.4-4.6C820.1,184.3,818.1,184.1,817.3,184.4z"/>
		</g>
		<g>
			<path class="st3" d="M914.5,159.9c-0.9-0.7,1.3-6.5,2-7.6c0.4-0.6,0.7-1,0.9-1.3c-1.1-0.5-2.6-1-3.6-0.9c-1.1,0.2-1.2,1.4-2,1.9
				c-0.8,0.6-2.5,1.4-3,0.5c-0.5-0.9-2.5-1.5-3.1-1.4c-0.6,0.2-0.2,5.2-0.2,5.2s-0.2,0-0.6,0c0,1.6-0.1,4-0.7,5.4
				c-1,2.3-1.1,2.9-1.1,2.9l-2,0.6c0,0-1.6,0.7-2,1.3s-1.6,3.4-2.7,3.8c-1.1,0.5-0.7,2-0.7,3.3s-0.1,3.6,1.5,4.6
				c1.6,1,2.4,2.5,2.7,3.7s1,2.2,2.5,2.1c1.5-0.1,0.9-0.6,3-0.4c2.1,0.2,5.2-0.5,5.3-0.9c0.1-0.4,1.9-1.2,3-0.9c1.2,0.3,0.9-1,1-1.4
				c0.1-0.4,0.2,0.1,1.3-0.2c1.1-0.3,1.1-1,1-2.3s0.1-3.6,1-3.6c0.9,0,1.5-0.5,1.3-2s-0.3-2.6,0.3-2.9c0.6-0.4,3.6-0.5,3.4-1.3
				c-0.3-0.8-1.2-1.6-1.2-2.3c0-0.7,0.3-1.4,1.6-2.1c0.4-0.2,0.7-0.7,1-1.2c-1.7-0.3-3.6-0.7-4.7-1.1
				C918.1,161.1,915.4,160.6,914.5,159.9z"/>
		</g>
		<g>
			<g>
				<path class="st3" d="M931.4,179.1c0,0-0.9-1.9-0.1-2.2c0.9-0.3,1.5,0.7,2.3,0.7c0.8,0,1.5-0.3,1.5-0.3l-2.9-3.2
					c0,0-1.3-0.7-0.8-2.1s1.8-2,1-4.8c0,0-5.7-3.1-7.3-4c0,0-0.5-0.2-0.9-0.4c-0.2,0.5-0.5,0.9-0.9,1.1c-1.3,0.7-1.6,1.4-1.6,2.1
					s0.9,1.5,1.2,2.3c0.3,0.8-2.8,0.9-3.4,1.3c-0.6,0.4-0.5,1.5-0.3,2.9c0.2,1.5-0.4,2-1.3,2c-0.9,0-1.1,2.4-1,3.6
					c0.1,1.3,0.1,2-1,2.3c-1.1,0.3-1.2-0.2-1.3,0.2c-0.1,0.4,0.2,1.7-1,1.4c-1.2-0.3-3,0.5-3,0.9c0,0.1-0.1,0.2-0.4,0.2
					c0.9,0.6,2,1.4,2.2,1.8c0.4,0.8,2,2.5,2,3.3s0,1.5,1.9,1.5s3.2-0.5,4.6-1.2c1-0.5,2.3-0.4,3.7,0.6l1.9,0.1c0,0,1.5-1.8,1.5-2.7
					c0-0.9,1.7-0.8,1.7-0.8s0.8-1.9,0.9-2.5c0.1-0.6,0.9-0.1,0.9-0.1s2.5-1.2,2.2-1.8C933.5,180.6,931.4,179.1,931.4,179.1z"/>
			</g>
			<path class="st3" d="M937.6,167.1c0,0-2.7,1.9-3.5,2c-0.7,0.1-1,1.1-1,2.4s1,2,2.1,2.9c1.2,0.9,3.2,2.9,3.5,3.1s1.2-0.9,0-2.4
				c-1.2-1.5-2-2.2-1-2.6s2.6-2.3,1.8-3.4C939,167.9,938.6,166.8,937.6,167.1z"/>
			<path class="st3" d="M941.2,169.5c0,0-1.6,0.7-0.7,1.8c0.9,1.2,1.8,1.1,1.8,0.1C942.3,170.4,942.1,169.4,941.2,169.5z"/>
			<path class="st3" d="M944.3,174.4c0,0-2.9,0.9-2.9,1.9c-0.1,0.9-1.5,2.1,0.3,2.3s2.5-0.3,2.5,1.1s0.7,2.1,1.9,2.4
				c1.3,0.3,1.2,0.4,1.5,1.3c0.3,0.9,2.6,2.4,2.6-0.1c0-2.6-0.2-1.3-0.7-1.8c-0.5-0.6,0.6-1,1.3-1.2c0.7-0.1,2.7-1.4,0.8-1.8
				c-1.7-0.3-2-1.4-2-1.7c0-0.3-1.5-0.6-2.3-0.5C946.4,176.2,946.3,174.3,944.3,174.4z"/>
		</g>
		<g>
			<g>
				<path class="st3" d="M921,188.4c-1.5,0.7-2.8,1.2-4.6,1.2s-1.9-0.7-1.9-1.5s-1.6-2.5-2-3.3c-0.2-0.4-1.3-1.2-2.2-1.8
					c-0.9,0.4-3.3,0.8-5,0.6c-2.1-0.2-1.5,0.3-3,0.4c-0.3,0-0.7,0-0.9-0.1c-0.8,1.1-1.9,2.5-2.3,2.8c-0.8,0.4-1.5,0.3-2.3-0.3
					c-0.8-0.6-2.3-1.2-3.3-0.1c-0.4,0.1-4-0.6-5,0c0.4,3.7,4.1,2.2,4.5,2.3c1.6,0.5,2,0.6,2,2.5c0,0.2,0.1,1.3,0.4,2.1
					c0.5,1.7,1.1,2.2,1.9,3.4c0.7,0.9,1.3,1.7,1.9,2.4c0.8,0.9,0.3,2.7,1.4,3.1c1.1,0.4,2.8,0.3,2.4,1.6c-0.3,1.3-0.8,1.6-1.5,2.2
					c-0.8,0.8-0.6,1.3-0.3,1.7c0.4,0.4,1.4,1.1,2.5-0.3c1.1-1.4,2-2,2.8-2c0.9,0,2.6,0.6,3,1.2s2.5,3.1,3.9,2.9
					c1.3-0.2,3.2-1.1,4.3-0.6c0-0.1,0.4,0.2,0.4,0.3c0.6,0.6,1.3,0.9,1.8,1.2c0.3-0.3,0.6-0.8,0.6-1.6c0-1.4,0.3-4.1,0.8-4.5
					c0.5-0.4,1.2-1.2,0.7-2.8c-0.4-1.5-0.3-2.4,0.4-3c0.7-0.6,1.3-1.6,1.2-2s-2.2-1.6-1.5-2.9c0.7-1.2,2.3-2.3,2.3-3.4s0-1.5,0-1.5
					l0.6,0l-0.5,0C923.3,188.1,922.1,187.9,921,188.4z"/>
			</g>
			<path class="st3" d="M923.4,209.9c0,0-1.6,0.9-1.5,1.8c0.1,0.8,1.1,1.3,1.8,0.1C924.5,210.6,925.4,209.7,923.4,209.9z"/>
			<path class="st3" d="M925,200.6c0,0-1.4,0.2-1,1c0.4,0.8,0.5,1,1,0.9C925.5,202.4,926.9,200.4,925,200.6z"/>
		</g>
		<g>
			<g>
				<path class="st3" d="M916.6,210.5c-1.7,0.1-2.2,0.7-3.3,0.7c-1.1,0-2.8-0.9-3.3-2c-0.4-1.1-1.2-2.1-2.7-2.1
					c-1.5,0-2.5,1.8-3.5,2c-1.1,0.2-4.1,1.9-4.2-1.6c0.3-1.9,0.7-2.2,0.7-2.2c1.1-0.9,1.1-0.6,1-1.1s-0.2-0.9-1.8-0.8
					c-1.6,0.1-1.3-0.7-1.3-1.9s0.7-2.1-1.4-2.8c-0.4-0.1-0.7-0.3-1-0.5c-0.5-0.2-1-0.6-1.4-1.4c-1-1.8-1.9-1.4-2.3,0
					s-0.5,1.9-1.5,1.9c-1,0-2.1-0.1-2.9,3.1c-0.7,1.7-1.1-0.7-1.1-1.2c0-0.5-1-0.9-2.1-0.7c-1.1,0.2-1.8,1.4-2.2,2.2
					c-0.1,0.3-0.3,0.6-0.5,0.8c0.3,0.5,0.8,1.1,1.1,1.1c0.6,2.2,1,3.6,2.4,5.1s1.4,2,1.5,2.5c0.1,0.5,1.7,0.5,1.7,0.5
					s0.2,1.4,0.7,1.6s2.5-0.4,2.5-0.4s-0.4,1.5,0.5,1.6c0.9,0.1,2.7-0.4,2.7,0.9s-0.6,6.5-0.8,7.7s-2.4,4.2-2.4,5.7
					c-0.1,0.2-0.2,0.4-0.3,0.7c-0.1,0.9-0.5,6.7,3.4,1.9c2.5-3,6.4-5.8,8-7.6c1.6-1.9,6.1-7.1,7.5-8c1.1-0.4,2.8-1.3,5.3-1.6
					c1-0.2,2.2-0.7,2.2-2.4c0-0.6,0-1.1,0-1.6C917.6,210.5,917.2,210.4,916.6,210.5z"/>
			</g>
			<path class="st3" d="M921.4,214.9c0,0-1.8-0.1-3.2,1.5c-0.7,0.7-1.4,1.3-2,0.7s-2.2-0.5-2.3,0.1c-0.1,0.7,0.5,1.3,1.8,1.4
				c1.3,0.1,3.3-0.4,4.3-1.4C921.1,216.3,923.4,214.8,921.4,214.9z"/>
			<path class="st3" d="M922.8,216.7c-0.7-0.4-2.3,1.4-1.3,1.3C922.6,217.9,924.2,217.5,922.8,216.7z"/>
			<path class="st3" d="M919.9,212.4c0,0-1.4,0.5-1.3,1c0.1,0.5,0.2,1.3,1,1C920.3,214.2,921.5,212.9,919.9,212.4z"/>
		</g>
		<g>
			<g>
				<path class="st3" d="M894.1,223.5c0.2-1.2,0.8-6.4,0.8-7.7s-1.8-0.8-2.7-0.9s-0.5-1.6-0.5-1.6s-2,0.6-2.5,0.4s-0.7-1.6-0.7-1.6
					s-1.6,0-1.7-0.5c-0.1-0.5-0.1-1-1.5-2.5c-1.4-1.5-1.8-2.9-2.4-5.1c-0.3,0.1-0.8-0.5-1.1-1.1c-0.3,0.3-0.6,0.4-0.8-0.3
					c-0.1-0.6-0.9-1.2-1.7-1.6c0,0,0,0,0,0c-0.8,0-2.2,0.1-3.1,0.1c-1.2-0.1-3-1.4-4.4-1.4s0.1,1.7,0.4,3.6s-2.8-0.7-3.4-1.4
					c-0.6-0.7-0.6,2.7-0.6,4.8s-2.5,0.4-4-0.8c-1.3-1.1-2.2-1.3-4.7-1.3c2.3,5.8,4.5,5.6,7.1,7.3c1.3,2.5,9.9,7,12.4,8.4
					c3,2.6,5.4,3.9,7.7,4.3c2.3,0.4,2.5,0.1,3.1,1.5s-2.8,5.6-2.8,5.6l-0.6,0.9c0.3,0.6,0.6,1.2,0.9,1.4c2.2,0.9,3.8-4.2,3.8-4.2
					s0,0,0,0.1c0.1-0.2,0.2-0.5,0.3-0.7C891.8,227.7,893.9,224.6,894.1,223.5z"/>
			</g>
			<path class="st3" d="M887.7,235.2c0,0-1.3,0.4-1,1c0.3,0.7,1.3,1.5,2.1,1.3s1.5-1.4,1.3-1.9C890,235.1,887.9,235.1,887.7,235.2z"
				/>
		</g>
		<g>
			<path class="st3" d="M895.1,196c-0.9-1.4-1.3-2.1-1.7-4.3s-2.5-0.8-4-0.6s-1.6-0.7-2.3-3.8c-0.7-3.1-1.6-2.6-2.4-1.7
				c-0.8,0.9-1.8-0.2-2.5-1.2s-1.9,0.2-2.3,1.2s-1.6-0.1-2.3-0.7c-0.7-0.6-2.2-0.7-2.2-0.7s-0.1,1.5-0.1,2.9c0,1.5-1,2.1-1.6,2.7
				c-0.3,0.3-1.1,1.3-1.8,2.1c0.5,0.6,0.6,1.6,0.6,2c0,0.6,1.7,1.2,2.5,1.2c0.8,0,2,1,2.2,2.6s2.3,3.3,2,3.4
				c0.8,0.5,1.6,1.1,1.7,1.6c0.2,1.1,0.9,0.3,1.3-0.5c0.4-0.8,1.1-2,2.2-2.2c1.1-0.2,2.1,0.2,2.1,0.7s0.4,2.9,1.1,1.2
				c0.8-3.3,1.9-3.1,2.9-3.1c1,0,1.1-0.5,1.5-1.9c0.4-1.4,1.3-1.8,2.3,0c1,1.8,2.5,1.7,2.5,1.7S896,197.4,895.1,196z"/>
		</g>
		<g>
			<path class="st3" d="M899.9,182c-0.3-1.3-1.1-2.8-2.7-3.7c-1.6-1-1.5-3.4-1.5-4.6s-0.4-2.8,0.7-3.3c1.1-0.5,2.3-3.3,2.7-3.8
				c0.2-0.3,0.6-0.6,1-0.8c-0.2,0-0.5,0-0.7,0c-3.8,2.1-5.5,0.8-7.6,0.5c-2.1-0.3-2.3-1-2.3-1l-3.5-0.2c0,0-0.7,1-1.7,1.5
				c-1,0.5-2.7,0.8-3.5,1.6c-0.8,0.8,0,2.4,1.1,2.4c1.1,0-0.2,2-0.2,4.1c0,2.2,1.9,2.7,2.8,4.2c0.9,1.6,0.2,1.2,0.1,2.8
				c-0.1,1.6,1.2,1.8,2.6,2.7s0.1,3.1,1.1,2.3s4.2,0,5.1-0.2c1.1-1.1,2.6-0.5,3.3,0.1c0.8,0.6,1.5,0.7,2.3,0.3
				c0.5-0.2,1.5-1.6,2.3-2.8C900.6,183.7,900.2,183,899.9,182z"/>
		</g>
		<g>
			<path class="st3" d="M891.9,166.3c2.1,0.3,3.7,1.6,7.6-0.5c0.2,0,0.5,0,0.7,0l0,0c0.5-0.3,1-0.5,1-0.5l1.6-0.3l0.7-0.8
				c0.1-0.5,0.4-1.3,0.9-2.4c0.6-1.4,0.7-3.8,0.7-5.4c-0.9-0.1-2.7-0.5-3.2-2.2c-1.2,0.4-3,1.5-3,1.1s-0.1-2.9-0.1-2.9l-1.7-0.4
				c0,0-0.7-1.4-1.4-1.4c-0.7,0.1-1,0.9-1.6,0.9c-0.5,0-6,1.4-5.4-2.1c-0.1-2.2,0-2.3-1.3-2.1c-1.3,0.2-1.3,1.3-1.8,1.5
				c-0.5,0.2-1.3-0.2-1.8-0.2c-0.1,0-0.2-0.2-0.3-0.4c-0.9,0.7-2,1.7-1.4,2.2c0.9,0.8,0.5,2.6,0.5,3.5s-0.6,3.6,0.3,4.1
				c0.9,0.5,3,1.3,4,1.8c1,0.5,1.3,2.7,1,3.3c-0.2,0.4-0.9,1.2-1.4,1.8l3.3,0.2C889.6,165.3,889.8,166,891.9,166.3z"/>
		</g>
		<g>
			<g>
				<path class="st3" d="M886.2,165.1c0,0,0,0-0.1,0.1c-0.2,0.3-0.8,1-1.6,1.4c-0.8,0.4-2,0.6-2.8,1.1c0-1-0.1-2.3-0.2-3
					c-0.1-1.3-1-4.6-3.6-6.6c0,0-1.4-0.4-4.1-0.3s-3.7,0.4-3.8-1c0.4,0.2,1.5-0.9,2.4-1.9s2.6-2.2,2.1-3.1s-2.3-1.5-2-4
					c0.3-2.5,0.3-3.3,0.4-4c0.1-0.5,0.4-2.4,0.5-3.3c0.4,0.4,0.6,0.6,0.6,0.6l1,1.2c0,0,2.5-0.3,4.7-1.1c0.4,0.7,0.9,1.3,1.5,1.8
					c1.6,1.4,1.8,4.3,2.2,5.4c-0.9,0.7-2,1.7-1.4,2.2c0.9,0.8,0.5,2.6,0.5,3.5s-0.6,3.6,0.3,4.1c0.9,0.5,3,1.3,4,1.8
					c1,0.5,1.3,2.7,1,3.3c-0.2,0.4-0.9,1.2-1.4,1.8L886.2,165.1L886.2,165.1z"/>
			</g>
			<g>
				<path class="st3" d="M877.9,160.2c-1.8-2-5.6-1.6-7.5-1.4c1,1.5,0.4,4-0.5,5.4c3,1.4,3.7,2,3.7,2c1.4,1.3,1.3,3.6,1.3,3.6
					s2.5-0.3,4.1,0.1C879,169.9,880.8,164.6,877.9,160.2z"/>
			</g>
			<g>
				<path class="st3" d="M846.6,150.5c-0.4,0.5-2.1,1.5-1.8,2.6s0.5,1.5,1,6.5c0.1,1.4,0.3,2.7,0.6,3.9c0.9-0.2,4.2-0.9,6.8-0.3
					c3,0.6,2.2,2.1,2.9,2.1c0.7,0.1,1.7,0.8,2.1,1.5c0.4,0.7,0.3,1.7,0.8,3c0.5,1.3,0.6,1.9,0.9,1.7c0.2-0.2,2.5-1.2,2.5,0.1
					s0.2,1.1,2.1,3.9c2,2.8,2.6,4.5,3.3,9.7s1,5.3,1.1,6.1c0.1,0.8,0.7,0.4,2.2,0.2c0.6-0.1,1,0.2,1.2,0.6l0,0
					c0.6-0.8,1.4-1.8,1.8-2.1c0.6-0.6,1.6-1.2,1.6-2.7c0-1.5,0.1-2.9,0.1-2.9s1.5,0.1,2.2,0.7s1.9,1.7,2.3,0.7s1.6-2.2,2.3-1.2
					c0.7,1,1.7,2.1,2.5,1.2c0.4-0.5,0.9-0.9,1.3-0.6c-0.4-0.4-1-1-2.2-1.2c-0.8-1.5-0.8-2-0.8-3s0-1.6-1.3-3.1c0,0-2-1.2-1.2-4.1
					c0.2-1.3,0.9-1.4-1.6-4c0,0.2-0.1,0.2-0.1,0.2c-1.5-0.4-4.1-0.1-4.1-0.1s0.1-2.3-1.3-3.6c0,0-0.8-0.6-3.7-2c0.7-1,1.2-2.6,1-4
					c-2.7-2.9-4.8-4.8-4.8-4.8s-1.4-1.2-6-1.6c-1.8,0.3-7.3,0.8-7.3-3c-0.8-2.2-1.2-6.7-4.7-5.3c-0.3,0.3-0.8,0.9-1.3,1.5
					c0.1,0.1,0.2,0.1,0.3,0.2C848.3,148.2,847,150,846.6,150.5z"/>
			</g>
		</g>
		<g>
			<path class="st3" d="M868.1,135.2c-1.1-1.2-4.9-5.4-6-6.7c-0.3-0.4-1-1-1.7-1.7c-0.4,0.5-1,1.2-1.9,1.8c-1.7,1.2-3.5,3-5,2.2
				s-4.7-3-5.3-2.5c-0.6,0.6-2.6,2.8-2.6,4.2c0.7,0.5,1.1,0.6,1.5,2.2s0.7,3.6,2.5,3.2c1.8-0.4,2.1-0.9,2.2,1.5
				c0.1,2.5,1.5,6.7,1.7,8.5c0.2,1.7-0.2,4.1,2.9,4.4c3.1,0.2,6.7-0.5,8.1,0.7c1.4,1.2,5,3.6,5.4,3.7c0.4,0.2,1.5-0.9,2.4-1.9
				s2.6-2.2,2.1-3.1s-2.3-1.5-2-4c0.3-2.5,0.3-3.3,0.4-4c0.1-0.5,0.4-2.4,0.5-3.3C872.1,139.3,869,136.2,868.1,135.2z"/>
		</g>
		<g>
			<path class="st3" d="M858.3,59.8c-1.6,1-2.5,2.3-4.1,1.2c-1.7-1.1-2.1-1.8-4.2-0.8c0,0-1.4,0.5-2.2-0.1c-0.8-0.7-1.1-1-2.6-1
				s-2.6-0.8-3.6-1.4c-1-0.6-3.3-2.2-4-1.3c-0.7,0.9-0.8,2.2-0.8,3.7c0,1.5-1.1,7.6-1.6,9.8s-1.7,6.2-2.6,7
				c-0.8,0.8-0.4,1.3-0.9,2.5c-0.5,1.2-0.7,2.5-2.3,2.3s-2.6-1.7-3.8-1.4c-1.2,0.3-1.9,2.7-2,4.4c-0.1,3.1-3.7,3-3.7,3
				c-0.8,5.4,0.9,7,2.8,8.3c5.2,2.8,4.9,4,5.1,6.7c2.1,0.4,3.9,4.2,4.9,6c1,1.8,2.3,2.9,2.3,2.9s-0.8,0.2-0.8,2.9
				c0,1.5-0.7,2.7-1.7,3.5l0,0l0.6,0.4c0,0,3.9,0.3,4.4,0.9s3.4,2.1,2.9,2.3c-0.5,0.2-2.2,1.2-2.3,1.7c-0.1,0.5,1.3,1.8,1.3,1.8
				l2.3,0.3l0.5,2.8l1.3,1.5l1,2.1l0.9,0.4l0,0c0.3-1.4,2-3.3,2.6-3.8c0.6-0.6,3.8,1.7,5.3,2.5c1.5,0.8,3.3-1,5-2.2
				c0.9-0.6,1.5-1.3,1.9-1.8c-1.5-1.4-3.4-3.3-4.3-4.7c-1.3-2.1,1.3-3.2,2.3-4.2c1-1,0.6-2.7,0.2-4.2c-0.4-1.5-0.1-2.8,0.2-4.9
				c0.3-2.1,1.7-1.1,2.1-2.8c0.1-0.9,0.3-1.8,0.7-2.6c0,0,0,0,0,0c-1.3-1.1-3.3-3-3.9-4.6c-0.6-1.8-0.7-3.4-0.7-5.6
				c0-2.2-0.1-2.5-0.7-3.3s-1.4-1.3-2-2.5c-0.5-1.3,0.6-3.5,2.1-4.7c1.6-1.2,1.3-0.8,1.6-3.3s3.1-4.8,4.2-6.2
				c2.7-2.1,1.3-7.4,1.3-8.6c0-1.2-0.8-2-1.6-3.6c-0.3-0.5-0.7-1-1.2-1.5c0,0,0.1-0.1,0.1-0.1c0,0,0,0-0.1,0.1
				c-0.8-0.4-1.5-0.8-2.1-1.1C859,59,858.8,59.4,858.3,59.8z"/>
		</g>
		<g>
			<path class="st3" d="M823.8,160.3c1.2,2,3.7,2.5,6.7,3.8s3.6,2.8,4.8,2.9c1.2,0.2,1.2-0.4,3-0.6s4.8,2.2,4.8,2.2s3.9-1,3.9-1.7
				c0-0.6-0.9-3.5-0.9-3.5s0.1,0,0.3-0.1c-0.2-1.2-0.5-2.6-0.6-3.9c-0.5-5-0.6-5.4-1-6.5s1.4-2.1,1.8-2.6c0.4-0.5,1.7-2.2,0.4-3.3
				c-1.3-1-0.8-0.8-0.4-2.2c0.4-1.4,1.7-1.5,2.7-1.2c0.5,0.2,2-0.6,3.1-1.2c-0.2-1.1-0.4-2.2-0.5-3c-0.1-2.5-0.4-1.9-2.2-1.5
				c-1.8,0.4-2.1-1.6-2.5-3.2c-0.4-1.6-0.8-1.7-1.5-2.2c0-0.1,0-0.3,0-0.4l-0.9-0.4l-1-2.1l-1.3-1.5l-0.5-2.8l-2.3-0.3
				c0,0-1.4-1.3-1.3-1.8c0.1-0.5,1.7-1.5,2.3-1.7c0.6-0.2-2.3-1.7-2.9-2.3c-0.6-0.6-4.4-0.9-4.4-0.9l-0.6-0.4
				c-0.8,0.6-1.7,1-2.5,1.1c-2,0.3-2.4,1.1-2.4,1.3s0,1.8-0.9,3s-3.5,2.9-5.3,4.6c-1.8,1.7-0.6,8.5-0.6,10.8s-1.7,1.9-2.6,2.2
				c-0.9,0.3-2.2,1.4-2.2,1.4c0,0,0,0-0.3,0c0.4,1.3,0.7,2.5,0.9,3c0.5,1.4,0.5,2,0.5,3.6c0,1.6,0.2,3.2,1.2,4.5
				c0.9,1.1,1.6,1.6,2,2.6C822.1,156.2,822.6,158.4,823.8,160.3z"/>
		</g>
		<g>
			<path class="st3" d="M813.6,186.2c1.4-0.8,2.6-1.4,3.7-1.9c0-0.6-0.2-3.1-0.1-4.8c0.1-1.9,4.2-0.6,7,0.2c0.8-0.9,2.8-1.7,2.8-1.7
				s0.2-1.7-0.1-4.4c-1.5-1.4-3.1-4.3-3.7-5.4c-0.6-1.1-3.3-5.2-4-6.2c-0.7-0.9-0.5-1.7-0.5-3.3s1.7-2.7,1.7-2.7c0,0,0.1,0,0.2,0
				c-0.4-1-1.1-1.4-2-2.6c-1-1.4-1.2-2.9-1.2-4.5c0-1.6,0-2.2-0.5-3.6c-0.2-0.5-0.6-1.7-0.9-3c-0.3,0-0.9-0.1-2.1-0.1
				c-2.6-0.1-2.4-1.5-2.6-3.1c-0.2-1.6-0.5-1.8-0.7-1.6c-0.2,0.2-1.3,0.8-2.8,1.1c-1.5,0.3-2.3-1-3.9-1.4c-1.6-0.4-3.9-0.3-4.7,2.1
				c-0.8,2.4-2,1.6-3.1,1.6c-1.1,0-6.6-2.1-8.8-3.3s-1.7-3.2-1.7-6.4s0.9-6.2,2.4-8.4c1.5-2.2,0-3.7-2.1-4.7c-2-1-3.5,0.5-4.6,1.6
				c-1.2,1.2-1.9,1.5-3,0.9c-1.7-1.3-1.6-0.6-2.8,0.5c-1.3,1.1-4.8,0.2-6.2-1.2c-1.1-1.1-4.7-3.2-6.1-3.9c0.4-0.3,0.8-0.4,1.4-0.5
				c-1.3,0.2-1.7,0.6-3,2.1c-1.5,1.8-2.9,0.9-3.5-0.2c-0.6-1.2-1.8-3.7-3.6-5.9c-1.8-2.1-2.7-2.9-2.9-3.2c-0.2-0.3-0.6-1.2,0-2.1
				c0.6-0.9,0.4-2.4-0.4-2.4s-1.2-0.6-1.3-1.8c-0.1-1.3-2.5-2.5-4.3-3.9c-1.8-1.4-3.3-1.4-4.7-1.1c-1.4,0.3-2,4-2.1,2.9l-0.4,0.1
				c0,0-1.2,0.8-0.3,3.9c0.8,3.1,2.5,6.8,2.7,9c0.2,2.2,1.1,5.1,1.2,6.6c0,1.5-1.5,1.6-1.7,2.8c-0.2,1.2,1.4,5.8-1.3,6.1
				c-2.6,0.3-3,0.1-3.7,1.4c-0.8,1.3,0.2,4.3-3.8,4.3c-4,0-1.9,2-1.5,3c0.4,1-0.5,3,0.6,3.9c1.1,0.9,4.9,0.2,3.3,3.7
				c-1.6,3.6-2.7,7.4-2.1,9.6c0.6,2.2,1.6,3.6-0.5,2.7c-2.1-0.9-6-4.5-6.1-0.9s2.5,3.1-1.7,5.2c-4.2,2.1-3.7,3.4-3.5,5.1
				c0.1,0.6,0.2,1.3,0.4,2c-0.1-0.1-0.1-0.2-0.2-0.3c1.3,2,5.8,9.1,14.1,5.9c2,1.1,6.9,4.7,8.6,4.9c1.7,0.2,3.3,0.4,4.4,1.8
				c1.1,1.3,2.5,2,2.5,2s2.2-2.4,3.7-6.7c1.5-3,5.9-6.7,8-7.1c2.1-0.4,9.5-0.3,9.5-0.3s4-4,6.5-3.1c2.5,0.9,18.3,11.8,18.3,11.8
				s8.7,6.8,8.9,7.4c0,0,0.1,0.3,0.1,0.8c0.8,0.7,2,1.6,2.5,1.8C807.7,187.5,809.7,188.6,813.6,186.2z"/>
		</g>
		<path class="st3" d="M832.8,108.6c-1-1.8-2.8-5.6-4.9-6c-0.2-2.7,0.1-3.8-5.1-6.7c-1.9-1.3-3.6-2.8-2.8-8.3
			c-1.6,0.2-1.8,0.6-2.6,1.4s-1,0.4-1.8-0.1c-0.7-0.5-6-6.3-7.8-7.2s-3.4,0.1-3.5,3.6c0.8,0.4,1,0.3,0.9,2.3s-2,2.4-2,3.7
			c0,1.3,0.4,3.6-0.8,3.6c-1.3,0.1-3.3-2.6-4.1-3.6c-0.8-1-3.6-4.4-4.5-3.7c-0.9,0.7-0.7,1.4-0.6,2.8s1.1,2.2-1.7,2.8
			c-0.7,0.2-1.3,0.6-0.5,2c0.7,1.4,3.5,5.1,2.7,7.1s-2.2,3.9-2.8,3.8c-0.6-0.1-1-1-2.5-1.5c-1.4-0.5-3,0.1-3.4-0.5
			c-0.4-0.6-2.1-2.2-2.4-1.5c-0.3,0.7-0.2,2.5-0.2,2.8c0,0.3,0.2,0.9-1.4,0.9c-1.6-0.1-5.7-1.3-6.7-1.8c-1-0.4-0.8-0.2-2-0.2
			c-1.1,0.1-3.2-1.5-4.4-3c-0.6,1.1-3.1,2.2-4.5,2.9c-2,1-0.2,3.4,2.3,7c2.5,3.7,1,4.1-0.8,4.3c-1,0.1-1.5,0.2-2,0.6
			c1.4,0.8,5,2.9,6.1,3.9c1.4,1.4,4.9,2.3,6.2,1.2c1.3-1.1,1.2-1.8,2.8-0.5c1.1,0.6,1.9,0.2,3-0.9c1.1-1.2,2.6-2.7,4.6-1.6
			c2,1,3.6,2.5,2.1,4.7c-1.5,2.2-2.4,5.2-2.4,8.4s-0.5,5.2,1.7,6.4c2.2,1.2,7.7,3.3,8.8,3.3c1.1,0,2.4,0.8,3.1-1.6
			c0.8-2.4,3.1-2.5,4.7-2.1c1.6,0.4,2.4,1.6,3.9,1.4c1.5-0.3,2.6-0.9,2.8-1.1c0.2-0.2,0.5,0,0.7,1.6c0.2,1.6,0,3.1,2.6,3.1
			c2.3,0.1,2.4,0.1,2.4,0.1c0,0,1.3-1.1,2.2-1.4c0.9-0.3,2.6,0.1,2.6-2.2c0-2.3-1.2-9.1,0.6-10.8c1.8-1.7,4.4-3.4,5.3-4.6
			c0.9-1.3,0.9-2.8,0.9-3s0.4-1,2.4-1.3c2-0.3,4.2-1.9,4.2-4.6s0.8-2.9,0.8-2.9S833.9,110.4,832.8,108.6z"/>
		<g>
			<path class="st3" d="M895.4,68.2c0.2-2.5-1.4-3.4-3.3-3.5c-1.9-0.1-2.1,0.2-3.5,1.3s-1.1,1.6-4.1,2c-3,0.4-6.3-0.9-7.9-2.1
				c-1.6-1.2-3.3-5.1-3.4-6.6c-0.2-1.5,0.1-1.2,1.2-1.8c1.1-0.6,0.9-1.8,0.9-2.7c0-0.9-1.4-0.9-2.4-1s-3.5,1.1-4.8,1.9
				c-1.3,0.8-2.7,0.9-3.7,1.4c-0.7,0.4-2.3,1.8-3.2,2.6c0.5,0.5,1,1,1.2,1.5c0.8,1.6,1.6,2.4,1.6,3.6s1.4,6.5-1.3,8.6
				c-1.1,1.3-3.9,3.7-4.2,6.2c-0.3,2.5,0,2.1-1.6,3.3c-1.6,1.2-2.7,3.4-2.1,4.7s1.4,1.8,2,2.5c0.6,0.7,0.7,1,0.7,3.3
				s0.1,3.8,0.7,5.6c0.5,1.6,2.6,3.5,3.9,4.6c1.3-2.9,3.9-5.1,3.9-5.1c9.2-2.8,8.7,5.2,8.3,8.4c-0.4,3.2,0.6,4.6,1.5,5.2
				c0.5,0.1,1-2.9,3.4-2.5c2.4,0.5,4.2-2.1,5.6-3.3c1.4-1.3,6.3-3.6,8.7-3.3c0.7,0.1,1.2,0.2,1.6,0.4c0-2.3,0.1-5.9,0.1-6.5
				c0-0.9,0.9-1.2,1.8-1.6c1-0.4,3.9-3.6,4.4-4.1c0.5-0.6,0.4-3.3,0.7-4.3c0.3-1,1.4-2.1,1.7-2.6s-1.7-2.9-2.5-4.6
				c-0.6-1.1-1-3.9-1.3-5.6c-0.3-0.1-1-0.2-2.3-0.5C894.8,72.8,895.1,70.7,895.4,68.2z"/>
		</g>
		<g>
			<path class="st3" d="M865.7,98.3c0,0-4.3,3.7-4.6,7.7c-0.4,1.7-1.8,0.8-2.1,2.8s-0.6,3.4-0.2,4.9c0.4,1.5,0.8,3.2-0.2,4.2
				c-1,1-3.6,2.1-2.3,4.2c1.3,2.1,4.9,5.2,6,6.4c1,1.3,4.8,5.5,6,6.7c1.1,1.2,5.9,5.9,5.9,5.9l1,1.2c0,0,5-0.6,7-2.3
				c2-1.7,2.1-1.4,2.4-3.7c2.1,0.6,2.5,0.9,3.1,1.7s1.5-0.1,2.1-1.4c0.6-1.4,1.2-2.8,1.6-5.1c0.4-2.3,0.7-5.9,0.7-5.9s0.9-1,2.6,0
				c1.7,1,4.3,2,6-1.1c1.7-1.2,1.9-1.4,1.9-3.4s-1.8-2.9-3.6-4.7c-1.8-1.7-3.4-2.3-3.4-4.8c0,0,0.5-4,0.8-5.6
				c0.3-1.7-0.5-2.8-2.9-3.1c-2.4-0.2-7.3,2.1-8.7,3.3c-1.4,1.3-3.3,3.8-5.6,3.3c-2.4-0.5-2.9,2.5-3.4,2.5c-0.9-0.6-1.9-2-1.5-5.2
				C874.4,103.5,874.9,95.4,865.7,98.3z"/>
		</g>
		<g>
			<path class="st3" d="M947.8,141.1c-0.3-2.1-1.1-2.2-3.1-2.5c-2-0.3-1.7-0.6-1.8-1.7c-0.1-1-1.2-2.4-2.1-2.9
				c-1-0.5-0.8-1.2-0.1-1.6c0.7-0.4,0.9-1.2,0.3-1.4c-0.6-0.2-1.5-0.8-2.1-1.4c-0.6-0.6-2.1-2.1-2.3-2.5s-1.4,0.2-1.5,1.8
				c-0.1,1.6-1.5,2.4-2.8,2.1c-1.4-0.3-1.4-2.1-1.4-3.1s-1.6-1.4-5.1-1.4c-3.6,0-5.1,2.2-6,3.3c-0.9,1.1-1,2.3-1.4,4.2
				c-0.5,1.9-2.1,2.1-4.9,3.7c-2.8,1.6-3.5,1-4.3,0.5c-0.8-0.6-2.3-1.7-2.9-2.3c-0.5-0.6-1.3-2.5-3.6-2.9c-2.2-0.5-4.2-0.5-4.2-0.5
				l-0.1-6.3c-1.3,0.4-2.7-0.2-3.8-0.9c-1.7-1-2.6,0-2.6,0s-0.3,3.6-0.7,5.9c-0.4,2.3-1,3.7-1.6,5.1c-0.6,1.4-1.5,2.1-2.1,1.4
				s-1-1-3.1-1.7c-0.2,2.3-0.4,2-2.4,3.7c-0.6,0.5-1.4,0.9-2.3,1.2c0.4,0.7,0.9,1.3,1.5,1.8c2,1.7,1.9,5.9,2.5,5.9s1.4,0.4,1.8,0.2
				c0.5-0.2,0.5-1.3,1.8-1.5c1.3-0.2,1.2-0.2,1.3,2.1c-0.6,3.4,4.8,2.1,5.4,2.1c0.5,0,0.9-0.9,1.6-0.9c0.7-0.1,1.4,1.4,1.4,1.4
				l1.7,0.4c0,0,0.1,2.5,0.1,2.9c0,0.4,1.8-0.7,3-1.1c0.8,2.3,3.8,2.2,3.8,2.2s-0.4-5.1,0.2-5.2c0.6-0.2,2.6,0.5,3.1,1.4
				c0.5,0.9,2.2,0.1,3-0.5c0.8-0.6,0.9-1.7,2-1.9c1.1-0.2,2.9,0.6,4,1c4.3,3,10.5,3.3,13,3.3c2.5,0,3.6,0.2,4.8,0
				c0-1.2,1.4-1.7,2.4-1.3c1,0.4,2.9,0.9,4.4,0.8s2.5-4.6,2.6-5.7c0.2-1.1,0.2-2.5,0.7-2.9c0.5-0.4,1.7-0.6,3.6-1.6
				C948.7,143.6,948.1,143.2,947.8,141.1z"/>
		</g>
		<g>
			<path class="st3" d="M916.6,78.1c-0.5,0.8-3-0.3-4.9-0.2c-2,0.1-1.5,0.6-2.1-1.5c-0.6-2.1-5.2-4-6.6-4.6
				c-0.9-0.4-2.3,1.2-3.1,2.4c0-0.1,0-0.2,0-0.3c0.2,1.6,0.7,4.4,1.3,5.6c0.9,1.7,2.8,4.1,2.5,4.6c-0.2,0.5-1.3,1.6-1.7,2.6
				c-0.3,1-0.2,3.7-0.7,4.3c-0.5,0.6-3.4,3.7-4.4,4.1c-1,0.4-1.8,0.6-1.8,1.6c0,0.6-0.1,4.2-0.1,6.5c1.1,0.5,1.5,1.5,1.2,2.7
				c-0.3,1.7-0.8,5.6-0.8,5.6c0,2.5,1.6,3.1,3.4,4.8c1.8,1.7,3.6,2.7,3.6,4.7s-0.2,2.2-1.9,3.4c-0.7,1.2-1.4,1.7-2.2,2l0,0l0.1,6.4
				c0,0,2,0,4.2,0.5c2.2,0.5,3,2.3,3.6,2.9c0.6,0.6,2.1,1.7,2.8,2.3c0.8,0.6,1.5,1.1,4.3-0.5c2.8-1.6,4.4-1.8,4.9-3.7
				c0.5-1.9,0.5-3.1,1.4-4.2c0.9-1.1,2.4-3.3,6-3.3s5.2,0.4,5.2,1.4c0,1,0,2.8,1.3,3.1c1.4,0.3,2.8-0.5,2.9-2.1
				c0.1-1.6,1.3-2.1,1.5-1.8c0.2,0.3,1.7,1.9,2.3,2.5c0.6,0.6,1.6,1.2,2.1,1.4c0.5,0.2,0.4,0.9-0.3,1.4c-0.7,0.4-0.9,1.1,0.1,1.6
				c1,0.5,2.1,1.8,2.1,2.9s-0.2,1.4,1.8,1.7c2,0.3,2.8,0.5,3.1,2.5c0.3,2.1,1,2.5,1.6,2.7c0,0,0,0-0.1,0c3-0.2,4.2-1.3,7.5-2
				c3.8-0.8,3.7,0.2,4.9,0.3s0.8-1.6,0.8-3.1c0-1.5-1.3-3-2-4.2s-1.6-1.2-1.9-2.2c-0.3-1,2.4-3.3,6.5-5.1c1.9-0.4,3.1-0.8,3.8-1.2
				c-0.2-0.1-0.4-0.4-0.5-1c-0.2-1.4-0.1-6.1-3-6.3c-1.6,0.1-3.1,0.9-3.5,0.9s-2.9-0.4-4.5-2s-4-3.4-4.8-3.7s-3.3-0.9-3.4-2.1
				c0-0.7,0.5-0.8,0.8-1.7c0.3-0.8,0.2-2.4-0.2-4c-0.4-0.8-1.3-2.4-3.9-0.6c-1,0.5-1.7,0.5-2.1-0.4c-0.4-0.9-1.5-2.5-3-2.6
				s-3.2-0.2-4.4-0.9c-1.1-0.7-1.8-1.7-4.2-0.8c-1.8,0.3-4,0-4,0s1.8-3.7,1.9-4.7c0.1-1-0.1-5.1-0.8-9c0.4-2.6,0.7-6.2-1.9-7.1
				c-2.6-0.9-4.8-1.9-4.7-5.2c0-0.3,0-0.6,0-0.9c-1.1,0.5-2.2,0.9-2.9,0.9C917.8,75.2,917.1,77.3,916.6,78.1z"/>
		</g>
		<g>
			<path class="st3" d="M927.7,64.2c1-0.2,4.5-3.5,5.6-7.4c1.1-3.9,1.6-3.2,1.9-3.6c0.3-0.4,1.6-2,1.6-2l-2.4-2.5
				c0,0-5.1-3.5-7.7-3.5c-1.8-2-3-3.8-6-3.9c-2.6,1.3-4,2.6-5.2,3s-2.7,1.4-5.4,1c-2.7-0.4-4.6-1.5-5.9-4.3c-1.2-1.8-4-4-6.8-4
				c-2.8,0-6.7-1.3-8.9,1.6c-2,1.9-3.7,2.6-5.6,2.6c-1.8,0-5.8-2.8-6.7-3.9s-5.1-6.8-9.4-5.4c-0.4-0.3-1.4-1.7-2.7-3.4
				c-1.2,0.8-2.8,1.9-3.6,2.7c-1.4,1.4-2.1,3.7-2.1,4.4s-2.8,0.2-4.1,0.2c-1.3,0-2.6,0.6-5.4,3s-5.6,5-3.5,6.7
				c2.1,1.6,4.4,2.8,5.7,4.1c1.2,1.3,3.7-0.1,5.3,1.4c1.5,1.5,1.8,2.6,1.8,4.2c0,1.1,0.7,2.3,0.7,3.2c0.6,0.3,1.3,0.7,2.1,1.1
				c0.9-0.8,2.4-2.2,3.1-2.5c1-0.5,2.4-0.6,3.7-1.4c1.3-0.8,3.9-2.1,4.8-1.9c1,0.2,2.4,0.2,2.4,1s0.2,2.1-0.9,2.7
				c-1.1,0.6-1.3,0.3-1.2,1.8c0.2,1.5,1.8,5.4,3.4,6.6c1.6,1.2,4.9,2.5,7.9,2.1s2.7-0.9,4.1-2c1.4-1,1.6-1.3,3.5-1.3
				c1.9,0.1,3.6,0.9,3.3,3.5c-0.2,2.5-0.6,4.7,2.1,5.2c1.3,0.3,1.9,0.4,2.3,0.5c0,0.1,0,0.2,0,0.3c0.8-1.2,2.2-2.8,3.1-2.4
				c1.4,0.6,6.1,2.5,6.6,4.6s0.1,1.5,2.1,1.5c2-0.1,4.4,1,4.9,0.2c0.5-0.8,1.1-2.9,3.2-2.9c0.7,0,1.7-0.4,2.9-0.9
				c0.1-3,0-5.8,0.7-7.3C924.2,65.2,926.7,64.3,927.7,64.2z"/>
		</g>
		<path class="st3" d="M793,57.6c0.3,1.3,0.3,2.3,3.3,3c0.4,0.8,1.1,1.3,1.1,1.3s-3.1,2-2.5,3.5c0.6,1.5,2,2,2.4,2.7
			c0.3,0.7,0.2,4.3,0.2,4.3s2.5,2.2,4.1,3.4s2.4,2.4,2.1,4.1c-0.3,1.7-1.7,2.7-1.2,3.7c0.5,1.1,1.9,1.6,1.9,1.6
			c0.1-3.5,1.8-4.5,3.5-3.6s7,6.7,7.8,7.2c0.7,0.5,0.9,0.9,1.8,0.1s1-1.2,2.6-1.4c0,0,3.5,0.1,3.6-3c0.1-1.7,0.8-4.1,2-4.4
			c1.2-0.3,2.2,1.2,3.8,1.4c1.6,0.1,1.8-1.1,2.3-2.3c0.5-1.2,0-1.7,0.9-2.5c0.8-0.8,2.1-4.8,2.6-7c0.5-2.2,1.6-8.2,1.6-9.8
			c0-1.5,0.1-2.8,0.8-3.7c0.7-0.9,2.9,0.7,4,1.3c1,0.6,2.1,1.4,3.6,1.4c1.5,0,1.8,0.3,2.6,1c0.8,0.7,2.2,0.1,2.2,0.1
			c2.1-1.1,2.6-0.3,4.2,0.8c1.7,1.1,2.6-0.1,4.1-1.2s0-2.8,0-4.5c0-1.7-0.3-2.7-1.9-4.2c-1.5-1.5-4-0.1-5.3-1.4
			c-1.3-1.4-3.6-2.5-5.7-4.1c-2.1-1.6,0.7-4.2,3.5-6.7c2.8-2.5,4.1-3,5.4-3c1.3,0,4.1,0.4,4.1-0.2c0-0.6,0.8-2.9,2.1-4.4
			c0.8-0.8,2.4-1.9,3.6-2.7c-1.7-2.4-3.9-5.4-5.9-7.2c-3.4-3.2-7.6-6.5-9-8.4c0,0-0.7,0.4-2.3,1.5c-1.5,0.9-1.9,2.9-5.1,5.3
			c-5.1-0.9-8.5,1-13.4,3.5c-3.7,1.9-13.1,3.1-10.7,9.8c1.3,4.4,2.5,4.4-2.8,10c-1.8,2.6-1.8,2.9-5.1,2.9s-4.8-1.8-6.2-1.1
			c0,0-4.2,3.1-5.4,4.5s-4.6,6.5-5.5,6.6c-0.4,0-0.8-0.3-1.3-0.8l-1.8,0.5C790,55.6,789.5,56.8,793,57.6z"/>
		<g>
			<path class="st3" d="M741.8,61.3c3.1,0,2.9,3.3,2.9,5.6c0,2.3-0.9,1.8,0.3,4.5c1.2,2.6,3.2,2.4,6.7,2.4s2.9,1.1,3,2.9
				c0.1,1.8,0.2,2.6,1.3,3.4c1,0.9,2.8,2,3.6,2.6c0.8,0.6-0.3,1.5,0.6,2.6s1.2,3.6,3.7,5c2.5,1.4,1.3,2.1,1,4
				c-0.3,1.9,1.2,4.5,2.9,5.8c0.5,0.4,0.5,0.8,0.3,1.2c1.2,1.6,3.3,3.1,4.4,3c1.3-0.1,1-0.3,2,0.2c1,0.4,5.1,1.7,6.7,1.8
				c1.6,0.1,1.4-0.6,1.4-0.9c0-0.3-0.1-2.1,0.2-2.8c0.3-0.7,1.9,0.9,2.3,1.5c0.4,0.6,2,0,3.4,0.5c1.4,0.5,1.9,1.4,2.5,1.5
				c0.6,0.1,2-1.8,2.8-3.8c0.8-2-2-5.7-2.7-7.1c-0.7-1.4-0.1-1.8,0.5-2c2.8-0.6,1.8-1.4,1.7-2.8c0-1.4-0.3-2.1,0.6-2.8
				s3.8,2.7,4.5,3.7c0.8,1,2.8,3.7,4.1,3.6s0.8-2.3,0.8-3.6c0-1.3,2-1.6,2-3.7s-0.1-2-0.9-2.3c0,0-1.4-0.5-1.8-1.6
				c-0.5-1.1,0.9-2,1.2-3.7c0.3-1.7-0.5-2.9-2.1-4.1s-4.1-3.4-4.1-3.4s0.1-3.6-0.2-4.3s-1.8-1.2-2.4-2.7c-0.6-1.5,2.5-3.5,2.5-3.5
				s-0.7-0.5-1.1-1.3c-2.9-0.7-2.9-1.7-3.3-3c-3.5-0.8-3-2-3-2l1.8-0.5c-0.7-0.7-1.5-1.6-1.9-1.8c-0.7-0.2-3.1-0.9-3.1-0.9v-6.7
				c0,0-11.7-0.5-17.1,13.9c-0.8,1.9-1.8,7.2-1.9,8.3c-4-4-17.7-18.4-19.8-18.9c-0.9,0-3.4,0.8-4.7,7.4c-0.3,1.9-1.7,5.4-3.7,3.7
				C739.6,60.7,739.8,61.3,741.8,61.3z"/>
		</g>
		<g>
			<path class="st3" d="M671.9,66.3c0.9,1.3,2.3,2.7,2.1,4.7c-0.2,2,0,0.4,1.4,2.1c1.4,1.7,4,4.7,4.7,5.7c0.7,0.9,2.1,3.1,2.1,3.1
				s2.6-2.6,2.8-1.3c0.2,1.3,0,2.2,0.4,2.8c0.4,0.6,4.5,3.1,4.5,1.9s-0.3-1.2-0.8-2.3c-0.5-1.2-0.2-2.6,1.1-1.5s3.6,1.3,3.5,2.5
				c-0.1,1.3-0.6,1.8,0.2,3.4s3.2,2.7,4.4,4.5s2.9,3.2,3.5,1.8c0.6-1.4,1.3-3.6,2.9-2.3c1.6,1.3,3.6,4,5.4,4.2
				c1.8,0.2,3.1-0.7,3.9-1.7c0.7-0.9,0.5-1.5,0.5-2.5c0-1,2.2-0.7,4.5,0.9c2.3,1.7,7.6,6.1,8.1,2c0.4-4.1,0.6-4.3,2.8-4.6
				s3.7-0.2,4.3,2.1c0.6,2.3-0.2,1.8,1.3,3.6c1.5,1.8,3.1,3.6,3.1,4.8c0.1,1.2,0.7-2.6,2.1-2.9c1.4-0.3,2.9-0.3,4.7,1.1
				c1.8,1.4,4.2,2.6,4.3,3.9c0.1,1.3,0.4,1.8,1.3,1.8s1,1.5,0.4,2.4c-0.6,0.9-0.2,1.8,0,2.1c0.2,0.3,1.1,1.1,2.9,3.2
				c1.8,2.1,3,4.7,3.6,5.9c0.6,1.2,2,2,3.5,0.2c1.5-1.8,1.8-2,3.7-2.2c1.8-0.2,3.3-0.7,0.8-4.3s-4.3-6-2.4-7c2-1,5.9-2.8,4.2-4.1
				s-3.2-3.9-2.9-5.8c0.3-1.9,1.5-2.6-1-4c-2.5-1.4-2.8-3.8-3.7-5c-0.9-1.2,0.2-2.1-0.6-2.6s-2.6-1.7-3.6-2.6
				c-1-0.9-1.1-1.7-1.3-3.4c-0.2-1.8,0.4-2.9-3-2.9s-5.5,0.2-6.7-2.4c-1.2-2.6-0.3-2.2-0.3-4.5c0-2.3,0.2-5.6-2.9-5.6
				c-1.9,0-2.2-0.6-2.2-1.3c-0.9-0.7-1.9-2.3-2.9-5.5c-0.7-1.8-3.9-8.5-8-7.6c-2,5.3-4,10.3-9.1,12.5c-0.4,2.6,0.1,6.2-6.5,7.2
				c-0.7,3.1-4.6,6.6-8,0.8c-2.9-5.1-7.4-13.4-24-18.9c-0.9-0.1-4.4-0.5-5.5,7.3c-0.9,0.9-3,3.2-5.1,5.7c0.3,0.6,0.5,1.3,0.5,2.2
				C671,65.5,670.9,65,671.9,66.3z"/>
		</g>
		<g>
			<path class="st3" d="M723.2,161.3c4.2-2.1,1.6-1.6,1.7-5.2s3.9,0.1,6.1,0.9c2.1,0.9,1.1-0.5,0.5-2.7c-0.6-2.2,0.5-6.1,2.1-9.6
				c1.6-3.6-2.2-2.8-3.3-3.7c-1.1-0.9-0.2-2.9-0.6-3.9c-0.4-1-2.6-3,1.5-3c4,0,3.1-3,3.8-4.3c0.8-1.3,1.1-1.1,3.7-1.4
				c2.6-0.3,1.1-4.9,1.3-6.1c0.2-1.2,1.8-1.3,1.7-2.8c0-1.5-0.9-4.4-1.1-6.6c-0.2-2.2-1.9-6-2.7-9c-0.8-3.1,0.3-3.9,0.3-3.9l0.4-0.1
				c-0.1-1.2-1.6-3-3.1-4.8c-1.5-1.8-0.7-1.3-1.3-3.6c-0.6-2.3-2-2.4-4.3-2.1c-2.2,0.3-2.4,0.5-2.8,4.6s-5.8-0.3-8.1-2
				c-2.3-1.7-4.5-2-4.5-0.9c0,1,0.2,1.5-0.5,2.5c-0.7,0.9-2,1.8-3.9,1.7c-1.8-0.2-3.8-2.9-5.4-4.2c-1.6-1.3-2.3,0.9-2.9,2.3
				c-0.6,1.4-2.2-0.1-3.5-1.8s-3.6-2.9-4.4-4.5s-0.3-2.1-0.2-3.4c0.1-1.3-2.2-1.5-3.5-2.5c-1.3-1-1.6,0.4-1.1,1.5
				c0.5,1.2,0.8,1.2,0.8,2.3c0,1.2-4.1-1.3-4.5-1.9c-0.4-0.6-0.2-1.5-0.4-2.8c-0.1-1.3-2.8,1.3-2.8,1.3s-1.4-2.1-2.1-3.1
				c-0.7-0.9-3.3-4-4.7-5.7c-1.4-1.7-1.5-0.2-1.4-2.1c0.1-2-1.2-3.4-2.1-4.7c-1-1.3-0.9-0.7-1-2.6c0-0.9-0.3-1.7-0.5-2.2
				c-3,3.4-6,7.1-6,7.1l-6.4,1.9c0,0,3.4,7.8,20.1,24.5c0,2.3-0.3,2.3,2.9,4.7c3.2,2.4,4.8,7.4,5.8,13c-0.1,3.5,1.4,8.5,6.6,3.6
				c3-2.8,3.2-4.4,3.7-8.6c0.2-0.5,0.5-0.7,1-0.5c0.3,0.2,0.6,0.6,0.9,1.3c0,1-0.2,5.7,1.5,6.4c1.8,0.7,4.5,0.1,6.2-1.7
				c1,3.4,2.5,4.8-1,12.1c-2.2,2.6-5.8,6.6-5.8,6.6l1.6,1.6l2.3-2.5c0,0,2.1-0.2-0.2,3.4s-2.8,6.3-2.8,6.3l-4.8,1.9
				c0,0,3.2,4.3,3.9,1.5c1.3,0.8,3,2.9,3.4,6.8s2.1,3.7,4.5,6.1c2.4,2.3,3.4,4.9,4,7.1s0.5,2.6,8,4c0.1,0.1,0.1,0.2,0.2,0.3
				c-0.2-0.7-0.3-1.4-0.4-2C719.5,164.8,719,163.4,723.2,161.3z"/>
		</g>
		<path class="st3" d="M891.3,234.9c0,0,0.4,0.1,1.3-0.1c0.9-0.1,2.3-1.9,2.3-1s-0.5,1.5-1.4,2.2
			C892.6,236.7,890.6,238.1,891.3,234.9z"/>
		<g>
			<g class="st4">
				<path class="st3" d="M1004.2,132.3c-0.4-0.7-0.9-3.1-1.5-3.1c-0.6,0-1.3-1.3-1.8-2.5s-1.9-3.4-3.5-3.3s-6.6,2.1-7.7,2.5
					c-1.2,0.4-4.4,1.1-5.7,1.1s-5.5,0-5.5,0s-2.1-0.7-2.1-1.4c0-0.7-0.2-3.4-2.3-2.1c-2.2,1.4-3.4,3.4-4.3,3
					c-0.4-0.2-0.7-0.2-0.9-0.3c-0.7,0.4-1.9,0.8-3.8,1.2c-4.1,1.8-6.8,4.1-6.5,5.1s1.2,1,1.9,2.2c0.7,1.2,2,2.7,2,4.2
					c0,1.5,0.4,3.3-0.8,3.1s-1-1.1-4.9-0.3c-3.4,0.7-4.6,1.8-7.5,2c-1.9,0.9-3,1.2-3.5,1.6c-0.6,0.4-0.6,1.8-0.7,2.9
					c-0.2,1.1-1.1,5.6-2.6,5.7s-3.5-0.4-4.4-0.8c-1-0.4-2.4,0.1-2.4,1.3c-1.2,0.2-2.4,0-4.8,0c-2.5,0-8.7-0.3-13-3.3
					c-0.1-0.1-0.3-0.1-0.4-0.2c-0.3,0.3-0.6,0.8-0.9,1.3c-0.7,1.2-2.9,7-2,7.6c0.9,0.7,3.7,1.2,5.1,1.7c1.4,0.5,4.4,1.4,6.2,1.6
					c0.5,0,0.9-0.1,1.4,0.1c1.3,0.1,3.1,0.5,5,1.4c0.6,0.3,1.9,1.5,2.1,0.3c0.3-1.2,1.4-0.6,1.4-0.6s3.1,1.2,3.9,1.8
					c0.8,0.6,3.8,2.4,5.9,2.6c2.1,0.2,4.6,0.2,4.3-0.3s-4.6-1.2-3.7-2.6c1-0.1,2-1,1.8-2.1c0.5-0.3,1.2,0.4,1.2,0.9
					c0,0.5,1,0.7,1.2-0.9c0.5-0.6,1.3,0.3,1.2,0.9c0,0.7,1.3-0.5,2.1-1.1s2.9-1.8,1.5,0.3c-0.7,1-1.1,1.7-1.1,1.8
					c0,1.8,1.8,3,2.4,2.7c2.3-1.2,3.3-2.2,4.8-2.2c1.5,0.1,3.9-0.9,4.3-1.5c0.4-0.6,4.3-5.2,4.5-7.5c0.2-2.3,0.3-3-0.9-3
					c-0.2-4.4,0.5-7.8,0.5-7.8s1.7-2.4,3.6,0.4c1.8-1.4,3-1.9,3.4-0.6c0.3,1.3,1.3,1.3,2.3-0.3s1.4-2.1,1.4-1.8
					c0,0.3,0.8,2.7,0.8,2.7s2.4,0.2,3.4-0.9s3.5-3.9,4-4.9c0.7-0.5,3.7-0.6,3.7-0.6s2.3-2.6,3.4-3.5c-0.1-1.3-0.2-3.2,1.4-3.6
					s1.7,0.6,1.7,0.6s1.9-0.9,2.3-1.3s0.6,1.8,0.9,2.4c0.3,0.6,1.6,0.8,2.9-0.4l1.1-0.8C1005.8,133.9,1004.6,133.1,1004.2,132.3z"/>
			</g>
			<path class="st3" d="M970.2,149.6c0,0-0.8,4-0.1,3.9c0.7-0.1,1.9-1.8,2.3-2.8C972.7,149.7,971.8,148.6,970.2,149.6z"/>
			<path class="st3" d="M974.3,148.3c0,0-0.4,4.1-0.4,4.3s-0.1,1.2-0.9,1.2s-0.8,0.9-1,2c-0.2,1.1-1.3,5.9-1.3,5.9s-0.6,2,1,1.4
				c1.5-0.6,6.6-4.8,6.9-5.2c0.3-0.4,1.9-0.9,2.7-1.6c0.8-0.7,2.3-2.1,2.3-2.9s0-2.2-1.5-1.8s-2,1.3-3.2-0.5
				C977.6,149.2,976,147.3,974.3,148.3z"/>
			<path class="st3" d="M987.4,151.9c0,0-0.7,0.9-0.9,2c-0.2,1.1-0.2,3.6,0.4,2.9s1.3-2.3,1.3-3.3S988.5,151.8,987.4,151.9z"/>
			<path class="st3" d="M991.1,145.2c0,0,4.3-2.4,5.2-2.4c0.9,0.1,0.4,0.9-0.3,1.5c-0.7,0.7-3.2,2-4,2.6
				C991.2,147.6,988.5,148.5,991.1,145.2z"/>
			<path class="st3" d="M999.6,141.3c0,0-1.4,0.9-0.9,1.1s-0.4,0.7-0.2,1.1c0.2,0.4,1.3,0.4,2.2-0.2s1.6-0.7,3-0.7
				c1.4,0,2.1-0.8,2.4-1.5s1-1.7-0.9-1.5c-1.9,0.2-1.5,0.8-2,1.5s-0.7,0.7-1.5,0.6C1001,141.6,1000.7,141.2,999.6,141.3z"/>
			<path class="st3" d="M981.9,157.2c0,0-1.7,1-2,1.7s-0.7,2.1,0.2,1.8c0.8-0.3,1.8-1.5,1.9-1.6
				C982.1,158.9,982.9,157.1,981.9,157.2z"/>
			<path class="st3" d="M978.5,161.1c0,0-1,0.2-1.4,0.7c-0.4,0.4-0.9,1.5-0.4,1.4s1.7-0.6,1.9-0.9
				C978.9,161.9,979.6,161.1,978.5,161.1z"/>
			<path class="st3" d="M984.1,159.1c0,0-1.8,2.2-2.1,2.9s-0.4,1.4-0.4,2s-0.2,1.4-0.7,2.4c-0.6,0.9-1.3,3-2.1,4
				c-0.9,1-3,2.6-3.3,2.7c-0.3,0.1-0.2,0.3-0.4,1.4s-0.4,3,0.1,2.6s1.2-0.9,1.6-2.1s1-2.4,1.8-3c0.8-0.7,2.5-4.1,2.8-4.6
				c0.3-0.5,1.8-2.7,1.8-3.2c0-0.5,1-2,1.3-2.5C984.5,161.1,985.4,158.5,984.1,159.1z"/>
			<path class="st3" d="M979.4,163.5c0,0-1.5,0.8-1.9,1.3s-1.1,1.5-1.1,2.3s0.2,1.3-0.2,1.7c-0.4,0.4-2.4,1.1-2.4,1.1
				s-0.7,0.9,0.2,1s2.4-0.2,3.1-0.9c0.7-0.7,1-2.1,1.7-2.6c0.7-0.5,1.8-1.6,1.9-2C980.7,165,980.6,162.6,979.4,163.5z"/>
			<path class="st3" d="M968.9,172.4c0,0-1.3-0.2-1.7,0.1c-0.4,0.3-0.1,1,0.4,1.5s2.4,0.8,2.4-0.4S969.5,172.3,968.9,172.4z"/>
			<path class="st3" d="M972.1,167.7c0,0-1,0.7-1.4,1.3c-0.4,0.6-0.9,1.8-0.4,1.7c0.5-0.1,1.3-0.2,2-0.7
				C973,169.4,973.5,167.5,972.1,167.7z"/>
			<path class="st3" d="M994.7,161.8c0,0-1,0.1-1.4,0.8s-0.6,1.5,0.1,1.5C994,164.1,995.3,162.8,994.7,161.8z"/>
			<path class="st3" d="M998.5,163c0,0-1.2,0.2-1.5,0.7c-0.3,0.4-1.8,2.1-1.1,2.6c0.7,0.5,1.5-0.2,1.8-0.7
				C998,165,999.4,162.7,998.5,163z"/>
			<path class="st3" d="M992.8,164.9c0,0-1.4,0.2-1.4,0.7s-0.1,1.1,0.2,1.4s0.2,0.7,0,0.8s-0.7,0.7-0.7,1c0,0.3,0.8,0.4,1.3,0.1
				s1.2-1.8,1.2-2.4C993.3,166,993.8,164.8,992.8,164.9z"/>
			<path class="st3" d="M966.9,175.3c0,0-0.6,1,0,1.6c0.6,0.6,1.4,1.4,1.9,1.3c0.5-0.1,2.1-0.6,0.9-1.6c-1.3-1-1.5-0.1-1.5-0.1
				S967.9,175.2,966.9,175.3z"/>
			<path class="st3" d="M971.7,177.4c0,0-1-0.4-1,0.4c0,0.7-0.1,1.7,0.3,1.8c0.4,0.1,1.5,0.1,1.5-0.7
				C972.5,178.1,972.2,177.3,971.7,177.4z"/>
			<path class="st3" d="M976.5,179.5c0,0-1.2,0.2-1.2,0.5s0.3,1.3,0.8,1.2C976.7,181,977.5,179.5,976.5,179.5z"/>
			<path class="st3" d="M970.8,181.1c0,0-0.5,0.3-0.5,0.6c0,0.3,0.4,0.7,0.7,0.4C971.3,181.9,971.6,181,970.8,181.1z"/>
			<path class="st3" d="M975.1,182.3c0,0-0.7,0.4-0.9,0.5c-0.2,0.1-1,0.4-0.5,0.7c0.5,0.3,1.3,0.1,1.3,0.1S976.2,182.3,975.1,182.3z
				"/>
			<path class="st3" d="M973,175c0,0-1,0-0.8,0.4c0.2,0.4-0.2,0.6,0.4,0.7C973.1,176.2,974.1,174.9,973,175z"/>
			<path class="st3" d="M973.4,163.8c0,0-1.3,0.1-1.3,0.6c0,0.5,0,0.5,0.7,0.4C973.6,164.8,974.6,163.9,973.4,163.8z"/>
			<path class="st3" d="M993.5,140.9c0,0-1.7,0.8-1,1.4C993.3,142.9,994.9,140.7,993.5,140.9z"/>
			<path class="st3" d="M1003.5,137.1c0,0-1.8,0.4-1.2,1s1,0.3,1.5-0.1C1004.4,137.6,1004.4,137,1003.5,137.1z"/>
			<path class="st3" d="M1005.3,135.7c0,0,2.9-2.4,4.5-2.4s1.8,1.3,0.4,1.5c-1.5,0.2-2,0.2-2.5,0.6s-1,1-1.6,1
				S1005.3,136.8,1005.3,135.7z"/>
		</g>
	</g>
	<g>
		<g class="st4">
			<path class="st3" d="M921.8,837l-1.3-1l-0.3-3.2l-1.5,1.9l-2.3,2.8c0,0-0.3,0.9-2.2-1.3c-1.2-0.7-1.2-0.7-3.1,0.6
				c-1.6,1.2-4.1,2-5.3-0.4c0.6-1.5,1.8-3.1,0-3.4s-4.4-0.6-4.4-4c-0.4-0.6-0.7-0.9-2.3-0.9c-1-0.3-2.2-1.5-2.2-2.9
				c-0.3-0.2-0.3-0.4-1.6,0c-1.3,0.4-7.3,0.7-7.3,0.7s-1.5,0.2-1.5,2.8c-1.6,0.9-4.1,0.9-5.3,0.9c-0.8,0-2.9-0.3-4.2-0.4
				c-0.4,1.3-1.1,3-1.9,3.8c-1.5,1.5-3.8,4-3.8,4l-1,1l-3.1,3.2c0,0-0.2,0.1-0.6,0c0.7,0.8,1.8,1.9,3.5,2.1c3,0.3,5.2-0.3,5.2-0.3
				s2.3-1.6,3.1-1.8c0.4-0.1,0.9-0.2,1.3-0.2c2,0.2,5.1,3.4,6.8,3.5c1.7,0.1,3.2-0.4,5.2-1.3s5.5-2.9,8.8-2.6s4.5,0.2,5.8,1
				c1.3,0.8,2.9,1.1,4.7,1.2c1.8,0.1,5.3,0.4,7.2,1.3c1.9,1,3.3,0.2,4.1,0s4,0.1,4.4,0.6c0.8,1.2,3.1,0.8,2.9-0.9
				c-0.2-1.7-0.6-3.3-0.7-5.3c0-0.6-1.9-2.6-3-4.7l-2.5,2.1L921.8,837z"/>
		</g>
		<g>
			<path class="st3" d="M892.9,843.9c0,0-4.9,2.4-0.8,2.6c4.1,0.2,2.9-1.3,5.6-0.8s4.9,1.2,6.2,4.3c0,0,2.5,6.2,6,8.6
				s5.3,3.8,6.9,4.8c1.6,1,3.4,1.8,4.2,0.3c0.8-1.6,2.5-4.5,1.6-6.1c-0.9-1.6,3.7,3.4,5.6,0.3c1.9-3.1,3.9-4.8-1.6-7
				c-5.5-2.2-8.7-2-11.9-3.4c-3.2-1.4-8.5-3.8-9.7-4.3C903.2,842.5,896.6,842.2,892.9,843.9z"/>
			<path class="st3" d="M919.8,866.7c-2.9-1.6-7.9-4.2-10-5.7c-2-1.5-4.8-5.2-5.8-7c-1-1.8-3.2-6.4-4.3-6.8
				c-1.1-0.4-3.4-0.2-5.4,0.5c-1.2,0.4-2,0.4-2,0.4s-0.7,0.3-1.6-0.6c-0.9-0.9-3.1-2.5-3.9-2.5c-0.7,0-2-0.3-2.6-0.6
				c-0.1,0-0.2-0.1-0.3-0.1c-0.1-0.1-0.4-0.3-0.7-0.5c-0.6,0.2-1.3,0.6-1.9,1.1c1,0.1,1.9,0.3,2.5,0.6c0.1,0,0.2,0.1,0.2,0.1
				c1.6,0.8,5,3.2,6,4.3c1,1.1,7,7.8,8,9c1,1.1,7.5,6.2,9.2,7.2s8.5,6.2,9,7.3c0.5,1.1,1.6,2.8,3.3,0.7c1.7-2,2.5-1.8,2.6-2.3
				C922.5,871.4,922.7,868.3,919.8,866.7z"/>
		</g>
		<g class="st4">
			<path class="st3" d="M845.2,842.8c-1,0.1-2.4,0.8-2.4,1.8s-0.4,1.9-1.5,1.9c-1.1,0-4.2,0.7-4.2,0.7s-1.8-1.4-2.5-2.8
				c-0.8-1.3-1.9,0.3-2.2,0.8c-0.2,0.3-2.2,2.4-3.5,3.7c1.7,1,3.3,1.9,3.8,2.3c1.3,1.1,9.9,9.9,9.9,9.9l3.4,3c0,0,0.4,1.2,1.2,2.3
				c0.8-0.3,1.5-0.7,1.7-1c0.8-1,3.3-2.8,3.3-2.8l2.8,1.9c0,0,2.4,0.1,3.6,0.1c1.2,0,3.3-0.8,3.9-0.9c0.5-0.1,2.4-0.9,2.4-0.9l2.2-1
				c-1.1-1.9-4.3-4.6-4.6-5c-0.3-0.5-2.9-3.1-4.3-3.3s-2.8-1.7-3.4-3c-0.7-1.3-2.2-3.7-2.4-4.2c-0.2-0.4-3.6-2.5-4-2.6
				c-0.2-0.1-1.6-1.3-2.4-2.2C845.9,842.1,845.8,842.7,845.2,842.8z"/>
		</g>
		<g class="st4">
			<path class="st3" d="M870.4,866.5c-1.4-1.5-2.5-3-3.3-4.8l-0.2,0.1l-2.2,1c0,0-1.9,0.8-2.4,0.9s-2.6,0.9-3.9,0.9
				c-1.2,0-3.6-0.1-3.6-0.1l-2.8-1.9c0,0-2.5,1.8-3.3,2.8c-0.3,0.3-0.9,0.7-1.7,1c0.2,0.4,0.5,0.7,0.8,1c0.6,0.6,0.5,1.3,0.2,2
				c-0.4,0.8-1,1.4-1.4,1.6c-0.7,0.4-2.5,1.9-3.6,2.3c-1.1,0.4-3.6,3.4-3.6,4.8c-1.1,1.7-0.7,2.3-1.7,1.7c-0.3-0.2-1.4,0.7-1.5,2.1
				c-0.1,1.4,0.8,1.8,2.1,1.8s0.8,1.4,0.8,1.4s-0.8,1.3-0.8,2.3c0,0.2,0,0.3-0.1,0.3c0.1,0.1,0.2,0.2,0.3,0.2
				c2.5-0.9,9.5,0.5,9.5,0.5s0,0,0,0c0.2-0.2,1.3-1.3,3.6-2.4c2.8,0,5.3-1.3,6.7-1.7s2.1-1.9,3.1-2s2.6-1.3,4.4-2.3
				c1.8-1,2-1.7,3.3-1.7c1.3,0,1.4-1.1,1.4-1.1s0-3.1,0-5.1c0-1.3,0.6-3.5,0.9-4.7C871.1,867.3,870.8,866.9,870.4,866.5z"/>
		</g>
		<g class="st4">
			<path class="st3" d="M893.7,858.9c0-0.4-0.1-0.9-0.2-1.5c-1.1-0.9-2.7-2.3-3-3.3c-0.4-1.5-3.7-6.1-7.2-6.5
				c-1.2-0.3-3.2-1.3-3.7-1.3c-0.7-1-0.8-1.5-0.8-1.5s0.8-0.1,1.9-0.4l0.2-0.8c0,0-1.3-3.2-4.6,1c-0.7,1.5-1.8,1-2.7,0.6
				c-0.3-0.1-1-0.2-1.7-0.3c0,0.3,0,0.8,0,1.3c0,1.3,1.3,1.5,1.3,1.5s0.3,1.8-0.1,2.1s-0.7,0.2-1.5,1.3c-0.7,1-3.4,2.3-3.4,2.3
				s-0.9-0.9-1.2-1.6c-0.3-0.7-2.3-0.6-3.5-0.8s0-1-0.4-1.4c-0.4-0.4-2,0.4-2.5,1c-0.3,0.3-0.6,0.8-0.9,1.3l4.1,3.8l2.6,2.6l0.2,0.4
				c0.3,0.4,2.2,2.8,2.7,3.3c0.6,0.5,2.6,1.6,3.1,2c0.2,0.2,1.6,1.8,3.4,3.7l3-0.2c0,0,2.6-1.2,3.7-1.3c1.1-0.1,4.1-0.3,4.3-1
				c0.2-0.7,0.4-3.3,1.5-3.6c1.1-0.3,2.2-0.2,3.5-0.4C892.9,861.1,893.9,860,893.7,858.9z"/>
		</g>
		<path class="st3" d="M891.7,861.3c-1.3,0.2-2.3,0.2-3.5,0.4c-1.1,0.3-1.4,2.9-1.5,3.6c-0.2,0.7-3.2,1-4.3,1
			c-1.1,0.1-3.7,1.3-3.7,1.3l-3,0.2c3,3.3,6.8,7.5,6.8,7.5l9.3,8.4l11.1,9.2l7.9,0.2c0,0,4.2-2.9,5.1-8.7c-0.1-1.7,0.8-3.5-3.3-6.3
			c-0.4-2.6-0.4-2.9-0.4-2.9s-4.3-5.9-10.8-10.6c-4.1-4-6.8-6.2-6.8-6.2s-0.5-0.3-1.1-0.8c0.1,0.6,0.2,1.1,0.2,1.5
			C893.9,860,892.9,861.1,891.7,861.3z"/>
		<g>
			<path class="st3" d="M883.9,879c0,0,0.7,1.8,2.6,4.8s2.6,3.2,4.2,4.7c1.6,1.5,3,3.3,3,4.7c0,1.4,0.3,2.6,1.5,2
				c1.2-0.6,2.7-1.9,2.6-3.5s-0.8-2-2.1-2.2c-1.3-0.2-6.1-4.8-6.8-5.8C888.3,882.5,884.6,878.3,883.9,879z"/>
			<g class="st4">
				<path class="st3" d="M890.6,902.7c0.1-1.2,0.1-1.5,0.1-1.5l-3.2,0.4c0,0,4.7-2.9,4.8-5.3c0.1-2.3,0.1-2.8-3.8-7.1
					c-0.7-0.7-2-2.4-3.4-5.4c-1.2-2.5-2.9-7.3-7.9-11.4c-2.2-1.8-4.1-3.3-5.7-4.8c-0.4,1.2-0.9,3.3-0.9,4.7c0,2,0,5.1,0,5.1
					s-0.1,1.1-1.4,1.1s-1.5,0.7-3.3,1.7c-1.8,1-3.4,2.2-4.4,2.3s-1.7,1.7-3.1,2c-1.4,0.3-4,1.7-6.7,1.7c-2.3,1.1-3.5,2.2-3.6,2.4
					c0.5,0.9,1.1,2,1.1,3c0,1.8,0,4.5,0,5.3s0.8,3,2.1,3s5.1-0.1,5.9-0.1s1.4,1.2,2.6,1.3c1.2,0.1,2,0.1,3.2-0.5
					c1.2-0.7,2.4-1.2,2.8,0.1c0.3,1.3,1.2,2,2.2,0.8c1-1.2,2.3-0.1,2.3,0.7c0,0.8-1.4,3.4-2,3.6c-0.5,0.2-0.3,1.5-0.3,2.3
					c0,0.7,0.2,3,0.2,3.7c6-2.1,14.4-5,16.2-5.2C886.6,906.2,890.2,904,890.6,902.7z"/>
			</g>
		</g>
		<g class="st4">
			<path class="st3" d="M868.3,905.5c0.5-0.2,2-2.9,2-3.6s-1.3-1.9-2.3-0.7s-1.9,0.5-2.2-0.8c-0.3-1.3-1.5-0.8-2.8-0.1
				c-1.2,0.7-2,0.7-3.2,0.5c-1.2-0.1-1.8-1.3-2.6-1.3s-4.6,0.1-5.9,0.1s-2.1-2.2-2.1-3c0-0.8,0-3.5,0-5.3c0-1-0.6-2.1-1.1-3
				c0,0,0,0,0,0s-6.9-1.4-9.5-0.5c-0.1,0-0.2-0.1-0.3-0.2c-0.3,0.5-1.4-0.1-1.8-0.6c-0.4-0.5-0.8,0-1.3,0.1s-1.9-1.4-1.9-1.4
				c0,1.4,0.1,2.5,0.9,3.5c0.8,1,1.6,2.8,0.4,3.8c-1.2,1.1-1.8,1.8-1.9,3.3c-0.1,1.1-0.9,2.4-1.3,3l0.7,1.4c0,0-0.1,1.2-0.5,1.8
				s-2.3,3.1-1.2,3.4c1.1,0.3,3.3,2.2,2.2,2.8s-4.6,1.2-3.5,2.4c1.1,1.2,3.2,1.1,3.4,2.1c0.2,1,0.4,2.5-0.7,3.4
				c-1.1,0.9-0.9,2.6-0.5,4c1.8,0.7,3.3,1.9,3.6,2.1c0.3,0.2,2.8-0.2,3.5-0.2c0.5,0,1.7,2,2.5,3.7c1.4-2.1,3-4.1,4.7-5.1
				c4-2.5,13.5-6.4,18.9-8.4c1-0.4,2.2-0.8,3.6-1.3c0-0.8-0.2-3.1-0.2-3.7C868,907.1,867.7,905.8,868.3,905.5z"/>
		</g>
		<g>
			<g class="st4">
				<path class="st3" d="M838.5,922.6c-0.8,0-3.2,0.4-3.5,0.2c-0.3-0.2-1.9-1.4-3.6-2.1c-0.3-1.3-0.5-3.1,0.5-4s0.9-2.4,0.7-3.4
					c-0.2-1-2.3-0.9-3.4-2.1c-1.1-1.2,2.4-1.9,3.5-2.4c1.1-0.5-1.1-2.4-2.2-2.8c-1.1-0.3,0.8-2.9,1.2-3.4s0.5-1.8,0.5-1.8l-0.7-1.4
					c-0.2,0.2-0.3,0.4-0.3,0.4l-7.2-4.7l-8.5-5c0,0-0.5-0.4-1.4,0.4s0.1,0.3-1.5,0c-1.6-0.3-2.1,0.4-2.4,0.3
					c-1.1-0.3-1.8-0.5-1.8-0.5l-1.5,1.7l-2.3-1.7c-0.2,2-0.3,3.3-0.3,3.3l-0.9,16.8c0,0-1.3,5.1-1.3,7.5c0,2.3,0.4,5,1,5.7
					c-0.9,1.4-1.7,2-1.2,4.3c0.4,2.5,0.5,4.2,0.2,5.2c-0.3,1-1.7,4-1.3,6.5c0.6,0.6,3.5,1.1,7.1-1.4c-0.2,3.1-0.2,3.1-0.2,3.1
					s-0.2,2.1-2.7,1.4c-0.5-0.2-2,0.7-0.3,1.6s3.5,1,3.1,1.4c-0.3,0.4-0.6,1.1-1.8,1c-1.1-0.2-2-0.3-2.9-1.8c-0.4-0.7-1.5-1-2,0.1
					c-0.6,1,0.7,2.7,1.7,3.8l-5.9-0.2c0,0-2.9,0.8-0.4,2.7c2.5,1.9,7.8,2.7,12.8,1.8s11.4-3.5,12.3-3.9s1.4-0.8,1.5-2.1
					c0.7-1.3,4.1-4.4,6.6-5.8c2.5-1.4,5.2-2.1,6.9-7c0.8-1.8,2.4-5.2,4.3-8.2C840.2,924.6,839,922.6,838.5,922.6z"/>
			</g>
			<path class="st3" d="M804.9,959.7c0,0-2.2,1.3-2,2c0.1,0.7,0.8,0.9,1.5,0.7C805.1,962.1,805.8,959.9,804.9,959.7z"/>
			<path class="st3" d="M804.9,959.7c0,0-2.2,1.3-2,2c0.1,0.7,0.8,0.9,1.5,0.7C805.1,962.1,805.8,959.9,804.9,959.7z"/>
		</g>
		<g>
			<g class="st4">
				<path class="st3" d="M847.9,867.3c-0.3-0.3-0.6-0.7-0.8-1c-0.7-1.1-1.2-2.3-1.2-2.3l-3.4-3c0,0-8.6-8.8-9.9-9.9
					c-0.5-0.4-2.1-1.3-3.8-2.3c-2.3-1.3-4.9-2.7-5.7-3.2c-0.1-0.1-0.2-0.1-0.2-0.1s-13.4-6.2-16.1-7.2c-2.6-1-3.4-4.3-4-5.2
					c-0.4-0.6-1.5-3.4-2.3-5.3c-1.7-0.4-4.2-1-6.6-1.1c-2.1-0.1-4.1,0.2-5.4,1.4c-2.8,2.6-5.5,5.7-5.5,5.7s-1.8-1.5-3.2-0.1
					c1,1.6,1.2,2.3,1.2,2.3s3.2,3.7,3.7,4.8s0.7,3.2,0.7,3.2s2.6-0.5,2.7,0.2c0.1,0.7,0.8,4.4,0.8,4.4s1,1.2,1,1.8s-0.7,2.7-0.7,2.7
					s1.3-0.2,2.1,0.3c0.8,0.5,1.9,1,1.9,1l0.4-0.7c0,0-0.3-3.1,2-4.2c2.4-1.1,3-1.3,4.7-0.4s4.5,2.7,5.1,5.4
					c0.6,2.7,2.3,4.8,4.3,3.8c2-1,5.7-1.1,6.8,0.4c1.1,1.5,4.3,6.8,4.3,6.8s-3,0.2-4.3,1.3c-1.3,1.1-3.2,4.1-3.2,4.1l-4,0.3
					c0,0-3.1,0.9-3.5,4.6c-0.2,1.6-0.5,5.1-0.8,8.5c-0.2,2.3-0.4,4.5-0.6,6.3l2.3,1.7l1.5-1.7c0,0,0.7,0.2,1.8,0.5
					c0.3,0.1,0.8-0.7,2.4-0.3c1.7,0.3,0.7,0.9,1.5,0s1.4-0.4,1.4-0.4l8.5,5l7.2,4.7c0,0,0.1-0.2,0.3-0.4c0.4-0.6,1.2-1.9,1.3-3
					c0.1-1.5,0.7-2.2,1.9-3.3c1.2-1.1,0.3-2.9-0.4-3.8c-0.8-1-0.9-2.1-0.9-3.5c0,0,1.3,1.5,1.9,1.4s0.9-0.7,1.3-0.1
					c0.4,0.5,1.5,1,1.8,0.6c0.1-0.1,0.1-0.2,0.1-0.3c0-1,0.8-2.3,0.8-2.3s0.5-1.4-0.8-1.4c-1.3,0-2.2-0.3-2.1-1.8s1.2-2.3,1.5-2.1
					c0.9,0.6,0.5,0,1.6-1.7c0-1.4,2.5-4.4,3.6-4.8c1.1-0.4,3-1.9,3.6-2.3c0.4-0.2,1-0.9,1.4-1.6
					C848.4,868.7,848.5,867.9,847.9,867.3z"/>
			</g>
			<g>
				<path class="st3" d="M772.2,879.8c0,0-0.5,1.2,0,1.2s1,0.7,0.8,1c-0.2,0.2-0.1,0.8,0.2,1.8c0.2,1,0.7,2.1,0.8,0.4
					c0.1-1.7,0.4-2.9-0.3-3.6C772.9,879.8,772.4,879.2,772.2,879.8z"/>
				<path class="st3" d="M774.7,878.4c0,0-0.7,0.4-0.2,0.7S775.8,878.5,774.7,878.4z"/>
				<path class="st3" d="M775.5,880.5c0,0-0.7,0.4,0.2,1c0.8,0.7,0.9,1.1,0.9,1.6s1,0.7,0.8-0.3
					C777.1,881.8,776.6,880.3,775.5,880.5z"/>
				<path class="st3" d="M776.5,884.5c0,0-0.6,0.9,0.1,0.9C777.2,885.4,777.4,884.5,776.5,884.5z"/>
				<path class="st3" d="M773.6,833c0,0-1.9,0.4-1.5,1.3s1.2,1,1.5,0.8C773.9,834.9,774.3,832.8,773.6,833z"/>
				<path class="st3" d="M773,842.2l-0.1,1.6c0,0,0.9-0.2,1-0.8C774.1,842.4,773.6,842.2,773,842.2z"/>
				<path class="st3" d="M751.7,832.5l-4.5,4.6l-2,0.2c0,0-2.6-0.5-3-0.5s-1.4,0.7-0.9,2s2.5,4.2,2.5,4.2s1,0.2,1.8,0.5
					c0.9,0.4,2,0.6,2.2,1.5c0.1,1,1.1,3.5,1.9,6.5s1.8,4.4,1.8,5.8c0.1,1.4,0,3,1.2,3c1.2,0,2.1,0.4,2.4,0.4c0.2,0,1.8-0.3,1.2-0.7
					s-0.7-0.3-0.6-1.5c0.1-1.2,0.8-1.1,0.6-1.4c-0.2-0.3-1.2-1.7-1.2-1.7s-0.2-0.7,0-1.7c0.2-1,0.7-3.2,0.7-3.2s0.5-1.6,1.3-2.3
					c0.7-0.7,1.7-2,1.3-3.5c-0.4-1.5-1-5.7-1-6.4C757.3,837.5,755.9,834.1,751.7,832.5z"/>
				<path class="st3" d="M752.7,861.5c0,0-1,0.6-0.1,1C753.4,862.8,754.3,861.9,752.7,861.5z"/>
				<path class="st3" d="M753.2,863.4c0,0-0.7,1.3-0.1,1.5C753.6,865,754.4,863.5,753.2,863.4z"/>
				<path class="st3" d="M753.4,866.5c0,0-0.5,0.7-0.1,0.9S754.8,866.5,753.4,866.5z"/>
				<path class="st3" d="M750.7,866c0.4,0.6,0.5,1.2,0.3,1.3c-0.2,0.1-0.6-0.3-1-0.9c-0.4-0.6-0.5-1.2-0.3-1.3
					S750.4,865.3,750.7,866z"/>
				<path class="st3" d="M717.4,903.2c0,0-2.9-0.7-1,1.7c1,1.1,2.1,0.8,2.6,0.2C719.6,904.6,720,903,717.4,903.2z"/>
				<path class="st3" d="M722.4,903.1c-0.1-0.1-0.7,0.1-1.4,0.6s-1.2,0.9-1.1,1c0.1,0.1,0.7-0.1,1.4-0.6
					C722,903.7,722.5,903.2,722.4,903.1z"/>
				<path class="st3" d="M727.4,900.2c0,0.4-0.3,0.7-0.5,0.7s-0.5-0.3-0.5-0.7s0.3-0.7,0.5-0.7S727.4,899.8,727.4,900.2z"/>
				<path class="st3" d="M718.2,906.9c0,0.2-0.2,0.4-0.5,0.4s-0.5-0.2-0.5-0.4s0.2-0.4,0.5-0.4S718.2,906.7,718.2,906.9z"/>
				<path class="st3" d="M717.9,909c0,0.2-0.2,0.4-0.5,0.4c-0.3,0-0.5-0.2-0.5-0.4s0.2-0.4,0.5-0.4
					C717.6,908.5,717.9,908.7,717.9,909z"/>
				<path class="st3" d="M791.9,872.4c0,0-1.6,1.1-1.8,1.6c-0.1,0.5,0.2,1,1.1,1s3.1-0.5,3.1-1.1
					C794.4,873.3,793.3,872.4,791.9,872.4z"/>
				<path class="st3" d="M772.2,879.8c0,0-0.5,1.2,0,1.2s1,0.7,0.8,1c-0.2,0.2-0.1,0.8,0.2,1.8c0.2,1,0.7,2.1,0.8,0.4
					c0.1-1.7,0.4-2.9-0.3-3.6C772.9,879.8,772.4,879.2,772.2,879.8z"/>
				<path class="st3" d="M774.7,878.4c0,0-0.7,0.4-0.2,0.7S775.8,878.5,774.7,878.4z"/>
				<path class="st3" d="M775.5,880.5c0,0-0.7,0.4,0.2,1c0.8,0.7,0.9,1.1,0.9,1.6s1,0.7,0.8-0.3
					C777.1,881.8,776.6,880.3,775.5,880.5z"/>
				<path class="st3" d="M776.5,884.5c0,0-0.6,0.9,0.1,0.9C777.2,885.4,777.4,884.5,776.5,884.5z"/>
				<path class="st3" d="M805.5,862.9c0,0-1.4-0.1-1.4,0.8s0.1,1.7,0.1,1.7s0.7-0.3,1.2-0.9C805.9,863.9,806.6,862.8,805.5,862.9z"
					/>
				<path class="st3" d="M786.8,859.2c0,0-0.6,0.1-0.6,0.8s-0.1,1.8,0.4,1.4s0.8-0.6,0.8-1.3S787.3,859.2,786.8,859.2z"/>
				<path class="st3" d="M773.6,833c0,0-1.9,0.4-1.5,1.3s1.2,1,1.5,0.8C773.9,834.9,774.3,832.8,773.6,833z"/>
				<path class="st3" d="M773,842.2l-0.1,1.6c0,0,0.9-0.2,1-0.8C774.1,842.4,773.6,842.2,773,842.2z"/>
				<path class="st3" d="M751.7,832.5l-4.5,4.6l-2,0.2c0,0-2.6-0.5-3-0.5s-1.4,0.7-0.9,2s2.5,4.2,2.5,4.2s1,0.2,1.8,0.5
					c0.9,0.4,2,0.6,2.2,1.5c0.1,1,1.1,3.5,1.9,6.5s1.8,4.4,1.8,5.8c0.1,1.4,0,3,1.2,3c1.2,0,2.1,0.4,2.4,0.4c0.2,0,1.8-0.3,1.2-0.7
					s-0.7-0.3-0.6-1.5c0.1-1.2,0.8-1.1,0.6-1.4c-0.2-0.3-1.2-1.7-1.2-1.7s-0.2-0.7,0-1.7c0.2-1,0.7-3.2,0.7-3.2s0.5-1.6,1.3-2.3
					c0.7-0.7,1.7-2,1.3-3.5c-0.4-1.5-1-5.7-1-6.4C757.3,837.5,755.9,834.1,751.7,832.5z"/>
				<path class="st3" d="M752.7,861.5c0,0-1,0.6-0.1,1C753.4,862.8,754.3,861.9,752.7,861.5z"/>
				<path class="st3" d="M753.2,863.4c0,0-0.7,1.3-0.1,1.5C753.6,865,754.4,863.5,753.2,863.4z"/>
				<path class="st3" d="M753.4,866.5c0,0-0.5,0.7-0.1,0.9S754.8,866.5,753.4,866.5z"/>
				<path class="st3" d="M750.7,866c0.4,0.6,0.5,1.2,0.3,1.3c-0.2,0.1-0.6-0.3-1-0.9c-0.4-0.6-0.5-1.2-0.3-1.3
					S750.4,865.3,750.7,866z"/>
				<path class="st3" d="M717.4,903.2c0,0-2.9-0.7-1,1.7c1,1.1,2.1,0.8,2.6,0.2C719.6,904.6,720,903,717.4,903.2z"/>
				<path class="st3" d="M722.4,903.1c-0.1-0.1-0.7,0.1-1.4,0.6s-1.2,0.9-1.1,1c0.1,0.1,0.7-0.1,1.4-0.6
					C722,903.7,722.5,903.2,722.4,903.1z"/>
				<path class="st3" d="M727.4,900.2c0,0.4-0.3,0.7-0.5,0.7s-0.5-0.3-0.5-0.7s0.3-0.7,0.5-0.7S727.4,899.8,727.4,900.2z"/>
				<path class="st3" d="M718.2,906.9c0,0.2-0.2,0.4-0.5,0.4s-0.5-0.2-0.5-0.4s0.2-0.4,0.5-0.4S718.2,906.7,718.2,906.9z"/>
				<path class="st3" d="M717.9,909c0,0.2-0.2,0.4-0.5,0.4c-0.3,0-0.5-0.2-0.5-0.4s0.2-0.4,0.5-0.4
					C717.6,908.5,717.9,908.7,717.9,909z"/>
			</g>
		</g>
		<g>
			<g class="st4">
				<path class="st3" d="M822.4,806.2c0.6,1.5,0.6,1.5,0.2,3.1c-0.4,1.6,1.3,2.6,1.7,3.9c0.3,1.8,1.9,3.1,3.5,4
					c1.5,0.9,1.8,1.3,2.3,3.2c0.2,2.2,1.6,3.5,2.9,4.1s4.1,0.7,5.1,0.1s0.4-2.2-0.7-3.5c-1.1-1.3-0.3-1.8-0.5-3.3
					c-0.3-1.4-2.3-1.9-2.3-1.9s-1.3-2.9-2-4.1c-0.7-1.2-2.6-1.6-3.5-2.2c-0.9-0.6-0.4,0.3-0.4-1.8c0-1.4-0.8-3.1-1.3-4
					c-2.3-0.7-2.8-0.9-3.5-2c-0.3-0.4-0.5-0.8-0.6-1.1C821.6,802.8,821.9,804.9,822.4,806.2z"/>
			</g>
			<g class="st4">
				<path class="st3" d="M850.4,835.8c-0.5-0.4-1.1-1-1.5-1.8c-1.4-2.3-2.6-6.5-6.8-5.9c-1.1,0.2-2-0.3-2-1.5
					c-0.3-0.1-1.9-1.2-2.7-0.2c0,0-1.3,0.9-0.2,2.9c1.2,2,2,3.7,3.6,3.9c1.6,0.2,2.1,0.2,2.6,1.3c0.4,1.1,0.4,1.7,0.4,2.2
					s0.5,1,1.6,2c0.2,0.2,0.8,0.7,1.5,1.4C847.5,839.3,848.8,837.1,850.4,835.8z"/>
			</g>
			<g class="st4">
				<path class="st3" d="M845.8,841.5c0-0.3-0.1-0.6-0.1-0.6s-3.5-3.3-4-3.8s-4.6-3.6-4.6-4.3s-1.3-3.5-1.5-4.8
					c-0.2-1.3-4.2-2.8-5.6-3.7s-1.2-2.5-1.2-3.3c0-0.8-1.9-2.9-2.5-3.4c-0.7-0.5-2.1-2.1-2.4-2.9c-0.3-0.8-0.2-1.2-0.9-2.1
					c-0.7-0.9-1.5-1.8-1.6-3c-0.1-1.2,0.4-2.1,0.2-2.8c-0.2-0.7-0.8-1.5-1-3.3c-0.1-1.2,1-2.9,1.7-3.9c-0.2-0.1-0.5-0.2-0.9-0.2
					c-0.8,0-3.7,4.5-3.7,5.1c0,0.6,0.2,1.6,1,3.6c0.7,2,0.7,4.5,2.1,5.9c0.4,1.5-0.4,2-2,2.9c0,0-6.2,1.8-9.5,8.2
					c-1.3,1.5-2.3,3.2-7.2,3c-0.3,0-0.8-0.1-1.3-0.2c0.8,2,2,4.8,2.3,5.3c0.5,0.9,1.3,4.2,4,5.2s16.1,7.2,16.1,7.2s0.1,0,0.2,0.1
					c0.8,0.4,3.4,1.8,5.7,3.2c1.3-1.3,3.2-3.4,3.5-3.7c0.3-0.4,1.4-2.1,2.2-0.8s2.5,2.8,2.5,2.8s3.1-0.7,4.2-0.7
					c1.1,0,1.5-0.9,1.5-1.9s1.4-1.7,2.4-1.8C845.8,842.7,845.9,842.1,845.8,841.5z"/>
			</g>
		</g>
		<g class="st4">
			<path class="st3" d="M924.9,826c0-0.1-0.1-0.3-0.1-0.4c-0.4-1.2-1.5-3.4-1.5-3.4l-3.7,0.2c0,0-1.9-0.9-3.4-0.9
				c-1.5,0-2.9,0.4-3.2-1.2c-0.3-1.6-2.4-3.2-3.4-4.4c-1-1.2-0.3-3.5,0.7-4.7c1-1.2,2.4-3.5,2.2-4.5c-0.1-1-3.5-3.4-4.3-3.5
				c-0.7-0.2-4.7-2.2-6.6-3.2c-0.1-0.1-0.2-0.1-0.3-0.2l0,0l0,0c-1.6-0.9-1.8-1.5-2.3-2.3c-0.6-0.9-2-0.6-2.6,0.2
				c-0.6,0.7-1.2,1.8-3.1,3.2c-0.1-0.2-0.8-0.6-1.7-1c0,0.1,0,0.1-0.1,0.2c0,0,0,0,0,0c0,0,0,0.1-0.1,0.1c0,0,0,0,0,0
				c0,0-0.1,0.1-0.1,0.1c0,0,0,0,0,0c0,0-0.1,0-0.1,0.1c0,0,0,0-0.1,0c0,0-0.1,0-0.1,0c0,0-0.1,0-0.1,0c0,0-0.1,0-0.1,0
				c0,0-0.1,0-0.1,0c0,0-0.1,0-0.1,0c-0.1,0-0.2,0-0.3,0c-1.5-0.2-2.4,0.4-1.5,2.6s2.9,6.7,2.6,7.7c-0.4,1-2,1.5-3.7,1
				c-1.7-0.5-4.7-1-4.7-1s-4-5.2-6.8-5.2c-0.7,3.2-1.3,5.2-3.4,3c0,0-2.6-3.7-3-5.1s-3.5-7.6-4.7-7.6c-1.2,0-4.9,2-6.2,2.7
				c-0.5,0.2-1.4,0.5-2.4,0.8c-0.4,0.1-3.8,1-3.8,1c-0.1,0-2.5,0.3-2.5,0.3c-0.6,0.1-2.9,0.3-3.3,0.3l0,0c1.2,2.2,3.3,3.1,4.5,3.8
				c1.9,1,2.2,1.9,1.9,3.8c-0.3,1.9,1,2.5,1,2.5s6.2,5.7,8.2,7.6c2,1.9,2.8,2.6,3.7,2.9c4.3,0,6,3.7,6.9,5.6
				c0.9,1.9,2.6,1.8,2.6,1.8s0.4,0.1,1.1,0.2c1.3,0.2,3.4,0.4,4.2,0.4c1.2,0,3.7,0,5.3-0.9c0-2.6,1.5-2.8,1.5-2.8s6-0.3,7.3-0.7
				s1.3-0.2,1.6,0c0,1.5,1.2,2.6,2.2,2.9c1.6,0,1.9,0.3,2.4,0.9c0,3.4,2.6,3.7,4.4,4c1.8,0.3,0.6,1.9,0,3.4c1.2,2.5,3.7,1.6,5.3,0.4
				c1.9-1.3,1.9-1.3,3.1-0.6c1.9,2.2,2.2,1.3,2.2,1.3l2.4-2.8l1.8-2.3l1.2,1.2v1.6l1.9-1l1-1l0.6-0.6l0.5-0.5
				C925.6,832,925.2,827,924.9,826z"/>
		</g>
		<g class="st4">
			<path class="st3" d="M943.1,826.5c0-1.8,0-2.2-0.4-2.1c-0.2,0.1-0.5,0.3-0.9,0.6c-2.6,2.6-5-0.7-5.9-1.5s-2-2-2.9-1.2
				c-0.9,0.8-2.9,0.3-5.1-1.9s-0.5-5.2-0.5-5.2s1.3,0.1,2.3-1.3s0.9-0.7,2.1,0c1.2,0.7,1.8-0.1,1.9-0.5s0.3-3.6-0.2-4.3
				s-1.5-2.6-1.7-3.8c0-0.6-0.6-1.1-1.1-1.5c-0.1,0.4-0.9,0.5-1.4,0.1c-0.1-0.1-0.2-0.1-0.3-0.2c-0.6-0.3-1.3,0.2-1.8,1.3
				c-0.6,1.3-1.5,1.6-1.9,1.2s-1-1.2-1.6-0.6c-1,1.5-1.3,1.3-1.3-0.2c0-2.3-3.7-6.6-5-7.6s-0.4-1.8-0.4-2.6s-1.5,0-2.5,0.7
				c-1.9-0.3-2.2-3.4-2.2-4.4s-1.9-2.2-2.8-3.2c-0.9-1-2.4,0.7-2.6,2c0,0.2-0.1,0.3-0.2,0.4c-0.1,1.4,0,2.3,0,3.7c0,2.6-2,3.3-2,3.3
				l-3.3,2l0,0c0.1,0.1,0.2,0.1,0.3,0.2c1.9,1,5.9,3.1,6.6,3.2c0.7,0.2,4.1,2.5,4.3,3.5c0.1,1-1.2,3.4-2.2,4.5
				c-1,1.2-1.8,3.5-0.7,4.7c1,1.2,3.1,2.8,3.4,4.4c0.3,1.6,1.8,1.2,3.2,1.2c1.5,0,3.4,0.9,3.4,0.9l3.7-0.2c0,0,1,2.2,1.5,3.4
				c2.4,0.8,3.7,0.2,0.7-4.1c0.5-0.3,0.1-2-0.2-3.7c0.7-0.6,0.7-2.6,0.5-3.6c-1.1-1.7-2.8-1.3-2.3-1.7c1.4-1.1,3.4,1.3,3.4,1.3
				l-0.3,4.4l0.4,4c0,0,1.3,1.5,1.6,2.6c0.3,1-1.6,2.6-1.6,2.6l0.6,4.8c0,0-0.2,1.5,1.3,3c0.9,0.9,2.4,3.6,3.2,2.9
				c2.5-2.1,0.6-6.9,0.6-6.9s1.7,0.2,2,1.8c0.1,0.5-0.6,6.3,0.7,6.4c1.3,0,1.4-1.1,2.2-1.2s1.9,0.5,2.5-0.4s-1.3-1.9-1.3-1.9
				s-1.6-0.4-1.1-2.5c1.1-2.1-0.8-3.6-0.8-3.6h2.4c0,0-0.2,2.2-0.2,3s0.6,1.9,1.4,0.4c0.7-1.5,1.3-2.5,1.3-2.5l1.3,0.6
				c0,0,0.2,0.4,0.4,1C943.2,830.2,943.1,828.1,943.1,826.5z"/>
		</g>
		<g class="st4">
			<path class="st3" d="M908.8,757.6c-0.2-0.4-1.5-1.8-2.8-3.1c0,0.2,0,0.3,0,0.3s-4.5,0.2-6.8-0.4c-2.2-1.1-4.6-2.8-11.8-3.8
				c-3.7-1.2-5.7-2.5-7.6,1c-0.6,1.3-1,4-2,5c-0.6,0.6-1.9,0.1-2.5-0.2c-2-1.3-3.5-1.8-5.2,0.3c-1.4,1.7-0.9,4.6-0.9,4.6
				s3.5,0,3.7,2.2c0.2,2.2-0.1,3.3-0.1,3.3s0.2,2.8,0.1,3.3c-0.2,0.5-1.6,3.2-1.9,3.9c-0.3,0.7-0.9,2.7-0.2,5.8
				c1.4,0,2.9,0.2,3.4,2.9c2,2,7.4,6.9,7.4,6.9s2.9,2.3,6.8,3.3c0.1,0,0.1,0,0.2,0.1c0,0,3.4,1.8,3.4,4c0,1.2,0,2.2-0.2,2.8
				c0.8,0.4,1.6,0.8,1.7,1c1.9-1.5,2.5-2.5,3.1-3.2c0.6-0.7,2-1,2.6-0.2c0.5,0.8,0.7,1.4,2.3,2.3l3.4-2c0,0,2-0.7,2-3.3
				c0-1.4-0.1-2.3,0-3.7c-0.5,0.3-1.5-1.4-1.4-2.3c0.1-1-0.6-2-1.3-2.2c-0.6-0.1-1.8-2-2.8-3.5c-0.3-0.5-0.6-0.9-0.9-1.3
				c-1-1.5-0.3-2.3,0.7-3.4c1-1,0.9-3.7,1-5.1c0.1-1.5,0.4-2.8,2-3.7s1.5-1.3,1.8-3.1c0-1.3,1.2-1.7,2.2-1.8c0.8-1.2,1.9-2.6,2-3.1
				C910.1,760.3,909.2,758.5,908.8,757.6z"/>
		</g>
		<g class="st4">
			<path class="st3" d="M935.8,784.6c1.1-1.5,2.8-3.6,4-5.8c-0.3,0.1-0.5,0.2-0.6,0.2c-0.4,0.2-1.2-1.6-1.6-2.5
				c-0.4-0.9-1-0.4-2.5,0.9c-1.5,1.3-2,1.8-2,0.6s-0.6-2.9-1.8-3.8c-1.2-0.9-2.5-0.4-3.1-1c-0.6-0.6,1-2.2,1.9-3.2
				c0.9-1,1-1.3-0.6-1.8c-1.6-0.4-1.8-0.6-2.6,0.2c-0.9,0.7-1.3,1.6-1.6,2.2c0,1.8-0.7,2.2-1.3,2.3c-0.6,0.2-1.2-0.3-1.3,0.6
				c0,2.5-2.5,3.1-3.7,2.5c-1.2-0.6-1.5-1-3.8-0.7c-2.4,0.3-3.5-1-1.9-4.3c1.6-3.2-0.1-2.2-2.9-2.3c-2.8-0.2-2.9-1.3-2.9-2.6
				c0-0.5,0.3-1.1,0.7-1.7c-1,0.2-2.2,0.6-2.2,1.8c-0.3,1.8-0.2,2.2-1.8,3.1s-1.9,2.2-2,3.7c-0.2,1.5,0,4.1-1,5.1
				c-1,1-1.8,1.9-0.7,3.4c1,1.5,2.9,4.7,3.7,4.8c0.7,0.2,1.5,1.2,1.3,2.2c-0.1,1,1.3,3.2,1.6,1.9c0.3-1.3,1.8-3.1,2.6-2
				s2.8,2.2,2.8,3.2c0,1,0.3,4.1,2.2,4.4c1-0.7,2.5-1.6,2.5-0.7s-0.9,1.6,0.4,2.6s5,5.3,5,7.6c0,1.5,0.3,1.6,1.3,0.2
				c0.6-0.6,1.2,0.2,1.6,0.6s1.3,0.2,1.9-1.2c0.5-1.1,1.1-1.6,1.8-1.3c0,0,0,0,0,0c0.1,0,0.2,0.1,0.2,0.2c0.1,0,0.1,0.1,0.2,0.1
				c0,0,0,0,0,0c0,0,0.1,0,0.2,0c0,0,0,0,0,0c0.1,0,0.1,0,0.2,0c0,0,0,0,0,0c0,0,0.1,0,0.2,0c0,0,0,0,0,0c0,0,0.1,0,0.1,0
				c0,0,0,0,0,0c0,0,0.1,0,0.1-0.1c0,0,0,0,0,0c0,0,0.1,0,0.1-0.1c0,0,0,0,0,0c0,0,0.1-0.1,0.1-0.1l0,0l0,0c0.1-0.2,0-0.4-0.2-0.6
				c-0.7-0.7-2.3-1.6-2.5-2.3c1.2-0.6,2.5-0.4,2.5-2.8c-0.9-1.5,0.6-2.6,2.4-1.5c1.8,1.2,2.8,1.3,5.4-2.3c0.7-1.9,1.6-2.8,1-4.1
				C938.7,788.7,934.1,786.8,935.8,784.6z"/>
		</g>
		<g>
			<g class="st4">
				<path class="st3" d="M945.8,835.1c0.2,0.5,0.6,1.3,1.8,1.3s3.2-0.2,2.6,0.8c-0.7,1-1.2,4,0.1,3.2c1.3-0.7,2.2-2.8,3.7-2.6
					s2.9,2.2,3.2,2.6c0.2,0.4,2.8-1.3,4.3-2.6c1.5-1.4,3.7-4,6.1-4.5c2.3-0.5,6.1-1.7,9.1-4.3c-0.2-1.2,1.2-4.3,1.2-4.3
					s-2-6.2-2.2-6.8c-0.2-0.7-2.9-4.8-2.9-4.8s0.1,0,0.3-0.1l-1-1.1c0,0-1.7-1-3.1,0.3s-3.1,2.1-4.4,5.8c-0.7,1.7-3.5,3.3-4.5-1.3
					c0.2-2.6,1.4-3.3-1.9-3.1s-6,0.5-6,0.5s-2.8,1.5-2.1,2.5c0.7,1,1.8,1.3,0,3.1s-1.9,2.3-1.9,2.3l-4-0.1c0,0-0.9,0.4-0.9,1
					c0,0.2-0.3,0.8-0.5,1.4c0.4-0.1,0.4,0.3,0.4,2.1c0,1.6,0.1,3.7,0.3,5.7c0.2,0.7,0.5,1.5,0.5,1.7
					C944,834.3,945.6,834.6,945.8,835.1z"/>
			</g>
			<path class="st3" d="M918.4,940.7c0,0-3.3,2.6-4.2,3.5c-0.9,1-2.6,2.7-2.5,3.3c0.1,0.7,1.2,1.8,1.6,2.1c0.5,0.3,1.9,1.2,2.2,0.9
				c0.3-0.3,0.2-2.6,0.2-2.6l0.8-0.5c0,0-0.2-0.5,0.2-0.5s1.6,0,1.6,0s0.9-0.7,0.5-1.4c-0.4-0.8-0.7-1.2,0-1.3c0.7-0.1,1.2,0,1.2-1
				C920.1,942.3,919.9,940.6,918.4,940.7z"/>
			<path class="st3" d="M920.1,946.8c0,0-1.3,1.2-0.7,1.5s2-0.1,2-0.1s0.6-1.2,0.1-1.2C921,946.9,920.1,946.8,920.1,946.8z"/>
			<path class="st3" d="M910.9,949.2c0,0-0.4,0.6,0.3,0.9c0.7,0.3,1-0.3,1-0.3S911.8,948.4,910.9,949.2z"/>
			<path class="st3" d="M917.4,949.1c0,0,0,0.1-0.1,0.3c-0.1,0.3-0.1,0.8,0.2,0.8C918,950.2,919.1,949.3,917.4,949.1z"/>
			<path class="st3" d="M923.6,945.6c0,0-1,1-0.3,1.2s1-0.5,1-0.5S924.2,945.6,923.6,945.6z"/>
			<path class="st3" d="M923.8,939c0,0-0.8,0.8,0.1,0.9s0.8-0.9,0.8-0.9S924.1,939,923.8,939z"/>
			<path class="st3" d="M888.8,950.9c0,0.3-0.3,0.5-0.7,0.5c-0.4,0-0.7-0.2-0.7-0.5c0-0.3,0.3-0.5,0.7-0.5
				C888.5,950.4,888.8,950.6,888.8,950.9z"/>
			<path class="st3" d="M886.4,952.7c0,0.2-0.3,0.4-0.7,0.4c-0.4,0-0.7-0.2-0.7-0.4s0.3-0.4,0.7-0.4
				C886.1,952.3,886.4,952.5,886.4,952.7z"/>
			<path class="st3" d="M918.4,940.7c0,0-3.3,2.6-4.2,3.5c-0.9,1-2.6,2.7-2.5,3.3c0.1,0.7,1.2,1.8,1.6,2.1c0.5,0.3,1.9,1.2,2.2,0.9
				c0.3-0.3,0.2-2.6,0.2-2.6l0.8-0.5c0,0-0.2-0.5,0.2-0.5s1.6,0,1.6,0s0.9-0.7,0.5-1.4c-0.4-0.8-0.7-1.2,0-1.3c0.7-0.1,1.2,0,1.2-1
				C920.1,942.3,919.9,940.6,918.4,940.7z"/>
			<path class="st3" d="M920.1,946.8c0,0-1.3,1.2-0.7,1.5s2-0.1,2-0.1s0.6-1.2,0.1-1.2C921,946.9,920.1,946.8,920.1,946.8z"/>
			<path class="st3" d="M910.9,949.2c0,0-0.4,0.6,0.3,0.9c0.7,0.3,1-0.3,1-0.3S911.8,948.4,910.9,949.2z"/>
			<path class="st3" d="M917.4,949.1c0,0,0,0.1-0.1,0.3c-0.1,0.3-0.1,0.8,0.2,0.8C918,950.2,919.1,949.3,917.4,949.1z"/>
			<path class="st3" d="M923.6,945.6c0,0-1,1-0.3,1.2s1-0.5,1-0.5S924.2,945.6,923.6,945.6z"/>
			<path class="st3" d="M923.8,939c0,0-0.8,0.8,0.1,0.9s0.8-0.9,0.8-0.9S924.1,939,923.8,939z"/>
			<path class="st3" d="M888.8,950.9c0,0.3-0.3,0.5-0.7,0.5c-0.4,0-0.7-0.2-0.7-0.5c0-0.3,0.3-0.5,0.7-0.5
				C888.5,950.4,888.8,950.6,888.8,950.9z"/>
			<path class="st3" d="M886.4,952.7c0,0.2-0.3,0.4-0.7,0.4c-0.4,0-0.7-0.2-0.7-0.4s0.3-0.4,0.7-0.4
				C886.1,952.3,886.4,952.5,886.4,952.7z"/>
		</g>
		<g class="st4">
			<path class="st3" d="M931.8,805.2c0.1,1.2,1.1,3.2,1.6,3.8s0.3,3.8,0.2,4.3s-0.7,1.2-1.9,0.5c-1.2-0.7-1.1-1.4-2.1,0
				s-2.3,1.3-2.3,1.3s-1.6,3,0.5,5.2c2.2,2.2,4.2,2.6,5.1,1.9s1.9,0.3,2.9,1.2s3.3,4.2,5.9,1.5c0.4-0.3,0.7-0.5,0.9-0.6
				c0.3-0.6,0.5-1.2,0.5-1.4c0-0.5,0.9-1,0.9-1l4,0.1c0,0,0.1-0.5,1.9-2.3s0.7-2.1,0-3.1s2.1-2.5,2.1-2.5s2.8-0.3,6-0.5
				s2.1,0.4,1.9,3.1c1,4.6,3.8,3,4.5,1.3c1.3-3.7,3-4.5,4.4-5.8c1.4-1.3,3.1-0.3,3.1-0.3l1,1.1c0.6-0.4,2.3-1.5,3.5-3.4
				c1.5-2.4,0.2-8.6-0.7-10.6c-0.9-2-5.1-2.9-6.8-3.3s0-2.4,0.2-5.3c2.4-2.4,1.1-3.7,2.6-6.2c1.5-2.4,3.1-6.6,3.1-6.6l1.3-4.1
				c-2.3-1.3-4.1-1.6-5.6-1.7c-1.9-0.2-0.9-1.3-0.6-2.6s0.2-2.5-1.9-2.8c-2-0.3-3.1-0.9-3.2-2.2c-0.2-1.3,0-1.9-1.2-1.8
				c-1.2,0.2-2.2,1.2-3.2,1c-0.2,0-0.3-0.1-0.4-0.2c-4.6,2.2-9.6,4-10.8,4.9c-1.3,1-2.3,1.3-2.5,2.5c-0.2,2.5-1,4.1-3.1,5.9
				c-1.6,1.3-3.2,2-4.1,2.3c-1.1,2.2-2.9,4.3-4,5.8c-1.6,2.2,2.9,4.1,3.5,5.4c0.6,1.3-0.3,2.2-1,4.1c-2.6,3.7-3.7,3.5-5.4,2.3
				c-1.8-1.2-3.2,0-2.4,1.5c0,2.3-1.3,2.2-2.5,2.8c0.2,0.7,1.8,1.6,2.5,2.3c0.2,0.2,0.3,0.4,0.2,0.6
				C931.2,804.1,931.7,804.6,931.8,805.2z"/>
		</g>
		<g class="st4">
			<path class="st3" d="M966.6,740.2c-0.9-1-2-1.8-2.5-3.2c-1-2.8-3.5-2.8-5.7-3.1c-2.2-0.3-0.9-3.1-1-5.4s-0.9-4.5-0.9-5.6
				c0-0.4-0.1-1.9-0.2-3.4c-0.1-1-0.1-2-0.2-2.8c-0.6,0.4-1.1,0.8-1.7,1.4c-0.4,0.4-0.7,0.8-1.1,1.2c-0.9,1-1.9,2-2.8,2.9
				c-3.7,3.8-7.1,7.1-8,7.5c-1.2,0.4-7.9-0.6-7.9-0.6s-6.8-1.5-7.8,3.2c-0.5,1.3-3.9,4.4-5.1,3.6c-1.4-1-5.2,0.8-5.2,0.8l-10-1.5
				c0,0,1.4,4,1,5.8c-0.3,1.8-1.9,6.1-1.9,6.1s-1.2,3-0.1,5.3c0.4,0.7,0.4,1.7,0.4,2.2c1.3,1.3,2.5,2.7,2.8,3.1
				c0.4,0.9,1.3,2.6,1.2,3.5c-0.1,0.6-1.2,1.9-2,3.1c-0.4,0.6-0.7,1.3-0.7,1.7c0,1.3,0.1,2.5,2.9,2.6c2.8,0.2,4.5-0.9,2.9,2.3
				c-1.6,3.2-0.4,4.5,1.9,4.3c2.4-0.3,2.6,0.2,3.8,0.7c1.2,0.6,3.7,0,3.7-2.5c0.1-0.9,0.7-0.4,1.3-0.6c0.6-0.2,1.3-0.6,1.3-2.3
				c0.3-0.6,0.7-1.5,1.6-2.2c0.9-0.7,1-0.6,2.6-0.2c1.6,0.4,1.5,0.7,0.6,1.8s-2.5,2.6-1.9,3.2c0.6,0.6,1.9,0.2,3.1,1
				c1.2,0.9,1.8,2.6,1.8,3.8c0,1.2,0.6,0.7,2-0.6c1.5-1.3,2-1.8,2.5-0.9s1.2,2.6,1.6,2.5c0.1,0,0.3-0.1,0.6-0.2
				c0.9-0.3,2.5-1,4.1-2.3c2-1.8,2.9-3.4,3.1-5.9c0.2-1.2,1.2-1.5,2.5-2.5c1.2-0.9,6.2-2.6,10.8-4.9c-0.6-0.5-0.4-2.1-0.5-3.3
				c-0.2-1.5-0.7-1.8-0.7-2.8c0-1,3.5-6.2,3.5-6.2l3.8-0.9l0.4-0.1c0,0,1.9-2.9,2.3-4.1C969.5,744.7,967.4,741.2,966.6,740.2z"/>
		</g>
		<g>
			<g class="st4">
				<path class="st3" d="M873.2,847.7c0,0-1.3-0.2-1.3-1.5c0-0.5,0-0.9,0-1.3c-1.4-0.1-3-0.1-3.5-0.2c-0.7-0.1-2.5-0.8-3.7-2.7
					c-1.2-1.9-2.4-3.8-4.9-4.8c0,0-3.7-0.5-5.8-0.5c-1.4,0-2.5-0.2-3.5-0.9c-1.6,1.2-2.9,3.5-3.4,4.4c2.8,2.6,8.2,7.6,8.2,7.6
					l4.5,4.1c0.3-0.4,0.6-0.9,0.9-1.3c0.5-0.7,2-1.4,2.5-1c0.4,0.4-0.8,1.2,0.4,1.4c1.3,0.2,3.2,0.1,3.5,0.8
					c0.3,0.7,1.2,1.6,1.2,1.6s2.6-1.3,3.4-2.3c0.7-1,1-0.9,1.5-1.3C873.5,849.5,873.2,847.7,873.2,847.7z"/>
			</g>
			<g>
				<g class="st4">
					<path class="st3" d="M875.9,828.9c0,0-1.8,0.2-2.6-1.8c-0.9-1.9-2.6-5.6-6.9-5.6c-0.9-0.3-1.6-1-3.7-2.9
						c-2-1.9-8.2-7.6-8.2-7.6s-1.3-0.6-1-2.5c0.3-1.9,0-2.8-1.9-3.8c-1.3-0.7-3.4-1.6-4.5-3.8c-0.7,0-1.4,0-2.1-0.1
						c-2.2-0.4-3.6,0.7-4.9,2c-1.3,1.4-3.3,3.8-3.3,3.8s-3.8-1.6-7.3-2.4c0,1,0,2.1,0.1,3.1c0.6,2.6,3.5,2.8,5.4,1.6
						c1.9-0.2,2.6,2.6,2.6,2.6s3.2,6.6,4.5,10.5c1.3,4,1.9,4.3,4.8,4.5s3.4,0.4,5.4,3.4s3.5,5.3,6,5.3s3.7,0.4,5.7,3.4
						c1.1,1.6,1.9,2.2,2.4,2.3c0.4,0.1,0.6,0,0.6,0l3.1-3.2l1-1c0,0,2.3-2.5,3.8-4c0.8-0.8,1.5-2.5,1.9-3.8
						C876.3,829,875.9,828.9,875.9,828.9z"/>
				</g>
				<g class="st4">
					<path class="st3" d="M846.6,828.3c0,0,1.9,2.5,2.1,3.3c0.2,0.8,0.7,2.3,1.5,2.4c0.8,0.2,2,0.5,1.3-1.7
						C850.9,830.2,849.3,826.8,846.6,828.3z"/>
				</g>
				<path class="st3" d="M834.2,810.6c0,0,0.3,1.2,1.3,1.1c1-0.1,0.9-0.8,0.8-1C836.2,810.4,834.2,810,834.2,810.6z"/>
				<path class="st3" d="M834.4,813c0,0,0.2,1.2,0.9,1.6c0.7,0.4,1.7,0.8,2,0.3c0.3-0.4,0.5-1.5-0.4-1.6
					C836,813.2,834.8,812.7,834.4,813z"/>
				<path class="st3" d="M837.9,816.5c0,0-0.1,2.9,0.2,3.5c0.3,0.7,0.2,1.7,1.3,3.2c1,1.5,0.8,1.9,1,2.1c0.3,0.2,1.7,1,0.9-1.2
					c-0.8-2.2-1.4-4-1.4-4S839.1,815.5,837.9,816.5z"/>
			</g>
		</g>
	</g>
	<g>
		<g>
			<path class="st3" d="M1056.8,652.6c-0.2-0.2-0.3-0.3-0.5-0.5c-1.6-1.8-1.9-4.1-1.9-5.2c0-1.2-0.2-2-1.2-1.3c-1,0.7-2.5,0.7-4,0
				c-1.5-0.7,0.9-4.1,1.3-4.7c0.4-0.6,2.3,0,2.3,0l2.3-1.3h2.9c-1.8-3-1.8-9.5-1.8-11c0-1.8-1.6-5.6-4.3-9.2
				c-2.6-3.7-0.2-4.8,0.4-5.6c0.6-0.7,0-1.8-0.4-2.3c-4.4-1.6-6.2-10.3-6.3-12.8c0,0,0,0,0,0c-0.2-2.6-2.8-13.5-3.4-15.4
				c-0.6-1.9-0.6-3.8-3.4-7.3c-0.2-0.2-0.3-0.4-0.4-0.6c-1.4,0.6-3.2,2-4,2.5c-1.2,0.7-2.3-1.8-4.3-3.2c-1.9-1.5-2.6-0.3-2.6,2.3
				c0,2.6-0.9,4-1.5,4.4c-0.6,0.4-2.1,1.8-2.2,2.3c-0.2,0.6-1.3,2.3-3.2,2.6c-2.5,0.4-5.4,1.9-7,3.2c-1.2,1.6-3,3.3-4.7,4.9
				c-1.1,1.1-2.1,2.1-3,3c-2,2.3-4.8-0.9-7.2-1.2s-1.9-1-3.2,0.9c-1.3,2-2.6,2-6.3,2.2c-5.6,0.2-5.4,3.2-6,7s-4.3,3.7-5.7,3.8
				c-1.5,0.2-4.1,3.4-4.7,4.1c-0.4,0.5-2.1,2.5-2.9,3.4c0.1,1.5,0.1,3.2,0,4.1c-0.3,2-0.4,3.4,1.5,4.3c1.9,0.9,3.6,3.2,5.1,5.8
				s4.8,10,4.7,14.8c0,1.6-0.3,3.2-0.7,4.8c-0.3,1.3-0.7,2.5-1,3.7c1.3-0.9,2.9-2,3.8-2.4c1.8-0.7,1.6-1.2,3.7-1.2
				c2,0,3.8-0.9,4.5-1.6c0.7-0.7,2.5,0,4,0.3c1.5,0.3,3.7,0.9,5.6,0.4c1.9-0.4,4.8-1.8,7.6-1.8s4.5,0.3,6.9,1.3
				c2.3,1,3.4,1.9,5.3,1.9c1.9,0,3.8,0.9,5.1,1.9c1.3,1,1.2,3.2,1.8,4.8c1.1,1,3.2,3.3,5,5.7c1.8,2.3,3.3,4.7,3.5,6.1
				c2.6,0.3,9,0.3,10,1.3c0.1,0.1,0.3,0.3,0.5,0.5c1.9-0.4,3.5-1.3,4.5-2.4v0c0-2.9,0.2-4.7,2.8-5.4s4.4-5,4.4-7.3
				C1058.9,655.2,1058.9,654.5,1056.8,652.6z"/>
		</g>
		<g>
			<path class="st3" d="M1066.2,684.7c-0.3-2.3-1.9-2.2-3.1-2c-1.2,0.2-3.5,0.3-4.8-0.2c-1.3-0.4-1.9-2.2-3.1-2.6
				c-1.2-0.4-2.3-1.3-3.4-2.3c-0.9-0.9-3.3-3.5-4.7-4.8c-0.2-0.2-0.4-0.4-0.5-0.5c-1-1-7.3-1-10-1.3c-0.2-1.4-1.7-3.8-3.5-6.1
				c-1.8-2.4-3.9-4.7-5-5.7c-0.6-1.6-0.4-3.8-1.8-4.8c-1.3-1-3.2-1.9-5.1-1.9c-1.9,0-2.9-0.9-5.3-1.9c-2.3-1-4.1-1.3-6.9-1.3
				c-2.8,0-5.7,1.3-7.6,1.8c-1.9,0.4-4.1-0.2-5.6-0.4c-1.5-0.3-3.2-1-4-0.3c-0.7,0.7-2.5,1.6-4.5,1.6c-2,0-1.9,0.4-3.7,1.2
				c-0.9,0.4-2.5,1.5-3.8,2.4c-0.6,1.7-1.2,3.2-1.6,4c-0.8,1.7-3.6,6.6-4.8,9.3c-0.3,0.6-0.5,1.1-0.5,1.4c-0.3,1.6-1.4,6.7,0.3,11.2
				c0.1,0.3,0.2,0.6,0.4,0.9c2.3,1.1,5.9,2.6,7.4,2.6c2.3,0,6.3-0.7,7.9-0.7s4.5,0.4,5.9,1.5c1.3,1,3.5,3.7,3.7,5
				c0.2,1.3,0.3,2.6,1.3,3.7c1,1,1,1.3,1,2.5s-1.6,3.4-1.6,3.4s-1.3,0.6,0.7,1.5c2,0.9,4.4,2,4.4,3.4s-0.3,2.5-1.3,2.5s-3.2,0-2.6,4
				c0.6,4,2.2,4.7,3.8,5.3c1.6,0.6,3.7,0.6,5.7,3.7c0.8,1.1,1.3,2.1,1.6,2.9c1.5,0.1,3.3,0.3,4.2,0.8c1.6,0.9,2,1.6,3.5,0.3
				c1.5-1.3,4.3-4.1,6.2-4.3c1.9-0.2,5-0.7,6.3-1.9c1.3-1.2,0.9-1.8,4.5-1.2c2.5,0.4,4.8,1.1,6.8,0.7c0.9-0.2,1.8-0.5,2.5-1.3
				c2.2-2.3,2.2-2.3,2.2-2.3s-2.2-3.1-1.5-6c0.7-2.9,1-3.2,5.7-4.7c2.5,0.3,4.5,1,5.3,1c0.7,0,1.5,0.6,1.6-1.9
				c0.2-2.5-0.2-8.2-0.2-8.2l3.6-2.9l0.3-0.2c0,0,4.1-1.5,4.8-2.2c0.2-0.2,0.4-0.5,0.7-0.8C1067.1,686.7,1066.3,685.5,1066.2,684.7z
				"/>
		</g>
		<g>
			<path class="st3" d="M1007.1,725.6c0.9-0.9,5.3-0.7,5.3-0.7s-0.1-0.7-0.7-2c-0.3-0.8-0.9-1.7-1.6-2.9c-2-3.1-4.1-3.1-5.7-3.7
				c-1.6-0.6-3.2-1.3-3.8-5.3s1.6-4,2.6-4s1.3-1.2,1.3-2.5s-2.3-2.5-4.4-3.4c-2-0.9-0.7-1.5-0.7-1.5s1.6-2.2,1.6-3.4
				c0-1.2,0-1.5-1-2.5c-1-1-1.2-2.3-1.3-3.7s-2.3-4-3.7-5c-1.3-1-4.3-1.5-5.9-1.5s-5.6,0.7-7.9,0.7c-1.5,0-5.1-1.5-7.4-2.6
				c1.7,4.1,4,7.8,4,13c0,4.3-1,10.8-1.8,14c-0.2,0.9-0.4,1.5-0.5,1.8c-0.6,1.2-6.5,7.1-8,7.7c-2.2-2.2-6.9-4.8-11.3-1.7
				c0,0.8,0.1,1.8,0.2,2.8c0.1,1.5,0.2,3,0.2,3.4c0,1,0.7,3.2,0.9,5.6c0.2,2.3-1.2,5.1,1,5.4s4.7,0.3,5.7,3.1
				c0.4,1.5,1.6,2.2,2.5,3.2c0.9,1,2.9,4.5,2.5,5.7s-2.3,4.1-2.3,4.1l-0.4,0.1c1.5,0.6,2.8,0.6,3.8,0.6c0.7,0,1.1-0.1,1.1-0.1
				s4.5-2.3,6.3-3.4c7.3-5.6,5.7-6.3,8.1-6.6c2.3-0.3,1.9,0.3,1.9,1.3s1,1.6,1,1.6s4.1,0.3,7.5,0.3s2.9,1.5,3.2,2.8
				c2.3,0.7,3.4,1,4.3,2.6c4.1-0.7,6.8-4.3,7.8-5.9s-0.6-3.1-2-4.7c-1.5-1.6-4.4-6.2-5.6-8.1
				C1002.4,728.7,1006.2,726.5,1007.1,725.6z"/>
		</g>
		<g>
			<path class="st3" d="M1048.1,749.7c-3.1-2.5-5-3.1-2.9-7.9c2-4.8,2.8-8.1,2.8-8.1s1-1.9,0.7-4.5c-0.2-1.4-0.5-2.4-0.5-3.3
				c-0.1-0.7,0.1-1.3,0.7-1.9c0.5-0.5,0.9-0.7,1.2-0.8l-1.7-5.1l-0.6-4.4c0,0,0,0-2.2,2.3c-0.7,0.8-1.6,1.2-2.5,1.3
				c-1.9,0.3-4.3-0.3-6.8-0.7c-3.7-0.6-3.2,0-4.6,1.2c-1.3,1.2-4.4,1.8-6.3,1.9c-1.9,0.2-4.7,2.9-6.2,4.3c-1.5,1.3-1.9,0.6-3.5-0.3
				c-0.9-0.5-2.8-0.7-4.2-0.8c0.6,1.3,0.7,2,0.7,2s-4.4-0.2-5.3,0.7s-4.7,3.1-3.5,5s4.1,6.5,5.6,8.1c1.5,1.6,3.1,3.1,2,4.7
				c-1,1.6-3.7,5.1-7.8,5.9c-0.9-1.6-1.9-1.9-4.3-2.6c-0.3-1.3,0.2-2.8-3.2-2.8c-3.4,0-7.5-0.3-7.5-0.3s-1-0.6-1-1.6
				c0-1,0.4-1.6-1.9-1.3s-0.7,1-8.1,6.6c-1.8,1-6.3,3.4-6.3,3.4s-0.4,0.1-1.1,0.1c-0.9,0-2.3,0-3.8-0.6l-3.8,0.9
				c0,0-3.5,5.1-3.5,6.2c0,1,0.6,1.3,0.7,2.8c0.1,1.3-0.1,2.8,0.5,3.3c0.1,0.1,0.2,0.2,0.4,0.2c1,0.2,2-0.9,3.2-1
				c1.2-0.2,1,0.4,1.2,1.8c0.2,1.3,1.2,1.9,3.2,2.2c2,0.3,2.2,1.5,1.9,2.8c-0.3,1.3-1.3,2.5,0.6,2.6c1.9,0.2,4.4,0.7,7.8,3.1
				c3.4,2.3,5.1,3.4,7.2,3.4s1.6-1.3,3.7-1.5c2-0.2,6.5,0.2,8.8,0.2c2.3,0,4.4-1.8,5.7-1.3c1.3,0.4,4.1,1.9,4.4,4.1
				c0.3,2.2,0.3,2.9,3.2,1.5c2.9-1.5,4-1.3,10.7-6.9c1.3-0.6,2.2-1.9,1.5-3.5c-0.7-1.6-2.9-2.8-1.9-5.6c1-0.9,1.9-1.2,3.1-0.6
				c1.2,0.6,2,1.5,2,1.5s0.7-1.2,2.1-1.6c1.3-0.4,2,0.2,4.7,0.6c1.7,0.3,3.6,0.1,5-0.4c0.9-0.3,1.5-0.7,1.9-1.2
				c0.1-0.2,0.2-0.3,0.2-0.4c0.3-1-1.1-1.4-1-3.8c0.3-1.5,2.8-2.6,2.8-2.6l5-2.8C1047.6,753.8,1051.2,752.2,1048.1,749.7z"/>
		</g>
		<g>
			<g>
				<path class="st3" d="M988.5,822.3c2-0.7,4.9-2.6,6.3-3.7c0,0,1.3-1.3,3-1.2c1.8,0.1,6.3,0.9,7,0.7s2-1.1,2.8-4.6
					c0.7-3.5,3.2-8.7,3.7-8.7c0.5,0,5.4-1,7.1-1.3c1.8-0.3,4.3-0.7,4.3,1.7c0,0.9,0,1.1,0,1.1h1.9c0,0-0.4-2.3,0.6-3.2
					c0.9-0.9,2.3-1.2,2.3-1.2s-0.7-3.7,1.2-4.3c1.8-0.6,2.6-0.4,2.9-0.3c0.3,0.1,0.7-0.7,0.7-0.7l2-0.4c0,0,0.2-3.1,2.1-4.6
					c1.4-1.1,2.2-1.9,3.6-2.3c0.6-0.2,1.3-0.3,2.2-0.4c2.1-1.1,3.2-1.8,4.5-1.6c1.3,0.2,2.2,0.2,2.3,1.8c1.9-1.9,2.9-2.3,2.9-5.2
					c0.2-1.8,0.9-2.2,2.9-3.2s6.2-2.9,6.2-2.9s0.2,0.1,0.5,0.2c-0.9-0.9-1.6-1.7-1.7-1.9c-0.2-0.7-3.4-2-5.3-2.3
					c-1.9-0.3-2.6-0.7-2.6-2.2c0-1.5-0.2-3.4-0.4-3.8c-0.3-0.4-2.3,0.2-2.3,0.2s-0.9-1.8-2.2-3.1c-1.3-1.3-2.2-1.8-2.2-1.8h-3.8
					c0,0.1-0.1,0.3-0.2,0.4c-0.3,0.5-1,0.9-1.9,1.2c-1.4,0.5-3.4,0.7-5,0.4c-2.6-0.4-3.4-1-4.7-0.6c-1.3,0.4-2.1,1.6-2.1,1.6
					s-0.9-0.9-2-1.5c-1.2-0.6-2.1-0.3-3.1,0.6c-1,2.8,1.2,4,1.9,5.6c0.7,1.6-0.2,2.9-1.5,3.5c-6.8,5.6-7.8,5.4-10.7,6.9
					c-2.9,1.5-2.9,0.7-3.2-1.5c-0.3-2.2-3.1-3.7-4.4-4.1s-3.4,1.3-5.7,1.3s-6.8-0.3-8.8-0.2c-2,0.2-1.6,1.5-3.7,1.5
					c-2,0-3.8-1-7.2-3.4c-0.8-0.5-1.5-1-2.2-1.3l-1.3,4.1c0,0-1.5,4.2-3.1,6.6c-1.5,2.4-0.2,3.7-2.6,6.2c-0.2,2.9-2,4.8-0.2,5.3
					s5.9,1.3,6.8,3.3s2.2,8.1,0.7,10.6c-1.5,2.4-3.7,3.5-3.7,3.5s2.6,4.2,2.9,4.8c0.2,0.7,2.2,6.8,2.2,6.8s-1.5,3.1-1.2,4.3
					c0.2-0.2,0.5-0.4,0.7-0.7C980.1,826,981.8,824.4,988.5,822.3z"/>
			</g>
			<path class="st3" d="M1056.8,781.8c0,0-1.2,0.5-1.2,0.8c0,0.3,0.5,1,1.1,1s0.7-0.7,0.7-1C1057.5,782.4,1057.4,781.9,1056.8,781.8
				z"/>
			<path class="st3" d="M1063.4,825.6c0,0-0.6,1.3-0.5,2c0.1,0.7,1,1.2,1.2,1.6c0.3,0.4,0.3,1,0.7,1s0.5-1.2,0.5-1.2v-0.4
				C1065.3,828.7,1064.9,825.6,1063.4,825.6z"/>
			<path class="st3" d="M1061.7,823.2c0,0.3-0.4,0.6-0.9,0.6c-0.5,0-0.9-0.3-0.9-0.6c0-0.4,0.4-0.6,0.9-0.6
				C1061.3,822.5,1061.7,822.8,1061.7,823.2z"/>
			<path class="st3" d="M1071.1,845.7c0,0.8-0.3,1.5-0.7,1.5s-0.7-0.7-0.7-1.5s0.3-1.5,0.7-1.5
				C1070.7,844.3,1071.1,844.9,1071.1,845.7z"/>
			<path class="st3" d="M1063,859c0,0.3-0.4,0.6-0.9,0.6c-0.5,0-0.9-0.3-0.9-0.6c0-0.4,0.4-0.6,0.9-0.6
				C1062.6,858.3,1063,858.6,1063,859z"/>
			<path class="st3" d="M1066.9,859.2c0,0.3-0.2,0.6-0.3,0.6c-0.2,0-0.3-0.3-0.3-0.6s0.2-0.6,0.3-0.6
				C1066.7,858.7,1066.9,858.9,1066.9,859.2z"/>
			<path class="st3" d="M1074.8,863.7c0,0.3-0.2,0.5-0.5,0.5c-0.3,0-0.5-0.2-0.5-0.5c0-0.3,0.2-0.5,0.5-0.5
				C1074.6,863.2,1074.8,863.4,1074.8,863.7z"/>
			<path class="st3" d="M1079,865.5c0,0.3-0.3,0.5-0.7,0.5s-0.7-0.2-0.7-0.5c0-0.3,0.3-0.5,0.7-0.5
				C1078.7,865.1,1079,865.3,1079,865.5z"/>
		</g>
		<g>
			<path class="st3" d="M1080.9,746.8c0-0.2-0.1-0.3-0.1-0.5c-0.9-0.1-1.8-0.1-2.7,0c-5.1,1.2-6.6-4.4-6.8-5.7
				c-0.2-1.3-3.1-1.9-5.9-2c-2.8-0.2-6.2-1.8-7.2-2.5s-1.8-7.3-2.8-9.5c-1-2.2-2.3-2.5-3.7-2.9c-0.8-0.3-1.2-0.5-1.7-0.3
				c-0.3,0.1-0.7,0.3-1.2,0.8c-0.6,0.5-0.8,1.1-0.7,1.9c0.1,0.8,0.4,1.9,0.5,3.3c0.3,2.6-0.7,4.5-0.7,4.5s-0.7,3.2-2.8,8.1
				c-2,4.8-0.2,5.4,2.9,7.9c3.1,2.5-0.6,4.1-0.6,4.1l-5,2.8c0,0-2.5,1.2-2.8,2.6c-0.1,2.5,1.2,2.9,0.9,3.8h3.8c0,0,0.9,0.4,2.2,1.8
				c1.3,1.3,2.2,3.1,2.2,3.1s2.1-0.6,2.3-0.2c0.3,0.4,0.4,2.3,0.4,3.8c0,1.5,0.7,1.9,2.6,2.2c1.9,0.3,5.1,1.6,5.3,2.3
				c0,0.3,0.8,1,1.7,1.9c0.6,0.2,1.5,0.5,2.2,0.4c1-0.1,3.3-0.7,4.1-1.5c0.8-0.8,2-0.6,2-0.6l0.4-1.8c0,0-1.3-0.7-0.6-1.3
				c0.7-0.7,0.9-1.5,0.9-3.5c0-1.9-0.2-2.9-0.2-2.9l-0.6-2.2l1-0.3l0.2-1l-0.7-0.5l-0.1-2.2l-1.6-1.6l0.2-1.3l2-0.2l0.7,0.8v2.5
				l3.3,0.7l0.6,1.3l1.6,0.1c0,0,0.9-1,1.5-2.1c0.6-1,2.4-3.7,2.6-5s1.2-3.5,1.2-3.5l0.7-0.2l0.3-2.1
				C1083.1,750.2,1080.8,748.7,1080.9,746.8z"/>
		</g>
		<g>
			<g>
				<path class="st3" d="M1093.6,673.2c0-1.3-2.4-4.7-3.4-5.4c-1-0.7-1.4-0.8-1.4-0.8s-0.3-2.2-0.6-3.1s-0.9-2.2-0.8-3.3
					c0.1-0.5,0.1-1.8,0-3.2c-0.1-1.5-0.3-3-0.7-3.2c-0.6,0.1-0.8,0.9-1.1,1.7s-1.4-0.3-1.7-2.3c0.9-0.3,1.2-0.4,1.2-0.4l0.7-1.8
					l0.6-1c0,0,0-1.4-1.5-0.9c-1.5,0.4-1.8,0-1.8-1.3c-1.5-0.2-1.8-0.4-1.8-0.4s0.7-1,0.7-1.6c0-0.6-0.7-2.3,0.2-2.9
					c0.8-0.7,1.8-1.6,2.5,0.6c-0.1,0.8-0.4,0.9-0.7,0.9c-0.3,0-0.8,1.7-0.1,2.2c0.7,0.5,2.4,1,3.3-0.3s0.3-2,0.2-2.8
					c-0.2-0.8-1.3-0.8-1.4-1.2s-0.4-1.8-0.4-1.8l-1.7-0.3l-0.6-1.5l-2.6-3.6l-0.1-1.1l-0.1-0.8c0,0,0.6,0,1.1,0.7
					c0,0,0.1,0.1,0.1,0.2c0.5,0.8,2.6,4.2,2.6,4.2s0.9,0.9,1.2,0.4c0.3-0.5,0.6-2.4,0.6-2.4l-2-0.7l-1.2-1.9l-0.3-0.5l0.1-4.2
					c0,0,0,0-0.1-0.1c-0.9,0.2-2.1,0.5-3.5,0.8c-3.1,0.6-3.2,2.6-3.5,5c0,0.1,0,0.2,0,0.3c-0.3,2.5-1.5,2.8-4.5,4.5
					c-3.8,3.2-9.1,2.6-11.7,0.6c-0.3-0.3-0.6-0.6-0.9-1h-3l-2.3,1.3c0,0-1.9-0.6-2.3,0c-0.4,0.6-2.8,4-1.3,4.7c1.5,0.7,2.9,0.7,4,0
					s1.2,0.2,1.2,1.3c0,1.1,0.3,3.4,1.9,5.2c0.2,0.2,0.3,0.3,0.5,0.5c2,1.9,2,2.6,2,5s-1.8,6.6-4.4,7.3c-2.6,0.7-2.8,2.5-2.8,5.4v0
					c-1,1.1-2.6,2-4.5,2.4c1.3,1.3,3.8,3.9,4.7,4.8c1,1,2.2,1.9,3.4,2.3c1.2,0.4,1.8,2.2,3.1,2.6c1.3,0.4,3.7,0.3,4.8,0.2
					c1.2-0.2,2.8-0.3,3.1,2c0.1,0.8,0.9,2,2,3.1c0.7-1,1.7-2.3,2.9-2.3c1.6,0,3.1-1.3,3.7-2.3c0.6-1,0.9-0.6,2.2-1.2
					c1.3-0.6,0.2-1.2,4.1-1.2c0.3-0.1,0.7-0.2,1.1-0.2c1.8-0.4,3.9-0.7,5.5-1.1c1.5-0.3,3.5-2.6,6.2-5.5
					C1093.6,673.9,1093.6,673.7,1093.6,673.2z"/>
			</g>
			<path class="st3" d="M1088.6,634.8c0,0-0.1,1.1,0.2,1.7c0.3,0.6,1.3,1.1,1.4,0.1C1090.3,635.5,1089.6,634.7,1088.6,634.8z"/>
		</g>
		<g>
			<path class="st3" d="M1087,623c-0.6-0.9,0.2-1,0.1-1.8s-0.9-1.3-0.9-1.5s0-2.3,0-2.3s-2.8-0.9-3.7-3.5c1.3,0.1,1.3,0.1,1.3,0.1
				l0-5.2c0,0-3.1-2.2-3.2-4.3c-1.9-0.2-3.8-1.8-3.7-2.7c0.2-0.9,1.2-1.8,1.9-1.4c0.7,0.3,1.7,2.2,2,2.5c0.3,0.3,1.7,1.3,1.4-0.2
				c-0.2-1.5-2-2.7-2-4s0.9-1.8,0.9-1.8s-0.6-2.2-1.8-3.5c-1.2-1.3-1.5-2.2-1.8-4.3c-0.3-2.2-2-4.8-2.3-7c-1.3-0.5-2.8-1.3-2.7-3.5
				c0.1-0.4,1.4,0,0.9-0.9c-0.4-0.7-0.8-1.5-0.9-3c-2-1.1-4.2-4.3-5.4-5.8c-1.3-1.6-3.2-1.6-4.7-1c-1.5,0.6-2.6,1.2-4.5,0.9
				c-1.9-0.3-2.9-1.5-3.7-0.6c-0.7,0.9-1.5,5.1-2.3,6.6c-0.9,1.5-2.5-0.3-3.5-0.3s-3.8,2.8-5.1,2.9c-1.3,0.2-1.8-1.5-2.8-2.2
				c-0.3-0.2-0.8-0.1-1.5,0.1c0.1,0.2,0.3,0.4,0.4,0.6c2.8,3.5,2.8,5.4,3.4,7.3c0.6,1.9,3.2,12.8,3.4,15.4c0,0,0,0,0,0
				c0.2,2.5,1.9,11.2,6.3,12.8c0.4,0.6,1,1.6,0.4,2.3c-0.6,0.7-3.1,1.9-0.4,5.6c2.6,3.7,4.3,7.5,4.3,9.2c0,1.5,0,8,1.8,11
				c0.3,0.4,0.5,0.8,0.9,1c2.6,2,7.9,2.6,11.7-0.6c3.1-1.8,4.3-2,4.5-4.5c0-0.1,0-0.2,0-0.3c0.3-2.4,0.4-4.4,3.5-5
				c1.5-0.3,2.7-0.5,3.5-0.8c-0.1-0.2-0.3-0.7-0.5-1.3c-0.8-2-2-5.6-1.7-7.6c0.4-1.7,1-3.1-0.8-5.4c0.7-0.1,1.9,0.2,2.5,1.5
				s1.1,3.9,1.1,4.6c0,0.7,0.2,1.8,1.2,1.5c-0.3,0.9-0.8,3.5,0.8,3.7C1086.6,626.6,1088.3,625.6,1087,623z"/>
		</g>
		<g>
			<path class="st3" d="M1035.5,562.3c0-3.1-1.5-2.6-3.8-2s-5.3-6.2-6-7c-0.5-0.6-4.1-6.5-6.2-10.1c0.4,0.7,0.5,1,0.8,1.3
				c0.6,0.8,0.4,1.5-0.3,1.6c-0.6,1.6-2.1,1.2-3.8,0.7c-1.7-0.4-1-0.1-1.2,1c0.4,2.6,0.5,2.5-1,4c-2.1,2.9-3.4,0.3-4.4-1
				c-1-1.3-2.8-1.7-4.4-1.6c-1.6,0.1-1.5-0.3-1.7-1s1.6-4.4,1.6-6.3s-0.6-3.3-1.2-3.5c-0.5-0.2-2.7-1.4-3.7-1.8s-1.7-1.2-6.3-1.3
				c-5,0-3.5-2.8-4-3.7c-0.5-0.8-1.7-0.3-3.9-2.6s-2.2-4.9-2.5-5.8c-0.3-0.9-0.8-1.8-1.3-1.7c-0.8,0.3-1.2,0.8-1.4,1.3
				c0,0,0.1-0.1,0.2-0.1c0.4,3.2,0.9,11.5,0.9,11.5s-3.8,1.1-0.9,3.2c0.1,5,0.9,8.7-1.1,8.9s-8.1-2-7.3,3.4c0.1,1.1,1.3,2.8,2.8,3.6
				s5,2.9,3.6,4.1s-4.8,3-3.3,7.2c1.8,0.3,2.1,0.5,2.1,0.5s0.9,1.8-2.8,13.8c-0.5,1.7-1.6,4.4-2.3,5.2c-1.5,1.6-2.8-0.8-3.8,2.2
				c0,0-1.4,2.5-1.4,5.2c0,2.7,1.1,4.5,0.5,6c-0.4,1.1-2.6,4.6-3.6,6.6c-0.3,0.7-0.5,1.3-0.4,1.4c0.4,0.7,2.3,1,1.9,1.9
				s-2.9,4.5,1,5.4c0.5,0.1,2.7,0.1,3,1.2c0.1,0.5,0.3,1.9,0.4,3.5c0.8-1,2.5-2.9,2.9-3.4c0.6-0.7,3.2-4,4.7-4.1
				c1.5-0.2,5.1,0,5.7-3.8c0.6-3.8,0.4-6.9,6-7c3.7-0.2,5-0.2,6.3-2.2c1.3-1.9,0.9-1.2,3.2-0.9s5.1,3.5,7.2,1.2c0.8-0.9,1.9-2,3-3
				c1.7-1.6,3.4-3.3,4.7-4.9c1.6-1.3,4.5-2.8,7-3.2c1.9-0.3,3.1-2,3.2-2.6c0.2-0.6,1.6-1.9,2.2-2.3c0.6-0.4,1.5-1.8,1.5-4.4
				s0.7-3.8,2.6-2.3c1.9,1.5,3.1,4,4.3,3.2c0.8-0.5,2.6-1.9,4-2.5C1034.8,569.8,1035.5,565.3,1035.5,562.3z"/>
		</g>
		<g>
			<g>
				<path class="st3" d="M1031.7,560.3c2.3-0.6,3.8-1,3.8,2c0,3-0.7,7.5,3.2,12.9c0.6-0.3,1.2-0.4,1.5-0.1c1,0.7,1.5,2.3,2.8,2.2
					c1.3-0.2,4.1-2.9,5.1-2.9s2.6,1.8,3.5,0.3c0.9-1.5,1.6-5.7,2.3-6.6c0.7-0.9,1.8,0.3,3.7,0.6c1.9,0.3,3.1-0.3,4.6-0.9
					s3.4-0.6,4.7,1c1.2,1.5,3.4,4.7,5.4,5.8c0-0.5,0-1.2,0-2c0.2-1.5,0.7-2,1.2-1.9s0.6-0.5,0.3-1.2c-0.3-0.7-1.3-1-1.8-2.4
					c-0.5-1.4-1.4-3.7-2.4-5s-3.9-3.5-3.9-4.5c1.5,0,1.7-1.2,0.2-3c-1.5-1.9-1.9-2.9-2.6-6.1s-0.6-7.7-1.2-7.5
					c-0.6,0.2-1.2,1.4-1.3,1.2c-0.1-0.2-1.4-2.2-1.1-3.5c1.7,0,1.9-0.1,1.9-0.1l0.6-3.3c0,0-1.9,1.2-2.2,0.7c-0.3-0.5,0.5-1.4,1-1.8
					c0.5-0.4,2.4-0.5,2.6-0.5c0.2,0,0.3-1.5,0.3-1.5s-4.3,0.1-4-2.9c-0.3-2-0.4-3.6-1.8-3.8c-0.8,0-0.9-2.2-0.9-2.4
					c0.1-0.2-2.3-1.4-2.3-1.4s0.7,2,0.2,2c-0.5,0-1.7,0.8-1.3,1.4s1.9,1,1.9,1.4c0,0.3-0.9,0.5-1.3,0.5c-0.4,0-1.2-0.3-1.4,0.6
					c-0.2,0.9-0.2,2-0.7,2c-0.5,0-1.2-1.9-0.8-2.9c0.4-1,1.5-1.3,1.4-2.3c-0.1-0.9-1-2.3-1.8-2.5c-0.6,1.1-1.7,1.2-3.7,2.5
					c-1.6,0.7-6.4,3.1-10.4,4.2c-4,1-8.2,0.3-9.9,0.4c-1.7,0.1-3.3,0.2-3.3,1.4s-1,2.8-2,3.8c-1,1-0.7,1.7,0.5,2.4
					c1.3,0.7,1,1.3,1.2,1.8c-0.2,2.8-1.5,3.8-2.7,4c-0.8,0.3-1.3,0.6-1.5,0.9c2.1,3.6,5.7,9.5,6.2,10.1
					C1026.4,554.1,1029.4,560.9,1031.7,560.3z"/>
			</g>
			<path class="st3" d="M1074.9,523.5c0,0-1.9,0.9-1.3,1.3s1.8,0,2-0.5C1075.7,523.8,1076,523.4,1074.9,523.5z"/>
			<path class="st3" d="M1071.8,520.6c0,0-0.2,1.8,0.5,1.3s0.9-0.6,0.4-1.1C1072.4,520.4,1071.9,520.2,1071.8,520.6z"/>
		</g>
		<g>
			<g>
				<g>
					<path class="st3" d="M1051.1,521.9c-0.5,0-1.3,0-1.7-0.8c-0.2-0.3-0.3-0.8-0.2-1.5c0-1.3-0.2-2-0.6-2.2h-0.3
						c-0.2,0.1-0.5,0.4-0.7,0.9c-0.8,1.5-0.7,3.2-1.3,3.2s-1.6-0.9-2.3-1.8c-0.5-0.7-1.7-1.8-2.2-2.3c-0.2-0.2-0.2-0.3-0.2-0.3
						s-1.8-1.4-1.2-2.5c0.7-1.2,2-0.3,2.4,0.1s1.5,0.9,1.5,0.6s-0.7-1.2-2.8-3.4c-2.1-2.2-4.6-6.2-5.2-7.5c-0.5-1.4-2.5-5-3.3-5.9
						c-0.8-0.9-2.2-4.2-2.4-5c-0.2-0.8-3.6-4.2-4.8-5.8c-0.2-0.3-0.4-0.5-0.6-0.8c-2.1,0.2-6-0.3-7.2-0.3c-1.4,0-6,2.8-10,4
						s-4.1-2.9-4.3-4c0.6-0.8,1-1.9,0.5-3.3c-0.5-1.4-3-1-4.8-0.8c-0.8,0-2-0.6-3.1-1.3c-0.7,0.9-1.2,0.9-2.3,0.9
						c-1.7,0-2.8,1-3.5,2c-0.6,1-2.2,1.8-3.5,1.8c-1.3,0-3.8-2.4-4.7-3.5c-1-1-1.9-0.4-3,0.5s-1.7,0.7-2.4,0.6c-0.4-0.1-3,0-5,0
						c0,2.9-0.7,6.6-3.4,8.4c-1.9,0.9-5.6,1.9-7.3,2.1s-4.3,1.8-4.3,3.6s2.1,3.1,2.8,4.4s-0.3,4.5,1.9,5.8c2.2,1.3,3.4,3.4,3.7,5.1
						s2.6,4.2,7,4.3c2,0.4,2.3,0.9,3.8,3.2c0.7,1.1,1.6,1.9,2.4,2.4c0.9,0.5,1.7,0.7,2.3,0.3c0.2-0.5,0.6-1,1.4-1.3
						c0.4-0.1,1,0.8,1.3,1.7c0.3,0.9,0.3,3.5,2.5,5.8c2.2,2.3,3.4,1.8,3.9,2.6s-1,3.7,4,3.7c4.6,0.1,5.4,0.8,6.3,1.3
						s3.2,1.6,3.7,1.8c0.5,0.2,1.2,1.6,1.2,3.5c0,1.9-1.8,5.7-1.6,6.3c0.2,0.6,0.1,1,1.7,1c1.6-0.1,3.4,0.3,4.4,1.6
						c1,1.3,2.3,3.9,4.4,1c1.6-1.5,1.5-1.4,1-4c0.1-1.2-0.5-1.5,1.2-1c1.7,0.4,3.2,0.8,3.8-0.7c0.9-0.2,0.8-0.8,0.3-1.6
						c-0.3-0.4-0.8-1.3-0.8-1.3s0.7-0.6,1.5-0.9c1.3-0.2,2.5-1.2,2.7-4c-0.1-0.5,0.1-1-1.2-1.8c-1.3-0.7-1.6-1.5-0.5-2.4
						s2-2.6,2-3.8s1.6-1.3,3.3-1.4c1.7-0.1,5.9,0.6,9.9-0.4c4-1,8.8-3.5,10.4-4.2c2-1.3,3-1.4,3.7-2.5
						C1051.3,521.9,1051.2,521.9,1051.1,521.9z"/>
				</g>
				<path class="st3" d="M1036,485.4c0,0-1.8,1.6-1.2,2c0.6,0.4,0.7,0,1.4,0.7s1.8,2.4,2.1,2.6c0.3,0.1,0.8,0.4,0.9-0.5
					c0.2-1,0.2-2.5-0.7-2.6c-0.9-0.1-1.4-0.9-1.4-1.1S1036.6,485,1036,485.4z"/>
			</g>
			<path class="st3" d="M1046.8,514.7l-0.9,1c0,0-0.4,0.7,0.1,1c0.4,0.3,1.2,0.7,1.2-0.3C1047.1,515.4,1046.8,514.7,1046.8,514.7z"
				/>
			<path class="st3" d="M1045.2,517.7c0,0-0.6,0.7-0.2,1.3c0.4,0.5,0.9,1,1,0C1046.2,518,1045.9,517.7,1045.2,517.7z"/>
		</g>
		<g>
			<g>
				<g>
					<path class="st3" d="M1023.6,484.3c0,0,0-0.1,0-0.2c-0.1-0.5-0.7-1.6-0.8-2.1c-0.2-0.5-0.4-1.4-1.8-0.9s-4.1,0-4.1-0.5
						s-2.8-2.9-2.8-2.9l2.5-3.3l2.6-2.6c0,0-0.9-0.4-2.3-0.7c-4.2,2.2-7.3,2.3-7.3,2.3c-1.3,0-5.6-0.4-8-0.4s-2.4,0.3-3.8,0.4
						c-1.4,0.1-0.2,2.7,0.1,4.8c-0.1,0.2-0.2,0.3-0.2,0.5c-0.6,1.3-1,2.1-1.4,2.6c1.1,0.7,2.3,1.3,3.1,1.3c1.8-0.1,4.3-0.5,4.8,0.8
						s0.1,2.4-0.5,3.3c0.2,1,0.3,5.1,4.3,4c4-1.2,8.6-4,10-4c1.1,0,5,0.5,7.2,0.3C1024.1,485.6,1023.6,484.6,1023.6,484.3z"/>
				</g>
				<path class="st3" d="M1022.4,474.1c0,0-2.5,0.7-2.8,1.8c-0.3,1.1-1,1.9,0.4,2.6s2.4,1.4,3.5,1c1-0.4,0.9-0.9,1.8-0.2
					s2,1.6,2.3,0.7c0.4-0.9,0.8-1,1.4-1c0.6-0.1,1-1.8,0.4-1.8c-0.6,0-1.3-1.4-1.3-1.9c0-0.5-0.5,0-1.1,0.4s-0.9,0.6-2,0
					C1023.9,475.2,1023.4,473.8,1022.4,474.1z"/>
			</g>
			<g>
				<path class="st5" d="M1158,494.4L1158,494.4c-0.2-0.2-0.5-0.6-0.2-0.8c0.4-0.2,0.8,0,0.8,0v0c0.1,0,0.1,0,0.2,0.1
					c0.4,0.2-0.3,0.9-0.3,0.9l-0.4-0.1V494.4L1158,494.4z"/>
				<path class="st5" d="M1165.8,457.3L1165.8,457.3c-0.2-0.2-0.5-0.6-0.2-0.8c0.4-0.2,0.8,0,0.8,0v0c0.1,0,0.1,0,0.2,0.1
					c0.4,0.2-0.3,0.9-0.3,0.9l-0.4-0.1V457.3L1165.8,457.3z"/>
				<path class="st5" d="M1189.1,448.6L1189.1,448.6C1189.1,448.6,1189.1,448.6,1189.1,448.6c0.2-0.2,0.7-0.6,0.2-0.7
					c-0.3-0.1-0.6-0.1-0.8-0.1c-0.2,0-0.2-0.1-0.2-0.3c-0.1-0.1-0.4-0.2-0.6,0s-0.1,0.4,0,0.5c0.1,0.1,0.2,0.3,0.5,0.3
					c0,0,0.1,0,0.1,0v0.1l0.6,0.1c0,0,0.1,0,0.1-0.1C1189,448.6,1189.1,448.6,1189.1,448.6L1189.1,448.6z"/>
				<path class="st5" d="M1181.8,454.9L1181.8,454.9c0.1-0.1,0.2-0.1,0.3-0.1c0.5,0,0.4-0.3,0.5-0.5s0.8-0.3,1,0s0.2,0.7,0,0.9
					s-0.4,0.5-0.8,0.6c-0.1,0-0.2,0-0.2,0v0.4l-1,0.2c0,0-1.8-1-0.8-1.3C1181.2,454.9,1181.5,454.9,1181.8,454.9L1181.8,454.9z"/>
				<path class="st5" d="M1174.6,450.6L1174.6,450.6c0,0,0.1,0,0.1,0c0.2,0,0.2-0.1,0.2-0.2c0-0.1,0.3-0.1,0.4,0
					c0.1,0.1,0.1,0.3,0,0.4c-0.1,0.1-0.2,0.2-0.3,0.2c0,0-0.1,0-0.1,0v0.1l-0.4,0.1c0,0-0.7-0.4-0.3-0.5
					C1174.4,450.6,1174.5,450.6,1174.6,450.6L1174.6,450.6z"/>
				<path class="st5" d="M1187.1,477.5L1187.1,477.5c0,0-0.3,0.2-0.3,0.5c0,0.2,0.5,0.4,0.8,0.5s0.2,0.2,0.3,0.3
					c0.1,0.1,0.5,0.2,0.6,0s0.1-0.5,0-0.6s-0.2-0.3-0.5-0.4C1187.7,477.9,1187.1,477.7,1187.1,477.5L1187.1,477.5z"/>
				<path class="st5" d="M1183.8,484.2L1183.8,484.2c0,0-0.1,0.2-0.4,0.4c-0.3,0.2-0.5,0.4-0.1,0.6s0.2,0.4,0.1,0.5
					c-0.1,0.2,0.5,0.6,1,0.5c0.5-0.1,0.7-0.3,0.7-0.6c0-0.3,0-0.5-0.3-0.8C1184.9,484.6,1184.1,484.2,1183.8,484.2L1183.8,484.2z"/>
				<path class="st5" d="M1169.9,484.5L1169.9,484.5c0,0,0.6,0.6,0.6,1.3c-0.1,0.6-0.1,1,0.5,1.1c0.6,0.1,0.5,0.5,0.6,0.9
					c0.1,0.4,1,0.5,1.3,0s0.3-1.2,0-1.6s-0.5-0.9-1.1-1C1171.6,484.1,1170.1,483.9,1169.9,484.5z"/>
				<path class="st5" d="M1160.2,459.6L1160.2,459.6c0,0,0,0.4-0.3,0.6c-0.2,0.2-0.4,0.3-0.2,0.5c0.2,0.2,0,0.3-0.1,0.5
					c-0.1,0.2,0.1,0.5,0.4,0.4c0.3-0.1,0.5-0.3,0.6-0.5c0-0.2,0.1-0.5,0-0.7C1160.9,460.1,1160.5,459.5,1160.2,459.6z"/>
				<path class="st5" d="M1167.8,447.6L1167.8,447.6c0,0,0,0.4-0.3,0.6c-0.2,0.2-0.4,0.3-0.2,0.5s0,0.3-0.1,0.5
					c-0.1,0.2,0.1,0.5,0.4,0.4c0.3-0.1,0.5-0.3,0.5-0.5c0.1-0.2,0.1-0.5,0-0.7C1168.5,448,1168.1,447.5,1167.8,447.6z"/>
				<path class="st5" d="M1166.7,473.3L1166.7,473.3c0,0,0,0.4-0.3,0.6c-0.2,0.2-0.4,0.3-0.2,0.5c0.2,0.2,0,0.3-0.1,0.5
					c-0.1,0.2,0.1,0.5,0.4,0.4c0.3-0.1,0.5-0.3,0.6-0.5c0-0.2,0.1-0.5,0-0.7C1167.4,473.8,1167,473.2,1166.7,473.3z"/>
				<path class="st5" d="M1167.8,462.7L1167.8,462.7c0,0,0,0.4-0.3,0.6c-0.2,0.2-0.4,0.3-0.2,0.5s0,0.3-0.1,0.5
					c-0.1,0.2,0.1,0.5,0.4,0.4c0.3-0.1,0.5-0.3,0.5-0.5c0.1-0.2,0.1-0.5,0-0.7C1168.5,463.2,1168.1,462.6,1167.8,462.7z"/>
			</g>
		</g>
		<g>
			<path class="st3" d="M1012.1,470.4c-0.1-0.2-2.8,1.5-4.1,0.1c-0.2-0.2-0.3-0.4-0.5-0.6c-0.8-1.5,2-1.6,2.1-1.5
				c3.5,1.4,0.3-4.9-1-5c-1.5-0.1-1.4,1.6-1.7,2c-0.2,0.3-2.9-1.2-2.9-1.8c0-0.6-1.7-1.6-2.8-0.1c0.3,1.4,0.7,2.3,0.1,2.5
				s-1.4,1.3-1.7,1.3s-1.6,0.5-1.7,0c-0.1-0.5-1.5-1-2.2-1.3c-0.7-0.3-2.7-2.5-3.3-3.3c-0.6-0.7-1.3-2.3-1.3-2.3s0.9,0.4,1.3,0.7
				s2.4,0.9,2.8,0.9c0.4,0,1.1-0.5,0.5-1.3c-0.5-0.8-2-2.4-2.7-2.8c-0.7-0.4-2.5-0.9-3.2-2.2s-1.8-3.5-3.3-3.3s-3.1,0.1-3-1
				c0.4-0.4,1.4-1,0.7-1.7c-0.6-0.4-1.3,0.1-1.8,0.2c-0.9-1.3-1.9-2.1-3.4-2.1c-0.9-0.9-1.5-1.6-4.5-0.8c-0.7-2-2.3-3.6-2.8-4.1
				c1.3,0,3.8,0.9,4.9,1.6c1,0.7,4.7,2.8,4.9,2.9c0.2,0.2,1.8,0.5,1.9,0.2c-0.5-0.8-6.4-5.5-9.3-7.6c-1.2-0.9-3.2-2.4-5.1-3.9
				c-1.1,1-3,2.8-3.8,3.7c-1,1.3-2.3,4-2.6,4.8c-1.3,2.3-1.8,2.4-3.7,2.4s-7.3,2.4-8.9,3c-1.7,0.6-1.9,1.4-1.4,1.9
				c1.8,0.5,3.9,3.6,4.9,5.6c0.7,2.3-2.5,1.6-3.6,2.8c-1,1.3-1,1.7-0.4,3.3c0,0.7-0.2,1.3-0.4,1.9c0,0,0,0,0,0
				c1.3,0.9,3.5,1.5,4,5.8c-0.2,1.6,1.5,4.6,6.9,5.6c1.4,0.2,3,3.7,5.9,3.7c3,0,4.3-2.1,4.8-1c0.1,0.2,0.3,0.8,0.4,1.5
				c0.1,0.6,0.1,1.4,0.1,2.2c2,0,4.6,0,5,0c0.7,0.1,1.3,0.3,2.4-0.6s2.1-1.6,3-0.5s3.5,3.5,4.7,3.5s2.8-0.7,3.5-1.8
				c0.6-1,1.8-2,3.5-2c1,0,1.6,0,2.3-0.9c0.4-0.5,0.8-1.3,1.4-2.6c0.1-0.2,0.1-0.3,0.2-0.5c-0.3-2.1-1.5-4.7-0.1-4.8
				c1.4-0.1,1.4-0.4,3.8-0.4s6.7,0.4,8,0.4c0,0,3.2-0.1,7.3-2.3C1015.5,470.7,1013.8,470.4,1012.1,470.4z"/>
		</g>
		<g>
			<path class="st3" d="M964,431.7c0,0-1.1-0.7-2.4-1.8c-1.8-1.4-4.1-3.4-4.4-4.7c-0.9-1.8-4.5-5.2-4.5-5.2l0-5.2
				c0,0-4.2-2.5-7.7-5.3c-2.3,2.7-6.4,5-6.4,5s-2.2,0.1-2.2,1.5c0,1.4-1.2,1.9-2.1,2c-1,0.1-0.7,1.5-2,4.1s-3.6,1.7-4.8,1.6
				c-1.3-0.1-1.6-0.5-2.8-0.2s-2.7,0.1-3.4-0.5c-0.6-0.6-1.5-1.7-2.4-2c-0.4-0.1-0.8-0.1-1.1-0.1c0,1.2-0.1,2.7-0.8,3.2
				c-1,0.8-1.5,2.2-0.3,3.5c1.2,1.3,1.3,3.6,1.3,5.8c0,2.2-0.7,8.8,2.5,11.9c3.2,3.1,3.4,4.6,3.4,6.2s0.7,5.1,3.2,5.4
				c2.5,0.3,5,0.3,6.6-5.3c0.7-0.8,2-2.5,3,0.5c0.4,1.1,0.8,3,1.4,5.1c1.2,3.6,3.1,7.7,6.8,8.7c1.3,0,3.4-1.3,4.7-0.5
				c0.2-0.5,0.3-1.1,0.4-1.9c-0.6-1.6-0.6-2,0.4-3.3s4.3-0.5,3.6-2.8c-1-2-3.2-5-4.9-5.6c-0.5-0.5-0.3-1.3,1.4-1.9
				c1.7-0.6,7-3,8.9-3s2.4-0.1,3.7-2.4c0.3-0.8,1.6-3.6,2.6-4.8c0.8-0.9,2.7-2.7,3.8-3.7C966.6,433.9,964,431.7,964,431.7z"/>
		</g>
		<g>
			<g>
				<path class="st3" d="M943.3,408.2c-0.5-0.4-1-0.9-1.6-1.4c-4-3.4-10.4-8.6-13-11.9c-3.1-3.8-6.8-8.3-8.1-10.7
					c-1.3-2.4-2.8-6.5-6.2-8.9c0-2.3,0.3-3.2-0.8-4.7s-1.5-2.8-1-3.7c0.5-0.9,2-3.3,2.4-3.7c0.3-0.4,1.9-1.8,1.9-2.7
					c0-0.3-0.1-0.7-0.2-1c-1.2,0.1-3.1,0.3-3.5,0.3c-0.6,0-1.4,0.1-4.5-1.3c-2.3-0.5-3.4-2-5.1,0.8c-1.2,1.6-1,4.3-4.8,3
					c-3.8-0.2-10.8-0.5-10.6-3.5c0.2-2.2,0.3-2.8,0.3-2.8s-0.5-1.3-1.8-1.6c-1.3-0.3-4.9-0.8-4.9-2.1c-1.3-0.6-2.6-2.1-4-0.5
					c-1,1.7-2.8,3.8-5.2,3.6c-1-0.2-2.6,0-4.1-1.3c-1.3-0.1-2.1-0.2-2.9,1.6c-0.5,1.1-1.7,2.4-5,1.3c0.4,0.7,0.3,1.9-0.3,2.6
					c-0.8,0.9-1.9,1.4,0.1,3.2c2,1.8,2.8,2.4,3.3,4.2c0.5,1.8,0.3,5.7,6.8,10.9s15.4,15.5,18,18.3c2.6,2.8,9,9,9.9,8.7
					s2.9-3.2,3.4-3.6c0.3,2.1-0.1,3.7,1.8,7.5c1.5,2.9,4.8,9.2,7.4,11.6c0.8,0.7,1.5,1.1,2.1,1c2.6-0.5,4.6-2.6,4.7-1.8
					c0,0.3,0.1,0.8,0.1,1.3c0.4,0,0.8,0,1.1,0.1c1,0.3,1.8,1.4,2.4,2s2.1,0.8,3.4,0.5c1.3-0.3,1.6,0.1,2.8,0.2
					c1.3,0.1,3.6,1,4.8-1.6c1.3-2.6,1-4,2-4.1s2.1-0.6,2.1-2s2.2-1.5,2.2-1.5s4.1-2.3,6.4-5C944.4,409.1,943.8,408.7,943.3,408.2z"
					/>
			</g>
			<path class="st3" d="M915.4,364.3c0,0-0.8,1,0.1,1c0.9,0.1,1.3-0.7,0.7-1C915.7,364,915.4,364.3,915.4,364.3z"/>
			<path class="st3" d="M921,364.3c0,0-1,0.1-0.9,0.7s0.1,1,0.8,1C921.7,365.8,922.3,364.3,921,364.3z"/>
			<path class="st3" d="M924.4,359.6c0,0-1,0.4-0.6,1c0.4,0.7,1.3,0.7,1.3,0C925.2,359.9,924.8,359.4,924.4,359.6z"/>
			<path class="st3" d="M917.3,362.4c0,0-1.2,0.3-1.2,0.6c0,0.3-0.2,0.7,0.7,0.7S918.4,362.5,917.3,362.4z"/>
		</g>
		<g>
			<path class="st3" d="M914.9,358.2c0-0.6-0.3-1.3-0.6-2c-0.6-1.4-1.7-2.8-2.4-3.3c-0.2-3.8-0.3-4.1-0.3-4.1s-2.4-1.9-2.5,1.4
				c-1.4,0.1-2.7-0.1-3.2,1.5c-1.1-0.4-1.6-1.5-1.6-2c1.5,0,1.5,0,1.5,0v-1.2c0,0-4.3-4.8-8-7.5c-1.2-1.1-4.3-2.9-6-0.8
				c-0.4-0.1-0.8,0-0.8,0l0.1-1.3c0,0-5.7-5-7.5-7.8c-1.8-2.8-9.2-13.9-10.7-17.9c-0.6-1.4-1.9-4.1-1.8-5.5l0.1-2.6l-1.3,0
				c-0.6,1.4,0,2.9,0,4.8c0,2.1-0.6,2.5-2.1,2.9c-1.5,0.4-0.5,3.3-1,4.6c-0.5,1.4-2.3,1.7-3.6,1.2c-1.3-0.5-0.8-0.7-2.4-0.5
				c-2.9,1.4-3.9,1-4.7,0.2c-0.7-2.8-2.5-0.8-4.2-0.3c-1.7,0.5-5.1-0.2-7.7-1.9c-2-1.7-3.1-1.7-3.7-0.8c-0.5,0.8-2.1,1.5-3.9,1
				c-1-0.3-2.4-0.4-3.3-0.5c-1.5,2.2-5.4,7.9-1.7,13.1c3.7,5.4,6.6,10,6.6,10s1.6,2.2,3.5,1.1c0.8,1.9,2.2,6,4.3,7
				c4.5-4.2,4.5-4.2,4.5-4.2l6.6,9.8l0.4,0.5c0,0,1.8,2.9,2.5,3.4c0.2,0.1,0.3,0.3,0.4,0.5c3.3,1.1,4.4-0.2,5-1.3
				c0.8-1.8,1.7-1.7,2.9-1.6c1.5,1.3,3.1,1,4.1,1.3c2.3,0.2,4.1-1.9,5.2-3.6c1.4-1.6,2.7-0.1,4,0.5c0,1.3,3.7,1.8,4.9,2.1
				c1.3,0.3,1.8,1.6,1.8,1.6s-0.1,0.6-0.3,2.8c-0.2,2.9,6.8,3.3,10.6,3.5c3.8,1.3,3.7-1.5,4.8-3c1.8-2.8,2.8-1.4,5.1-0.8
				c3.2,1.4,3.9,1.3,4.5,1.3c0.4,0,2.3-0.2,3.5-0.3C916.3,358.8,915.7,358.2,914.9,358.2z"/>
		</g>
		<g>
			<path class="st3" d="M872.2,272.2c0,0-3.2-1-5.5-1.3c-2.3-0.3-2.8-1.3-2.8-2.3s-1.2-1.8-2.2-2c-1-0.2-3-3.7-4.2-5.1
				c-1.2-1.3-4.2,0.3-6.5,0.8s-3.8-3.6-3.8-5.7s-2-0.3-2.6,0.4c-0.7,0.8-2.2,2.9-2.6,2.5s-1.3-1.6-1.3-1.6s1.1-2.1,1.6-4.2
				s-2.4-3.4-5.8-5.8c-4.5-4.9-2.9-8.1-1.7-9.8c2.3-2.4,1.4-4.5,1.1-5.2c-0.3-0.7-3.7-1.6-4.6-1.6s-3.5-0.3-4.3-0.3
				c-0.7,0-4-2.7-5.4-3.9c-0.7,0.9-1.5,1.6-2.6,2c-2.4,1-3.3,2.5-3.2,6.3c0,1.9,0.4,4.5-3.4,5.1c-3.6,0.6-6.2,2.3-6.2,5.5
				c-0.1,1.5-1.3,4.1-5,4.9c-1.8,0.4-4.2-0.8-7.3-2.2c-3.1-1.4-3.8-2.9-9.8-1c-3.4-0.3-7.4-0.9-9,0.1c-2.5,0.2-4.1,0.6-4.1,0.6
				s-3,1.1-0.4,5.8c0.3,2.8,0.4,3.6-0.2,4.4c-0.7,0.8-3,2.1-3,5.7c-2.2,1.8-8.3,6-8.3,6s3.1,5.5,8.5,5.4c3,0.3,5.7,0.5,7.6,2
				c1.9,1.4,0.2,4.1,2.4,4.7s5.1-1.4,6.4,0.3c1.3,1.8,5.9,7.4,10.7,7.5c1.8,0.8,3.2,2.2,5.2,4.3c2,2.1,3.8,4,7.7,6.2
				c3.8,2.2,8.9,3.1,11.5,3.9c2.6,0.8,7.7,3.7,8.8,4.5c1.1,0.8,4.3,1.8,4.8,2.3s2,2.2,0.7,4.2c0,0.1-0.1,0.1-0.1,0.2
				c1,0,2.3,0.2,3.3,0.5c1.8,0.5,3.4-0.1,3.9-1c0.5-0.8,1.7-0.8,3.7,0.8c2.5,1.7,6,2.4,7.7,1.9c1.7-0.5,3.5-2.5,4.2,0.3
				c0.8,0.8,1.8,1.2,4.7-0.2c1.6-0.2,1.2,0,2.4,0.5s3,0.2,3.6-1.2c0.5-1.4-0.4-4.2,1-4.6c1.5-0.4,2.1-0.8,2.1-2.9c0-2-0.5-3.5,0-4.8
				l-0.1,0l-0.3-1.3c0,0-3.5-3.8-5-5.8c-1.5-2-2.8-5.9-2.4-8.3c0.4-2.4,1.5-3.8,1.5-3.8l2.9,0.1c0,0,0.5-2.8,0.4-4.1
				s0.9-3.4,1.4-3.7c0.5-0.3,2.4-0.3,2.4-0.3s2-2,2-3.7c0-0.9,0.1-1.4,0.1-2.3c0,0.1,0,0.2,0,0.3L872.2,272.2z"/>
		</g>
		<g>
			<g>
				<path class="st3" d="M831.2,231.3c0.9,0,4.3,1,4.6,1.6c0.3,0.7,1.2,2.8-1.1,5.2c-1.2,1.6-2.9,4.8,1.6,9.8
					c3.4,2.4,6.4,3.7,5.8,5.8s-1.7,4.2-1.7,4.2s0.9,1.3,1.3,1.6s2-1.8,2.6-2.5c0.7-0.8,2.6-2.5,2.6-0.4s1.5,6.2,3.9,5.7
					s5.3-2.1,6.5-0.8c1.2,1.3,3.2,4.8,4.2,5.1s2.2,1,2.2,2c0,1,0.4,2,2.8,2.3s5.5,1.3,5.5,1.3l0.6-0.1c0-0.8-0.1-1.7-0.3-3.5
					c-0.3-1.8,0.5-2.4,0.8-3.1c0.3-0.7,0.9-3.5,0.9-5.5c0-1.9,0.7-3.1,0.7-3.4c0-0.3-0.5-1.8-0.5-2.3c0-0.4,1.4-1.7,1.7-2.1
					c0.3-0.4,1.2-3,1.5-4.6c0.3-1.6,2.6-3.1,2.8-3.9c0.9-3.3,3.8-11.5,3.9-11.6c1.5-1.8,2-0.6,2.6,0.5l0.6-0.9c0,0,3.3-4.2,2.8-5.6
					c-0.5-1.4-0.8-1.1-3.1-1.5c-2.3-0.4-4.7-1.6-7.7-4.3c-2.5-1.3-11.1-5.8-12.4-8.4c-2.6-1.7-4.7-1.5-7.1-7.3c-0.3,0-0.6,0-1,0
					c-3.3,0-5.3-0.2-6.7-0.9c-1.4-0.7-7.4-2.5-9-3.1c-1.6-0.6-1.9-0.1-2.3-1.4c-0.4-1.3-1.7-3.3-2.1-3.6c-0.5-0.4-3.3-2.7-4.5-3.7
					s-1.4-1.2-2.2-0.5s-3.3,1.3-4.4,0.5c-1.2-0.8-2.9-0.5-3-3c-0.1-2.5-3-3.8-4.4-4.6c0,0-2-0.3-2.8,0.1c0,0,0-0.3,0-0.7
					c0,0.3,0,0.5,0,0.6c-1.1,0.5-2.3,1.2-3.7,1.9c-3.9,2.4-5.9,1.3-6.6,1c-0.5-0.2-1.7-1.1-2.5-1.8l0,0c0,0.7-0.3,1.7-2,2.6
					c-2.8,1.3-13.5,8.5-13.5,8.5s1.3,6.6,3.3,6.6c1-0.2,5.8,0,13.8-6.6c1.5,0.7,2.4,3,2.4,3s-7.4,4-4.2,11c0.7,1.4,1.9,3.2,5.7,3.4
					c2.6,0.2,5.1,0.9,5.4,1.5c0.3,0.7,3.1,3,4.7,2.3s3.2-0.9,3.6,0.1s0.8,2.1-0.2,5.1c-0.6,1.7-1.2,3.1-2.1,4.3
					c1.5,1.2,4.8,3.9,5.4,3.9C827.8,231,830.3,231.3,831.2,231.3z"/>
			</g>
			<path class="st3" d="M875.1,268.2c0,0-1.3,0.4-1.2,1.9c0.1,1.5,0.7,2.5,1.2,2.3c0.5-0.2,0.7-0.7,0.7-2S875.6,268.2,875.1,268.2z"
				/>
			<path class="st3" d="M880.8,266.5c0,0-0.9,0.3-0.9,0.9s0.5,1.5,1,1.3s1-0.6,1-1.1C881.8,267.1,881.6,266.4,880.8,266.5z"/>
		</g>
		<path class="st6" d="M1110,344.7c0,0-1.1,1.1-0.3,1.4C1110.5,346.4,1111.8,344.6,1110,344.7z"/>
		<path class="st6" d="M1114.3,336.6c0,0-1,1.5,0.1,1.7c1.1,0.2,1.4-0.1,1.1-0.9C1115,336.7,1114.8,336.1,1114.3,336.6z"/>
		<path class="st6" d="M1115.9,332.8c0,0-1.6,1.1-0.1,1.3C1117.3,334.3,1116.9,332.8,1115.9,332.8z"/>
		<path class="st3" d="M985.1,448.5c0,0,1.9,2.4,3.4,3.4c1.5,1.1,5.3,4.3,6.4,5.3c1.1,1.1,2.6,3.8,3.8,4.3c1.3,0.4,4,0.2,1.7-1.7
			C998.1,457.9,986.1,447.5,985.1,448.5z"/>
		<g>
			<g>
				<g>
					<path class="st3" d="M1095.2,690.7c0,0-0.7-0.7-0.4-1.2c0.3-0.5-0.1-2.3-0.1-2.3s-0.7,0.1-1.5-0.6c-0.3-0.3-0.6-0.7-0.8-1.2
						c-0.2-0.5-0.3-1.1-0.3-1.7c0.1-1.2,0.3-3.2,0.9-4.3c0.6-1.1,1.8-2,1.8-1.3s-0.4,2.1,0.4,1.9c0.7-0.2,1.9-2.1,1.9-2.9
						s-1.5-3.1-2.3-3.2c-0.5,0.2-0.9,0.3-1.2,0c-2.6,2.9-4.7,5.1-6.2,5.5c-1.6,0.4-3.7,0.7-5.5,1.1c-0.4,0.1-0.8,0.2-1.1,0.2
						c-4,0-2.8,0.6-4.1,1.2c-1.3,0.6-1.6,0.2-2.2,1.2c-0.6,1-2,2.3-3.7,2.3c-1.2,0-2.2,1.3-2.9,2.3c-0.3,0.3-0.5,0.6-0.7,0.8
						c-0.7,0.7-4.8,2.2-4.8,2.2l-0.3,0.2l-3.6,2.9c0,0,0.3,5.7,0.2,8.2c-0.2,2.5-0.9,1.9-1.6,1.9s-2.8-0.7-5.3-1
						c-4.7,1.5-5,1.8-5.7,4.7c-0.7,2.9,1.5,6,1.5,6l0.6,4.4l1.7,5.1c0.5-0.1,0.9,0.1,1.7,0.3c1.3,0.4,2.6,0.7,3.7,2.9
						s1.8,8.8,2.8,9.5c1,0.7,4.4,2.3,7.2,2.5c2.8,0.2,5.7,0.7,5.9,2s1.6,6.9,6.8,5.7c0.8-0.1,1.7-0.1,2.7,0c-0.2-1-0.5-2.3-0.5-2.3
						l-0.7-1.4h3.1l1,1.5l0.9-0.8l1.5-0.3c0,0,0.2-1.2-0.7-2.7c-0.9-1.5,0.6-2.2,0.6-2.2s0.9-1.1-1.1-2.4s-2.3-2.3-2.5-2.9
						s-1.8-2.5-1.8-2.5s-0.5-2.5-0.5-2.7c0-0.2,1.9-1,1.9-1l0.1-2.5l-0.9-0.5l-0.3-2.6c0,0-1-2.6-1.5-2.9c0.3-2.4,1.1-2.8,2.1-3.4
						c0.9-0.6-1-2.9-1-2.9v-2.6c0,0-1.7-3.1-2.7-3.5c-1-0.4-0.7-1.1-0.7-2.1c0.9,0.2,1.9,1.3,2.9,2.1c0.9,0.9,2.9,1.7,2.9,2.6
						s1.1,3.5,2.4,3.6c0.8-1.5,0.9-2.4,1.3-2.3c0.4,0.2,0.7,0.7,0.9,0.9s1-0.4,1-2.1c0.7-0.3,0.4-1.6,0.4-1.6s-1-0.4-1.5-0.5
						c-0.6-0.2-0.9-0.3-0.9-1.6s0.4-2-1.8-2.9c-1.1-0.9-1.8-1.8-2.2-2.5c-0.2-0.5-0.3-0.9-0.3-1.3c0.2-1,1.4-2,1.4-2
						s-0.7-0.5-1.6-0.4s-1.2,0-1.2,0l-0.1,2.1c0,0-0.9,0.3-1-0.2c-0.2-0.5-0.2-2.3,0.4-3.5c0,0,0.7-3,2.6-4.7c0,0,0.4-0.4,0.9-0.9
						c0.8-0.8,1.9-1.8,2.4-2.1c0.3-0.2,0.9-0.5,1.5-0.8c0.6-0.4,1.2-0.9,1.6-1.7l1.5,0.1l-0.1,2.2l0,0.3c0,0-0.4,0.5-0.9,1
						c-0.5,0.6-1.1,1.3-1.4,1.8c-0.7,1-0.8,2.9,0.4,2.9s2.2-0.6,2.4-1.1c0.2-0.5,0.7-0.5,1.2-0.2c0.4,0.3,0.6,1.3,0.2,1.5
						c-0.4,0.3-1.6,1.6-0.7,2.3c0.9,0.7,1.9,1.1,1.9,1.7s0.1,2.2,0.5,2.3c0.4,0.2,1.6,0.6,1.6-1.6v-3.8c0,0,0-0.1,0-0.1l1.3-0.8
						l-0.1-1.4L1095.2,690.7z"/>
				</g>
				<path class="st3" d="M1090.3,693.6c0,0-0.7-0.2-1.6-0.4c-0.9-0.2-3.2-0.9-3.3-0.2c-0.2,0.7,0.2,2.8,1.7,3.7
					c1.5,1,2.9,1.4,3.5,1.9c0.6,0.5,1.8,0.7,1.8,0.3s0.4-0.6-0.4-1.8c-0.7-1.3-0.9-1.6-1.1-2.3C1090.7,694,1090.5,694,1090.3,693.6z
					"/>
				<path class="st3" d="M1089,701.9c0,0-0.7,0.8-0.2,1.2c0.6,0.4,2.3,0.5,1.2-0.5C1088.9,701.5,1089,701.9,1089,701.9z"/>
				<path class="st3" d="M1083.5,719.1c0,0-2-0.7-1.5,0.2s2.2,2.7,2.3,3c0.1,0.3,1,1.3,1.1,0.2c0.2-1,0.5-1.1,0.8-0.7
					c0.3,0.4,0.3,1.4,1.2,1.5c0.9,0.1,1.4-0.9,1.4-1.3s0.4-1.6-0.9-1.8s-2.1-0.7-2.5-0.7C1085,719.5,1083.5,719.1,1083.5,719.1z"/>
				<path class="st3" d="M1087.3,730.1c0,0-1.1,0.4-0.6,0.9c0.5,0.5,1.5,0.7,1.5,0S1087.6,730,1087.3,730.1z"/>
				<path class="st3" d="M1088.7,734.4c0,0-1.9,0.8-1,1.7c1,0.9,2,1.3,2.1,1c0.2-0.3,1.1-0.4,0.7-1.3
					C1090.1,735,1089.5,734.2,1088.7,734.4z"/>
				<path class="st3" d="M1082.8,744.7c0,0-1.9,0.4-1.3,1.1c0.6,0.7,1.5,0.9,1.7,0.5S1084.2,744.7,1082.8,744.7z"/>
			</g>
			<g>
				<path class="st5" d="M1182.2,816.2c0,0,0.4,0.6,0.4,1.2c-0.1,0.6-0.1,0.9,0.3,1s0.3,0.4,0.5,0.8c0.1,0.4,0.7,0.5,0.9,0
					s0.2-1.1,0-1.5c-0.2-0.4-0.3-0.8-0.8-0.9C1183.2,816.6,1182.2,816.2,1182.2,816.2L1182.2,816.2z"/>
				<path class="st5" d="M1192.9,805.8L1192.9,805.8c-0.4-0.4-1-1.2-0.4-1.5c0.8-0.4,1.5,0,1.5,0v0c0.1,0,0.3,0.1,0.4,0.2
					c0.8,0.4-0.7,1.8-0.7,1.8l-0.8-0.2L1192.9,805.8L1192.9,805.8z"/>
				<path class="st5" d="M1213.5,810.8L1213.5,810.8c-0.2-0.2-0.5-0.6-0.2-0.8c0.4-0.2,0.8,0,0.8,0v0c0.1,0,0.1,0,0.2,0.1
					c0.4,0.2-0.3,0.9-0.3,0.9l-0.4-0.1V810.8L1213.5,810.8z"/>
				<path class="st5" d="M1221.4,773.7L1221.4,773.7c-0.2-0.2-0.5-0.6-0.2-0.8c0.4-0.2,0.8,0,0.8,0v0c0.1,0,0.1,0,0.2,0.1
					c0.4,0.2-0.3,0.9-0.3,0.9l-0.4-0.1V773.7L1221.4,773.7z"/>
				<path class="st5" d="M1201.3,802.7L1201.3,802.7c0,0,0.5-0.2,0.9,0.4c0.1,0.1,0.2,0.2,0.2,0.3v0.8l1.2,0.2c0,0,2.1-1.2,1-1.5
					c-0.2,0-0.3-0.1-0.5-0.1c0-0.2,0-0.4-0.1-0.6c-0.3-0.7-0.6-1.2-0.9-1.2c-0.3,0-0.7-0.2-0.9,0.3
					C1202,801.7,1201.3,802.7,1201.3,802.7L1201.3,802.7z"/>
				<path class="st5" d="M1244.6,765L1244.6,765C1244.6,765,1244.6,765,1244.6,765c0.2-0.2,0.7-0.6,0.2-0.7
					c-0.3-0.1-0.6-0.1-0.8-0.1c-0.2,0-0.2-0.2-0.2-0.3c-0.1-0.1-0.4-0.2-0.6,0s-0.1,0.4,0,0.5c0.1,0.1,0.2,0.3,0.5,0.3
					c0,0,0.1,0,0.1,0v0.1l0.6,0.1c0,0,0.1,0,0.1-0.1C1244.6,765,1244.6,765,1244.6,765L1244.6,765z"/>
				<path class="st5" d="M1237.4,771.3L1237.4,771.3c0.1-0.1,0.2-0.1,0.3-0.1c0.5,0,0.4-0.3,0.5-0.5s0.8-0.3,1,0s0.2,0.7,0,0.9
					c-0.2,0.2-0.4,0.5-0.8,0.6c-0.1,0-0.2,0-0.2,0v0.4l-1,0.2c0,0-1.8-1-0.8-1.3C1236.7,771.4,1237.1,771.3,1237.4,771.3
					L1237.4,771.3z"/>
				<path class="st5" d="M1230.1,767L1230.1,767c0,0,0.1,0,0.1,0c0.2,0,0.2-0.1,0.2-0.2c0-0.1,0.3-0.1,0.4,0c0.1,0.1,0.1,0.3,0,0.3
					c-0.1,0.1-0.2,0.2-0.3,0.2c0,0-0.1,0-0.1,0v0.2l-0.4,0.1c0,0-0.7-0.4-0.3-0.5C1229.9,767,1230,767,1230.1,767L1230.1,767z"/>
				<path class="st5" d="M1211.4,796.8L1211.4,796.8c-0.3-0.3-0.5-0.6,0-0.8c0.3-0.1,0.6-0.1,0.8-0.2c0,0,0,0,0,0s0,0,0,0
					c0.6,0,1.1,0.2,1.1,0.2v1.2l-0.8,0.1c0,0.3-0.2,0.6-0.4,0.8c-0.2,0.3-0.6,0.6-1.1,0.7s-0.7-0.4-0.4-0.7c0.2-0.3,0.5-0.4,0.4-0.7
					C1210.8,797.2,1211,797,1211.4,796.8L1211.4,796.8z"/>
				<path class="st5" d="M1169.7,818.6L1169.7,818.6c0,0-2.2-1.2-1-1.6c1.2-0.4,2.2,0,2.2,0v1.4L1169.7,818.6L1169.7,818.6z"/>
				<path class="st5" d="M1242.6,794L1242.6,794c0,0-0.3,0.2-0.3,0.5c0,0.2,0.5,0.4,0.8,0.5s0.2,0.2,0.3,0.3c0.1,0.2,0.5,0.2,0.6,0
					s0.1-0.5,0-0.6c-0.1-0.2-0.2-0.3-0.5-0.4C1243.3,794.3,1242.6,794.1,1242.6,794L1242.6,794z"/>
				<path class="st5" d="M1239.3,800.7L1239.3,800.7c0,0-0.1,0.2-0.4,0.4c-0.3,0.2-0.5,0.3-0.1,0.6c0.4,0.2,0.2,0.4,0.1,0.5
					c-0.1,0.2,0.5,0.6,1,0.5c0.5-0.1,0.7-0.3,0.7-0.6c0-0.3,0-0.5-0.3-0.8C1240.4,801,1239.6,800.6,1239.3,800.7L1239.3,800.7z"/>
				<path class="st5" d="M1225.4,800.9L1225.4,800.9c0,0,0.6,0.6,0.6,1.3c-0.1,0.6-0.1,1,0.5,1.1c0.6,0.1,0.5,0.5,0.6,0.9
					s1,0.5,1.3,0s0.3-1.2,0-1.6s-0.5-0.9-1.1-1C1227.1,800.5,1225.7,800.4,1225.4,800.9z"/>
				<path class="st5" d="M1215.7,776L1215.7,776c0,0,0,0.4-0.3,0.6s-0.4,0.3-0.2,0.5c0.2,0.2,0,0.3-0.1,0.5
					c-0.1,0.2,0.1,0.5,0.4,0.4c0.3-0.1,0.5-0.3,0.6-0.5c0-0.2,0.1-0.5,0-0.7C1216.4,776.5,1216,775.9,1215.7,776z"/>
				<path class="st5" d="M1223.3,764L1223.3,764c0,0,0,0.4-0.3,0.6c-0.2,0.2-0.4,0.3-0.2,0.5c0.2,0.2,0,0.3-0.1,0.5
					c-0.1,0.2,0.1,0.5,0.4,0.4c0.3-0.1,0.5-0.3,0.6-0.5c0-0.2,0.1-0.5,0-0.7C1224,764.5,1223.6,763.9,1223.3,764z"/>
				<path class="st5" d="M1222.2,789.7L1222.2,789.7c0,0,0,0.4-0.3,0.6s-0.4,0.3-0.2,0.5c0.2,0.2,0,0.3-0.1,0.5
					c-0.1,0.2,0.1,0.5,0.4,0.4c0.3-0.1,0.5-0.3,0.6-0.5c0-0.2,0.1-0.5,0-0.7C1222.9,790.2,1222.5,789.7,1222.2,789.7z"/>
				<path class="st5" d="M1223.3,779.1L1223.3,779.1c0,0,0,0.4-0.3,0.6c-0.2,0.2-0.4,0.3-0.2,0.5c0.2,0.2,0,0.3-0.1,0.5
					c-0.1,0.2,0.1,0.5,0.4,0.4c0.3-0.1,0.5-0.3,0.6-0.5c0-0.2,0.1-0.5,0-0.7C1224,779.6,1223.6,779.1,1223.3,779.1z"/>
				<path class="st5" d="M1210.5,785.8L1210.5,785.8c0,0,0,0.4-0.3,0.6s-0.4,0.3-0.2,0.5c0.2,0.2,0,0.3-0.1,0.5
					c-0.1,0.2,0.1,0.5,0.4,0.4c0.3-0.1,0.5-0.3,0.6-0.5c0-0.2,0.1-0.5,0-0.7C1211.2,786.3,1210.7,785.7,1210.5,785.8z"/>
			</g>
		</g>
	</g>
</g>
</svg>
